<svg width="345" height="334" viewBox="0 0 345 334" fill="none" xmlns="http://www.w3.org/2000/svg">
<g clip-path="url(#clip0_23_2)">
<rect width="345" height="334" rx="167" fill="#22223B"/>
<g filter="url(#filter0_i_23_2)">
<path d="M128 54H166C200.242 54 228 81.7583 228 116V116C228 150.242 200.242 178 166 178H128V54Z" fill="#9A8C98"/>
</g>
<g filter="url(#filter1_i_23_2)">
<path d="M160 94H198C232.242 94 260 121.758 260 156V156C260 190.242 232.242 218 198 218H160V94Z" fill="#4A4E69"/>
</g>
<g filter="url(#filter2_di_23_2)">
<path d="M190.017 151.998C190.017 148.666 189.555 146.384 188.631 145.152C187.735 143.92 186.391 143.304 184.599 143.304C182.219 143.304 180.021 144.2 178.005 145.992C176.997 146.888 176.185 148.092 175.569 149.604C174.981 151.088 174.687 152.642 174.687 154.266C174.687 155.89 174.911 157.248 175.359 158.34C175.835 159.432 176.395 160.258 177.039 160.818C178.411 162.022 179.601 162.736 180.609 162.96L181.323 163.086L181.029 163.884C180.553 163.744 180.147 163.632 179.811 163.548C179.503 163.436 178.943 163.142 178.131 162.666C177.319 162.19 176.619 161.658 176.031 161.07C175.471 160.454 174.953 159.586 174.477 158.466C174.029 157.318 173.805 156.044 173.805 154.644C173.805 151.032 174.841 148.092 176.913 145.824C179.013 143.556 181.729 142.422 185.061 142.422C191.221 142.422 194.301 145.348 194.301 151.2C194.301 153.188 194.189 154.896 193.965 156.324C193.741 157.724 193.601 158.494 193.545 158.634C194.833 154.91 196.499 151.284 198.543 147.756C200.615 144.228 202.897 141.274 205.389 138.894C207.881 136.486 210.163 135.282 212.235 135.282C213.803 135.282 214.909 135.632 215.553 136.332C216.197 137.004 216.519 138.012 216.519 139.356H215.553C215.413 138.124 215.077 137.312 214.545 136.92C214.041 136.5 213.271 136.29 212.235 136.29C210.527 136.29 208.553 137.354 206.313 139.482C204.101 141.61 202.085 144.13 200.265 147.042C198.445 149.954 196.891 152.978 195.603 156.114C194.343 159.222 193.713 161.742 193.713 163.674C193.713 166.558 194.189 168.574 195.141 169.722C196.121 170.87 197.423 171.444 199.047 171.444C200.699 171.444 202.239 171.066 203.667 170.31V171.276C202.183 171.976 200.573 172.326 198.837 172.326C192.425 172.326 189.219 169.134 189.219 162.75C189.219 161.406 189.331 160.062 189.555 158.718C186.951 164.934 184.039 169.946 180.819 173.754C177.599 177.562 174.547 179.466 171.663 179.466C170.095 179.466 168.989 179.116 168.345 178.416C167.701 177.744 167.379 176.736 167.379 175.392H168.345C168.485 176.624 168.807 177.436 169.311 177.828C169.843 178.248 170.627 178.458 171.663 178.458C174.015 178.458 176.661 176.82 179.601 173.544C182.569 170.268 185.047 166.53 187.035 162.33C189.023 158.13 190.017 154.686 190.017 151.998ZM220.765 162.792C221.409 160.832 221.983 158.662 222.487 156.282C223.019 153.902 223.285 151.718 223.285 149.73C223.285 147.742 222.823 146.174 221.899 145.026C220.975 143.878 219.687 143.304 218.035 143.304C215.655 143.304 213.457 144.2 211.441 145.992C210.433 146.888 209.621 148.092 209.005 149.604C208.417 151.088 208.123 152.642 208.123 154.266C208.123 155.89 208.347 157.248 208.795 158.34C209.271 159.432 209.831 160.258 210.475 160.818C211.847 162.022 213.037 162.736 214.045 162.96L214.759 163.086L214.465 163.884C213.989 163.744 213.583 163.632 213.247 163.548C212.939 163.436 212.379 163.142 211.567 162.666C210.755 162.19 210.055 161.658 209.467 161.07C208.907 160.454 208.389 159.586 207.913 158.466C207.465 157.318 207.241 156.044 207.241 154.644C207.241 151.032 208.277 148.092 210.349 145.824C212.449 143.556 215.165 142.422 218.497 142.422C224.657 142.422 227.737 145.348 227.737 151.2C227.737 154.168 227.485 156.408 226.981 157.92C233.953 142.828 240.183 135.282 245.671 135.282C247.239 135.282 248.345 135.632 248.989 136.332C249.633 137.004 249.955 138.012 249.955 139.356H248.989C248.849 138.124 248.513 137.312 247.981 136.92C247.477 136.5 246.707 136.29 245.671 136.29C243.935 136.29 242.045 137.214 240.001 139.062C237.985 140.882 236.081 143.22 234.289 146.076C230.537 151.984 227.583 158.088 225.427 164.388C223.691 169.4 222.473 172.956 221.773 175.056H216.145C216.705 173.824 217.461 171.962 218.413 169.47C219.365 166.978 220.149 164.752 220.765 162.792Z" fill="#9A8C98"/>
<path d="M188.631 145.152L187.823 145.74L187.827 145.746L187.831 145.752L188.631 145.152ZM178.005 145.992L177.341 145.245L177.341 145.245L178.005 145.992ZM175.569 149.604L174.643 149.227L174.64 149.236L175.569 149.604ZM175.359 158.34L174.434 158.72L174.438 158.73L174.443 158.74L175.359 158.34ZM177.039 160.818L177.699 160.066L177.696 160.063L177.039 160.818ZM180.609 162.96L180.393 163.936L180.414 163.941L180.436 163.945L180.609 162.96ZM181.323 163.086L182.262 163.432L182.675 162.309L181.497 162.101L181.323 163.086ZM181.029 163.884L180.747 164.843L181.645 165.107L181.968 164.23L181.029 163.884ZM179.811 163.548L179.47 164.488L179.519 164.506L179.569 164.518L179.811 163.548ZM178.131 162.666L177.626 163.529L177.626 163.529L178.131 162.666ZM176.031 161.07L175.292 161.743L175.308 161.76L175.324 161.777L176.031 161.07ZM174.477 158.466L173.546 158.83L173.551 158.843L173.557 158.857L174.477 158.466ZM176.913 145.824L176.18 145.145L176.175 145.15L176.913 145.824ZM193.965 156.324L194.953 156.482L194.953 156.479L193.965 156.324ZM193.545 158.634L192.6 158.307L194.474 159.005L193.545 158.634ZM198.543 147.756L197.681 147.25L197.678 147.255L198.543 147.756ZM205.389 138.894L206.08 139.617L206.084 139.613L205.389 138.894ZM215.553 136.332L214.818 137.009L214.824 137.017L214.832 137.024L215.553 136.332ZM216.519 139.356V140.356H217.519V139.356H216.519ZM215.553 139.356L214.56 139.469L214.661 140.356H215.553V139.356ZM214.545 136.92L213.905 137.688L213.928 137.707L213.952 137.725L214.545 136.92ZM206.313 139.482L205.625 138.757L205.62 138.761L206.313 139.482ZM200.265 147.042L201.113 147.572L201.113 147.572L200.265 147.042ZM195.603 156.114L194.678 155.734L194.677 155.738L195.603 156.114ZM195.141 169.722L194.372 170.36L194.376 170.366L194.381 170.371L195.141 169.722ZM203.667 170.31H204.667V168.649L203.2 169.426L203.667 170.31ZM203.667 171.276L204.094 172.18L204.667 171.91V171.276H203.667ZM189.555 158.718L190.542 158.882L188.633 158.332L189.555 158.718ZM180.819 173.754L180.056 173.108L180.819 173.754ZM168.345 178.416L169.081 177.739L169.075 177.731L169.067 177.724L168.345 178.416ZM167.379 175.392V174.392H166.379V175.392H167.379ZM168.345 175.392L169.339 175.279L169.238 174.392H168.345V175.392ZM169.311 177.828L169.931 177.043L169.925 177.039L169.311 177.828ZM179.601 173.544L178.86 172.873L178.857 172.876L179.601 173.544ZM187.035 162.33L186.132 161.902L186.132 161.902L187.035 162.33ZM191.017 151.998C191.017 150.291 190.9 148.817 190.651 147.589C190.404 146.37 190.016 145.332 189.431 144.552L187.831 145.752C188.171 146.204 188.476 146.923 188.691 147.986C188.904 149.04 189.017 150.373 189.017 151.998H191.017ZM189.44 144.564C188.321 143.025 186.647 142.304 184.599 142.304V144.304C186.136 144.304 187.15 144.815 187.823 145.74L189.44 144.564ZM184.599 142.304C181.942 142.304 179.514 143.313 177.341 145.245L178.67 146.739C180.529 145.087 182.497 144.304 184.599 144.304V142.304ZM177.341 145.245C176.197 146.261 175.305 147.602 174.643 149.227L176.496 149.981C177.066 148.582 177.798 147.515 178.67 146.739L177.341 145.245ZM174.64 149.236C174.005 150.839 173.687 152.518 173.687 154.266H175.687C175.687 152.766 175.958 151.337 176.499 149.972L174.64 149.236ZM173.687 154.266C173.687 155.974 173.922 157.471 174.434 158.72L176.285 157.96C175.901 157.025 175.687 155.806 175.687 154.266H173.687ZM174.443 158.74C174.956 159.917 175.592 160.884 176.383 161.573L177.696 160.063C177.199 159.632 176.715 158.947 176.276 157.94L174.443 158.74ZM176.38 161.57C177.795 162.811 179.138 163.657 180.393 163.936L180.826 161.984C180.065 161.815 179.028 161.233 177.699 160.066L176.38 161.57ZM180.436 163.945L181.15 164.071L181.497 162.101L180.783 161.975L180.436 163.945ZM180.385 162.74L180.091 163.538L181.968 164.23L182.262 163.432L180.385 162.74ZM181.312 162.925C180.828 162.782 180.408 162.666 180.054 162.578L179.569 164.518C179.887 164.598 180.279 164.706 180.747 164.843L181.312 162.925ZM180.153 162.608C179.944 162.532 179.46 162.286 178.637 161.803L177.626 163.529C178.427 163.998 179.063 164.34 179.47 164.488L180.153 162.608ZM178.637 161.803C177.889 161.365 177.259 160.883 176.739 160.363L175.324 161.777C175.98 162.433 176.75 163.015 177.626 163.529L178.637 161.803ZM176.771 160.397C176.313 159.893 175.848 159.135 175.398 158.075L173.557 158.857C174.059 160.037 174.63 161.015 175.292 161.743L176.771 160.397ZM175.409 158.102C175.012 157.085 174.805 155.936 174.805 154.644H172.805C172.805 156.152 173.047 157.551 173.546 158.83L175.409 158.102ZM174.805 154.644C174.805 151.235 175.777 148.55 177.652 146.498L176.175 145.15C173.906 147.634 172.805 150.829 172.805 154.644H174.805ZM177.647 146.503C179.542 144.457 181.984 143.422 185.061 143.422V141.422C181.475 141.422 178.485 142.655 176.18 145.145L177.647 146.503ZM185.061 143.422C188 143.422 190.018 144.121 191.303 145.341C192.578 146.553 193.301 148.442 193.301 151.2H195.301C195.301 148.106 194.485 145.606 192.68 143.891C190.885 142.186 188.283 141.422 185.061 141.422V143.422ZM193.301 151.2C193.301 153.154 193.191 154.807 192.978 156.169L194.953 156.479C195.188 154.985 195.301 153.222 195.301 151.2H193.301ZM192.978 156.166C192.866 156.864 192.777 157.398 192.709 157.773C192.674 157.961 192.647 158.102 192.626 158.2C192.598 158.33 192.594 158.32 192.617 158.263L194.474 159.005C194.525 158.878 194.56 158.719 194.581 158.621C194.609 158.492 194.641 158.327 194.676 158.13C194.748 157.735 194.841 157.184 194.953 156.482L192.978 156.166ZM194.491 158.961C195.757 155.3 197.396 151.732 199.409 148.257L197.678 147.255C195.603 150.836 193.91 154.52 192.6 158.307L194.491 158.961ZM199.406 148.262C201.439 144.8 203.666 141.923 206.08 139.617L204.699 138.171C202.129 140.625 199.792 143.656 197.681 147.25L199.406 148.262ZM206.084 139.613C208.508 137.271 210.55 136.282 212.235 136.282V134.282C209.777 134.282 207.255 135.701 204.695 138.175L206.084 139.613ZM212.235 136.282C213.698 136.282 214.455 136.615 214.818 137.009L216.289 135.655C215.364 134.649 213.909 134.282 212.235 134.282V136.282ZM214.832 137.024C215.231 137.441 215.519 138.156 215.519 139.356H217.519C217.519 137.868 217.164 136.567 216.275 135.64L214.832 137.024ZM216.519 138.356H215.553V140.356H216.519V138.356ZM216.547 139.243C216.401 137.954 216.025 136.768 215.139 136.115L213.952 137.725C214.13 137.856 214.426 138.294 214.56 139.469L216.547 139.243ZM215.186 136.152C214.424 135.517 213.378 135.29 212.235 135.29V137.29C213.165 137.29 213.659 137.483 213.905 137.688L215.186 136.152ZM212.235 135.29C210.131 135.29 207.915 136.582 205.625 138.757L207.002 140.207C209.192 138.126 210.924 137.29 212.235 137.29V135.29ZM205.62 138.761C203.342 140.953 201.276 143.538 199.417 146.512L201.113 147.572C202.895 144.722 204.861 142.267 207.007 140.203L205.62 138.761ZM199.417 146.512C197.568 149.471 195.988 152.545 194.678 155.734L196.529 156.494C197.795 153.411 199.323 150.437 201.113 147.572L199.417 146.512ZM194.677 155.738C193.399 158.891 192.713 161.552 192.713 163.674H194.713C194.713 161.932 195.288 159.553 196.53 156.49L194.677 155.738ZM192.713 163.674C192.713 166.604 193.184 168.928 194.372 170.36L195.911 169.084C195.195 168.22 194.713 166.512 194.713 163.674H192.713ZM194.381 170.371C195.567 171.76 197.156 172.444 199.047 172.444V170.444C197.691 170.444 196.676 169.98 195.902 169.073L194.381 170.371ZM199.047 172.444C200.859 172.444 202.56 172.028 204.135 171.194L203.2 169.426C201.919 170.104 200.54 170.444 199.047 170.444V172.444ZM202.667 170.31V171.276H204.667V170.31H202.667ZM203.241 170.372C201.898 171.005 200.435 171.326 198.837 171.326V173.326C200.712 173.326 202.469 172.947 204.094 172.18L203.241 170.372ZM198.837 171.326C195.785 171.326 193.679 170.567 192.33 169.223C190.981 167.881 190.219 165.787 190.219 162.75H188.219C188.219 166.097 189.061 168.791 190.918 170.641C192.775 172.489 195.478 173.326 198.837 173.326V171.326ZM190.219 162.75C190.219 161.462 190.327 160.173 190.542 158.882L188.569 158.554C188.336 159.951 188.219 161.35 188.219 162.75H190.219ZM188.633 158.332C186.056 164.484 183.192 169.4 180.056 173.108L181.583 174.4C184.887 170.492 187.847 165.384 190.478 159.104L188.633 158.332ZM180.056 173.108C176.894 176.848 174.096 178.466 171.663 178.466V180.466C174.999 180.466 178.305 178.276 181.583 174.4L180.056 173.108ZM171.663 178.466C170.201 178.466 169.444 178.133 169.081 177.739L167.61 179.093C168.535 180.099 169.99 180.466 171.663 180.466V178.466ZM169.067 177.724C168.668 177.307 168.379 176.592 168.379 175.392H166.379C166.379 176.88 166.735 178.181 167.624 179.108L169.067 177.724ZM167.379 176.392H168.345V174.392H167.379V176.392ZM167.352 175.505C167.497 176.782 167.853 177.96 168.698 178.617L169.925 177.039C169.762 176.912 169.474 176.466 169.339 175.279L167.352 175.505ZM168.692 178.613C169.472 179.229 170.515 179.458 171.663 179.458V177.458C170.74 177.458 170.215 177.267 169.931 177.043L168.692 178.613ZM171.663 179.458C174.466 179.458 177.367 177.531 180.346 174.212L178.857 172.876C175.956 176.109 173.565 177.458 171.663 177.458V179.458ZM180.343 174.215C183.38 170.863 185.912 167.042 187.939 162.758L186.132 161.902C184.183 166.018 181.759 169.673 178.86 172.873L180.343 174.215ZM187.939 162.758C189.951 158.508 191.017 154.905 191.017 151.998H189.017C189.017 154.467 188.096 157.752 186.132 161.902L187.939 162.758ZM220.765 162.792L219.815 162.48L219.811 162.492L220.765 162.792ZM222.487 156.282L221.511 156.064L221.509 156.075L222.487 156.282ZM221.899 145.026L222.678 144.399L222.678 144.399L221.899 145.026ZM211.441 145.992L210.777 145.245L210.777 145.245L211.441 145.992ZM209.005 149.604L208.079 149.227L208.075 149.236L209.005 149.604ZM208.795 158.34L207.87 158.72L207.874 158.73L207.878 158.74L208.795 158.34ZM210.475 160.818L211.135 160.066L211.131 160.063L210.475 160.818ZM214.045 162.96L213.828 163.936L213.85 163.941L213.871 163.945L214.045 162.96ZM214.759 163.086L215.697 163.432L216.111 162.309L214.933 162.101L214.759 163.086ZM214.465 163.884L214.183 164.843L215.08 165.107L215.403 164.23L214.465 163.884ZM213.247 163.548L212.905 164.488L212.954 164.506L213.005 164.518L213.247 163.548ZM211.567 162.666L211.061 163.529L211.061 163.529L211.567 162.666ZM209.467 161.07L208.727 161.743L208.743 161.76L208.76 161.777L209.467 161.07ZM207.913 158.466L206.982 158.83L206.987 158.843L206.993 158.857L207.913 158.466ZM210.349 145.824L209.615 145.145L209.611 145.15L210.349 145.824ZM226.981 157.92L226.032 157.604L227.889 158.339L226.981 157.92ZM248.989 136.332L248.253 137.009L248.26 137.017L248.267 137.024L248.989 136.332ZM249.955 139.356V140.356H250.955V139.356H249.955ZM248.989 139.356L247.995 139.469L248.096 140.356H248.989V139.356ZM247.981 136.92L247.341 137.688L247.364 137.707L247.388 137.725L247.981 136.92ZM240.001 139.062L240.671 139.804L240.672 139.804L240.001 139.062ZM234.289 146.076L235.133 146.612L235.136 146.607L234.289 146.076ZM225.427 164.388L226.372 164.715L226.373 164.712L225.427 164.388ZM221.773 175.056V176.056H222.494L222.722 175.372L221.773 175.056ZM216.145 175.056L215.235 174.642L214.592 176.056H216.145V175.056ZM218.413 169.47L217.479 169.113L217.479 169.113L218.413 169.47ZM221.715 163.104C222.372 161.104 222.955 158.899 223.465 156.489L221.509 156.075C221.011 158.425 220.446 160.56 219.815 162.48L221.715 163.104ZM223.463 156.5C224.008 154.064 224.285 151.806 224.285 149.73H222.285C222.285 151.63 222.031 153.74 221.511 156.064L223.463 156.5ZM224.285 149.73C224.285 147.593 223.788 145.778 222.678 144.399L221.12 145.653C221.858 146.57 222.285 147.891 222.285 149.73H224.285ZM222.678 144.399C221.54 142.985 219.948 142.304 218.035 142.304V144.304C219.426 144.304 220.411 144.771 221.12 145.653L222.678 144.399ZM218.035 142.304C215.377 142.304 212.95 143.313 210.777 145.245L212.105 146.739C213.965 145.087 215.933 144.304 218.035 144.304V142.304ZM210.777 145.245C209.633 146.261 208.741 147.602 208.079 149.227L209.931 149.981C210.501 148.582 211.233 147.515 212.105 146.739L210.777 145.245ZM208.075 149.236C207.44 150.839 207.123 152.518 207.123 154.266H209.123C209.123 152.766 209.394 151.337 209.935 149.972L208.075 149.236ZM207.123 154.266C207.123 155.974 207.358 157.471 207.87 158.72L209.72 157.96C209.336 157.025 209.123 155.806 209.123 154.266H207.123ZM207.878 158.74C208.392 159.917 209.028 160.884 209.819 161.573L211.131 160.063C210.635 159.632 210.15 158.947 209.712 157.94L207.878 158.74ZM209.816 161.57C211.23 162.811 212.574 163.657 213.828 163.936L214.262 161.984C213.5 161.815 212.464 161.233 211.135 160.066L209.816 161.57ZM213.871 163.945L214.585 164.071L214.933 162.101L214.219 161.975L213.871 163.945ZM213.821 162.74L213.527 163.538L215.403 164.23L215.697 163.432L213.821 162.74ZM214.747 162.925C214.263 162.782 213.843 162.666 213.49 162.578L213.005 164.518C213.323 164.598 213.715 164.706 214.183 164.843L214.747 162.925ZM213.589 162.608C213.38 162.532 212.896 162.286 212.073 161.803L211.061 163.529C211.863 163.998 212.499 164.34 212.905 164.488L213.589 162.608ZM212.073 161.803C211.325 161.365 210.695 160.883 210.174 160.363L208.76 161.777C209.416 162.433 210.185 163.015 211.061 163.529L212.073 161.803ZM210.207 160.397C209.749 159.893 209.284 159.135 208.833 158.075L206.993 158.857C207.494 160.037 208.065 161.015 208.727 161.743L210.207 160.397ZM208.845 158.102C208.448 157.085 208.241 155.936 208.241 154.644H206.241C206.241 156.152 206.483 157.551 206.982 158.83L208.845 158.102ZM208.241 154.644C208.241 151.235 209.213 148.55 211.087 146.498L209.611 145.15C207.341 147.634 206.241 150.829 206.241 154.644H208.241ZM211.083 146.503C212.978 144.457 215.419 143.422 218.497 143.422V141.422C214.911 141.422 211.921 142.655 209.615 145.145L211.083 146.503ZM218.497 143.422C221.435 143.422 223.453 144.121 224.738 145.341C226.014 146.553 226.737 148.442 226.737 151.2H228.737C228.737 148.106 227.92 145.606 226.116 143.891C224.321 142.186 221.719 141.422 218.497 141.422V143.422ZM226.737 151.2C226.737 154.136 226.485 156.247 226.032 157.604L227.93 158.236C228.485 156.569 228.737 154.2 228.737 151.2H226.737ZM227.889 158.339C231.36 150.825 234.618 145.255 237.654 141.578C240.719 137.865 243.392 136.282 245.671 136.282V134.282C242.462 134.282 239.276 136.472 236.111 140.305C232.917 144.174 229.574 149.923 226.073 157.501L227.889 158.339ZM245.671 136.282C247.134 136.282 247.891 136.615 248.253 137.009L249.725 135.655C248.799 134.649 247.344 134.282 245.671 134.282V136.282ZM248.267 137.024C248.667 137.441 248.955 138.156 248.955 139.356H250.955C250.955 137.868 250.599 136.567 249.711 135.64L248.267 137.024ZM249.955 138.356H248.989V140.356H249.955V138.356ZM249.983 139.243C249.836 137.954 249.461 136.768 248.574 136.115L247.388 137.725C247.565 137.856 247.862 138.294 247.995 139.469L249.983 139.243ZM248.621 136.152C247.859 135.517 246.813 135.29 245.671 135.29V137.29C246.601 137.29 247.095 137.483 247.341 137.688L248.621 136.152ZM245.671 135.29C243.577 135.29 241.456 136.399 239.33 138.32L240.672 139.804C242.635 138.029 244.293 137.29 245.671 137.29V135.29ZM239.331 138.32C237.232 140.214 235.272 142.628 233.442 145.545L235.136 146.607C236.89 143.812 238.738 141.55 240.671 139.804L239.331 138.32ZM233.445 145.54C229.653 151.511 226.664 157.686 224.481 164.064L226.373 164.712C228.502 158.49 231.421 152.457 235.133 146.612L233.445 145.54ZM224.482 164.061C222.746 169.073 221.526 172.634 220.824 174.74L222.722 175.372C223.42 173.278 224.636 169.727 226.372 164.715L224.482 164.061ZM221.773 174.056H216.145V176.056H221.773V174.056ZM217.055 175.47C217.629 174.209 218.394 172.323 219.347 169.827L217.479 169.113C216.529 171.601 215.782 173.439 215.235 174.642L217.055 175.47ZM219.347 169.827C220.304 167.321 221.096 165.076 221.719 163.092L219.811 162.492C219.203 164.428 218.426 166.635 217.479 169.113L219.347 169.827Z" fill="#F2E9E4"/>
</g>
<g filter="url(#filter3_di_23_2)">
<path d="M100.318 275.36C97.9715 275.36 96.6915 274.36 96.4781 272.36C95.3048 274.36 93.8115 275.36 91.9981 275.36C90.1848 275.36 88.7981 274.853 87.8381 273.84C86.8781 272.8 86.3981 271.387 86.3981 269.6C86.3981 266.453 87.1448 263.973 88.6381 262.16C90.1315 260.347 92.0648 259.44 94.4381 259.44C95.7981 259.44 96.8515 259.853 97.5981 260.68C97.9181 261.107 98.1181 261.427 98.1981 261.64L100.358 249.88C99.5581 249.96 98.8915 250.333 98.3581 251L97.7581 250.52C98.5581 249.56 99.5581 249.08 100.758 249.08C101.985 249.08 102.931 249.387 103.598 250C104.265 250.613 104.598 251.48 104.598 252.6C104.598 252.813 104.571 253.16 104.518 253.64C103.211 260.973 101.945 267.947 100.718 274.56C101.518 274.48 102.185 274.107 102.718 273.44L103.318 273.92C102.518 274.88 101.518 275.36 100.318 275.36ZM90.9181 271.24C90.9181 272.467 91.0381 273.307 91.2781 273.76C91.5448 274.213 91.9448 274.44 92.4781 274.44C93.0381 274.44 93.5715 274.253 94.0781 273.88C94.5848 273.507 95.0115 273.027 95.3581 272.44C95.9981 271.453 96.4515 270.613 96.7181 269.92L97.8781 263.6C97.8248 262.747 97.5448 261.973 97.0381 261.28C96.5315 260.56 95.6648 260.2 94.4381 260.2C93.5848 260.2 92.7848 261.453 92.0381 263.96C91.2915 266.467 90.9181 268.893 90.9181 271.24ZM120.06 275.36C117.713 275.36 116.433 274.333 116.22 272.28C115.046 274.333 113.566 275.36 111.78 275.36C109.993 275.36 108.566 274.827 107.5 273.76C106.46 272.667 105.94 271.147 105.94 269.2C105.94 266.16 106.686 263.773 108.18 262.04C109.673 260.307 111.606 259.44 113.98 259.44C115.926 259.44 117.22 260.36 117.86 262.2C117.993 261.4 118.14 260.6 118.3 259.8C120.273 259.8 121.74 259.72 122.7 259.56L123.22 259.44L120.46 274.56C121.26 274.48 121.926 274.107 122.46 273.44L123.06 273.92C122.26 274.88 121.26 275.36 120.06 275.36ZM110.46 271.24C110.46 272.44 110.606 273.28 110.9 273.76C111.22 274.213 111.7 274.44 112.34 274.44C112.98 274.44 113.633 274.093 114.3 273.4C115.18 272.493 115.886 271.347 116.42 269.96C116.5 269.613 116.646 268.787 116.86 267.48C117.1 266.147 117.3 265.053 117.46 264.2C117.38 263.187 117.1 262.307 116.62 261.56C116.14 260.813 115.54 260.44 114.82 260.44C113.513 260.44 112.46 261.613 111.66 263.96C110.86 266.28 110.46 268.707 110.46 271.24ZM125.955 260.88C126.755 259.92 127.755 259.44 128.955 259.44C130.181 259.44 131.128 259.747 131.795 260.36C132.461 260.973 132.795 261.84 132.795 262.96V263.2C133.995 260.693 135.555 259.44 137.475 259.44C139.528 259.44 140.555 260.507 140.555 262.64C140.555 263.52 140.261 264.453 139.675 265.44C139.088 266.427 138.501 267.373 137.915 268.28C137.328 269.16 137.035 269.947 137.035 270.64H136.075C136.075 269.653 136.648 268.32 137.795 266.64C138.941 264.96 139.515 263.667 139.515 262.76C139.515 261.827 139.328 261.2 138.955 260.88C138.608 260.533 138.075 260.36 137.355 260.36C136.661 260.36 135.968 260.667 135.275 261.28C134.608 261.893 134.048 262.667 133.595 263.6C132.875 264.987 132.395 266.12 132.155 267V267.04L130.715 275H125.915L128.555 260.24C127.755 260.32 127.088 260.693 126.555 261.36L125.955 260.88ZM147.539 267.28L146.099 275H141.339L145.859 249.88C145.059 249.96 144.392 250.333 143.859 251L143.259 250.52C144.059 249.56 145.059 249.08 146.259 249.08C147.485 249.08 148.432 249.387 149.099 250C149.765 250.613 150.099 251.48 150.099 252.6C150.099 252.813 150.072 253.16 150.019 253.64C149.405 257.027 148.739 260.68 148.019 264.6C148.685 262.973 149.645 261.707 150.899 260.8C152.152 259.893 153.485 259.44 154.899 259.44C156.312 259.44 157.299 259.72 157.859 260.28C158.445 260.84 158.739 261.547 158.739 262.4C158.739 263.227 158.485 263.907 157.979 264.44C157.472 264.973 156.805 265.24 155.979 265.24C155.179 265.24 154.552 265.013 154.099 264.56C153.672 264.08 153.459 263.387 153.459 262.48C153.459 261.547 153.779 260.84 154.419 260.36C151.859 260.653 149.819 262.547 148.299 266.04C148.672 265.987 148.992 265.96 149.259 265.96C150.672 265.96 151.779 266.24 152.579 266.8C153.405 267.36 153.939 268.053 154.179 268.88C154.419 269.68 154.592 270.493 154.699 271.32C154.805 272.12 154.979 272.8 155.219 273.36C155.459 273.92 155.885 274.2 156.499 274.2C157.112 274.2 157.592 273.947 157.939 273.44L158.539 273.92C158.352 274.293 157.939 274.627 157.299 274.92C156.659 275.213 155.832 275.36 154.819 275.36C153.832 275.36 152.952 275.107 152.179 274.6C151.432 274.093 150.912 273.467 150.619 272.72C150.325 271.947 150.085 271.187 149.899 270.44C149.392 268.52 148.605 267.467 147.539 267.28ZM174.848 275.36C172.501 275.36 171.221 274.36 171.008 272.36C169.834 274.36 168.341 275.36 166.528 275.36C164.714 275.36 163.328 274.853 162.368 273.84C161.408 272.8 160.928 271.387 160.928 269.6C160.928 266.453 161.674 263.973 163.168 262.16C164.661 260.347 166.594 259.44 168.968 259.44C170.328 259.44 171.381 259.853 172.128 260.68C172.448 261.107 172.648 261.427 172.728 261.64L174.888 249.88C174.088 249.96 173.421 250.333 172.888 251L172.288 250.52C173.088 249.56 174.088 249.08 175.288 249.08C176.514 249.08 177.461 249.387 178.128 250C178.794 250.613 179.128 251.48 179.128 252.6C179.128 252.813 179.101 253.16 179.048 253.64C177.741 260.973 176.474 267.947 175.248 274.56C176.048 274.48 176.714 274.107 177.248 273.44L177.848 273.92C177.048 274.88 176.048 275.36 174.848 275.36ZM165.448 271.24C165.448 272.467 165.568 273.307 165.808 273.76C166.074 274.213 166.474 274.44 167.008 274.44C167.568 274.44 168.101 274.253 168.608 273.88C169.114 273.507 169.541 273.027 169.888 272.44C170.528 271.453 170.981 270.613 171.248 269.92L172.408 263.6C172.354 262.747 172.074 261.973 171.568 261.28C171.061 260.56 170.194 260.2 168.968 260.2C168.114 260.2 167.314 261.453 166.568 263.96C165.821 266.467 165.448 268.893 165.448 271.24ZM189.266 259.44C192.652 259.44 194.346 260.787 194.346 263.48C194.346 265.16 193.546 266.44 191.946 267.32C190.372 268.173 188.119 268.613 185.186 268.64C185.132 269.6 185.106 270.36 185.106 270.92C185.106 272.12 185.372 273.013 185.906 273.6C186.466 274.16 187.159 274.44 187.986 274.44C188.812 274.44 189.559 274.28 190.226 273.96C190.919 273.64 191.466 273.267 191.866 272.84C192.266 272.387 192.612 271.92 192.906 271.44C193.439 270.56 193.706 270 193.706 269.76L194.426 270.08C194.346 270.507 194.106 271.08 193.706 271.8C193.306 272.493 192.866 273.067 192.386 273.52C191.906 273.973 191.199 274.4 190.266 274.8C189.332 275.173 188.292 275.36 187.146 275.36C184.986 275.36 183.346 274.853 182.226 273.84C181.132 272.8 180.586 271.387 180.586 269.6C180.586 266.427 181.372 263.947 182.946 262.16C184.519 260.347 186.626 259.44 189.266 259.44ZM193.346 263.48C193.346 262.6 193.079 261.88 192.546 261.32C192.039 260.733 191.266 260.44 190.226 260.44C189.212 260.44 188.212 261.053 187.226 262.28C186.266 263.507 185.626 265.32 185.306 267.72C190.666 267.693 193.346 266.28 193.346 263.48ZM207.404 264.4C206.844 263.84 206.564 263.16 206.564 262.36C206.564 261.56 206.844 260.88 207.404 260.32C207.964 259.733 208.591 259.44 209.284 259.44C210.004 259.44 210.604 259.627 211.084 260C211.591 260.347 211.951 260.8 212.164 261.36C212.191 261.387 212.204 261.413 212.204 261.44V261.48C212.524 262.173 212.684 263.187 212.684 264.52C212.684 265.827 212.524 267.027 212.204 268.12C211.911 269.213 211.444 270.333 210.804 271.48C210.191 272.6 209.284 273.533 208.084 274.28C206.884 275 205.471 275.36 203.844 275.36C202.217 275.36 200.857 274.827 199.764 273.76C198.697 272.693 198.164 271.467 198.164 270.08C198.164 268.693 198.404 266.987 198.884 264.96C199.391 262.907 199.671 261.333 199.724 260.24C199.297 260.267 198.884 260.427 198.484 260.72C198.084 260.987 197.791 261.253 197.604 261.52L197.324 261.92L196.724 261.44C196.804 261.28 196.924 261.093 197.084 260.88C197.244 260.667 197.644 260.373 198.284 260C198.951 259.627 199.777 259.44 200.764 259.44C201.751 259.44 202.537 259.76 203.124 260.4C203.737 261.04 204.044 261.853 204.044 262.84C204.044 263.827 203.777 265.36 203.244 267.44C202.711 269.493 202.444 270.947 202.444 271.8C202.444 272.627 202.631 273.28 203.004 273.76C203.404 274.24 203.964 274.48 204.684 274.48C206.471 274.48 208.097 273.507 209.564 271.56C211.031 269.613 211.764 267.44 211.764 265.04C211.764 264.853 211.737 264.573 211.684 264.2C211.124 264.893 210.404 265.24 209.524 265.24C208.671 265.24 207.964 264.96 207.404 264.4ZM222.38 273.92C221.58 274.88 220.58 275.36 219.38 275.36C218.18 275.36 217.234 275.053 216.54 274.44C215.874 273.827 215.54 273.027 215.54 272.04C215.54 271.693 215.754 270.24 216.18 267.68L217.5 260.52H215.82L215.9 259.8H217.62C219.594 259.8 221.047 259.72 221.98 259.56L222.54 259.44L219.78 274.56C220.58 274.48 221.247 274.107 221.78 273.44L222.38 273.92ZM218.86 255.6C218.3 255.04 218.02 254.36 218.02 253.56C218.02 252.76 218.3 252.08 218.86 251.52C219.42 250.933 220.1 250.64 220.9 250.64C221.7 250.64 222.38 250.933 222.94 251.52C223.527 252.08 223.82 252.76 223.82 253.56C223.82 254.36 223.527 255.04 222.94 255.6C222.38 256.16 221.7 256.44 220.9 256.44C220.1 256.44 219.42 256.16 218.86 255.6ZM232.388 273.56C232.041 274.013 231.561 274.427 230.948 274.8C230.361 275.173 229.588 275.36 228.628 275.36C227.668 275.36 226.854 275.053 226.188 274.44C225.521 273.827 225.188 272.96 225.188 271.84C225.188 271.627 225.214 271.28 225.268 270.8L227.868 256.4C228.348 253.76 229.001 251.88 229.828 250.76C230.681 249.64 231.801 249.08 233.188 249.08C234.148 249.08 234.934 249.44 235.548 250.16C236.188 250.88 236.508 251.973 236.508 253.44C236.508 254.907 235.934 257 234.788 259.72C233.668 262.44 233.108 264.427 233.108 265.68H232.388C232.388 264.267 232.948 262.253 234.068 259.64C235.188 257 235.748 254.893 235.748 253.32C235.748 252.36 235.521 251.533 235.068 250.84C234.641 250.147 234.108 249.8 233.468 249.8C233.441 250.493 232.974 253.613 232.068 259.16C231.188 264.68 230.308 269.813 229.428 274.56C230.174 274.56 230.868 274.173 231.508 273.4C232.148 272.627 232.601 271.853 232.868 271.08L233.308 269.88L234.028 270.2C233.948 270.573 233.734 271.12 233.388 271.84C233.068 272.533 232.734 273.107 232.388 273.56ZM249.401 272.48C249.721 273.307 250.227 273.72 250.921 273.72C251.641 273.72 252.241 273.267 252.721 272.36L253.361 272.72C253.094 273.173 252.854 273.533 252.641 273.8C252.454 274.04 252.067 274.307 251.481 274.6C250.921 274.867 250.227 275 249.401 275C247.054 275 245.481 274.013 244.681 272.04L243.161 268.36C241.587 268.52 240.321 268.92 239.361 269.56H239.401C240.201 269.56 240.881 269.84 241.441 270.4C242.001 270.96 242.281 271.64 242.281 272.44C242.281 273.24 242.001 273.933 241.441 274.52C240.881 275.08 240.201 275.36 239.401 275.36C238.601 275.36 237.907 275.08 237.321 274.52C236.761 273.933 236.481 273.24 236.481 272.44C236.481 271.133 237.081 270.027 238.281 269.12C239.507 268.187 241.014 267.627 242.801 267.44L240.601 261.96C240.281 261.133 239.774 260.72 239.081 260.72C238.414 260.72 237.814 261.173 237.281 262.08L236.681 261.72C236.947 261.267 237.174 260.92 237.361 260.68C237.574 260.413 237.961 260.147 238.521 259.88C239.107 259.587 239.814 259.44 240.641 259.44C242.961 259.44 244.521 260.427 245.321 262.4L246.961 266.48C248.614 266.32 249.907 265.907 250.841 265.24H250.801C250.001 265.24 249.321 264.96 248.761 264.4C248.201 263.84 247.921 263.16 247.921 262.36C247.921 261.56 248.201 260.88 248.761 260.32C249.321 259.733 250.001 259.44 250.801 259.44C251.601 259.44 252.281 259.733 252.841 260.32C253.427 260.88 253.721 261.56 253.721 262.36C253.721 263.72 253.094 264.867 251.841 265.8C250.587 266.707 249.081 267.24 247.321 267.4L249.401 272.48ZM258.426 260.24C257.786 260.24 257.119 260.613 256.426 261.36L255.826 260.88C256.013 260.507 256.426 260.173 257.066 259.88C257.706 259.587 258.413 259.44 259.186 259.44C261.613 259.44 262.826 260.533 262.826 262.72C262.826 263.653 262.573 265.187 262.066 267.32C261.559 269.427 261.306 270.853 261.306 271.6C261.306 272.88 261.839 273.52 262.906 273.52C263.786 273.52 264.639 272.92 265.466 271.72C266.319 270.52 267.013 268.907 267.546 266.88L268.866 259.8C270.839 259.8 272.279 259.72 273.186 259.56L273.706 259.44L271.186 273.6C270.706 276.347 269.586 278.493 267.826 280.04C266.093 281.587 263.839 282.36 261.066 282.36C259.386 282.36 258.079 282.067 257.146 281.48C256.239 280.92 255.786 280.173 255.786 279.24C255.786 278.333 256.066 277.6 256.626 277.04C257.186 276.507 257.973 276.24 258.986 276.24C260.026 276.24 260.986 276.4 261.866 276.72C262.746 277.067 263.386 277.267 263.786 277.32L263.706 278.04C263.253 277.987 262.599 277.8 261.746 277.48C260.893 277.16 260.039 277 259.186 277C258.359 277 257.719 277.187 257.266 277.56C256.839 277.933 256.626 278.467 256.626 279.16C256.626 279.88 257.013 280.453 257.786 280.88C258.559 281.333 259.519 281.56 260.666 281.56C263.439 281.56 265.146 279.893 265.786 276.56L266.786 271.04C265.666 273.493 263.973 274.72 261.706 274.72C260.159 274.72 258.959 274.28 258.106 273.4C257.279 272.52 256.866 271.28 256.866 269.68C256.866 268.853 257.106 267.373 257.586 265.24C258.093 263.08 258.373 261.413 258.426 260.24Z" fill="white"/>
</g>
</g>
<rect x="3" y="3" width="339" height="328" rx="164" stroke="#C9ADA7" stroke-width="6"/>
<defs>
<filter id="filter0_i_23_2" x="128" y="54" width="100" height="128" filterUnits="userSpaceOnUse" color-interpolation-filters="sRGB">
<feFlood flood-opacity="0" result="BackgroundImageFix"/>
<feBlend mode="normal" in="SourceGraphic" in2="BackgroundImageFix" result="shape"/>
<feColorMatrix in="SourceAlpha" type="matrix" values="0 0 0 0 0 0 0 0 0 0 0 0 0 0 0 0 0 0 127 0" result="hardAlpha"/>
<feOffset dy="4"/>
<feGaussianBlur stdDeviation="2"/>
<feComposite in2="hardAlpha" operator="arithmetic" k2="-1" k3="1"/>
<feColorMatrix type="matrix" values="0 0 0 0 0 0 0 0 0 0 0 0 0 0 0 0 0 0 0.29 0"/>
<feBlend mode="normal" in2="shape" result="effect1_innerShadow_23_2"/>
</filter>
<filter id="filter1_i_23_2" x="160" y="94" width="100" height="128" filterUnits="userSpaceOnUse" color-interpolation-filters="sRGB">
<feFlood flood-opacity="0" result="BackgroundImageFix"/>
<feBlend mode="normal" in="SourceGraphic" in2="BackgroundImageFix" result="shape"/>
<feColorMatrix in="SourceAlpha" type="matrix" values="0 0 0 0 0 0 0 0 0 0 0 0 0 0 0 0 0 0 127 0" result="hardAlpha"/>
<feOffset dy="4"/>
<feGaussianBlur stdDeviation="2"/>
<feComposite in2="hardAlpha" operator="arithmetic" k2="-1" k3="1"/>
<feColorMatrix type="matrix" values="0 0 0 0 0 0 0 0 0 0 0 0 0 0 0 0 0 0 0.29 0"/>
<feBlend mode="normal" in2="shape" result="effect1_innerShadow_23_2"/>
</filter>
<filter id="filter2_di_23_2" x="163.379" y="135.282" width="90.5756" height="52.184" filterUnits="userSpaceOnUse" color-interpolation-filters="sRGB">
<feFlood flood-opacity="0" result="BackgroundImageFix"/>
<feColorMatrix in="SourceAlpha" type="matrix" values="0 0 0 0 0 0 0 0 0 0 0 0 0 0 0 0 0 0 127 0" result="hardAlpha"/>
<feOffset dy="4"/>
<feGaussianBlur stdDeviation="2"/>
<feComposite in2="hardAlpha" operator="out"/>
<feColorMatrix type="matrix" values="0 0 0 0 0 0 0 0 0 0 0 0 0 0 0 0 0 0 0.25 0"/>
<feBlend mode="normal" in2="BackgroundImageFix" result="effect1_dropShadow_23_2"/>
<feBlend mode="normal" in="SourceGraphic" in2="effect1_dropShadow_23_2" result="shape"/>
<feColorMatrix in="SourceAlpha" type="matrix" values="0 0 0 0 0 0 0 0 0 0 0 0 0 0 0 0 0 0 127 0" result="hardAlpha"/>
<feOffset dy="4"/>
<feGaussianBlur stdDeviation="5"/>
<feComposite in2="hardAlpha" operator="arithmetic" k2="-1" k3="1"/>
<feColorMatrix type="matrix" values="0 0 0 0 0 0 0 0 0 0 0 0 0 0 0 0 0 0 0.52 0"/>
<feBlend mode="normal" in2="shape" result="effect2_innerShadow_23_2"/>
</filter>
<filter id="filter3_di_23_2" x="82.3981" y="249.08" width="195.308" height="41.28" filterUnits="userSpaceOnUse" color-interpolation-filters="sRGB">
<feFlood flood-opacity="0" result="BackgroundImageFix"/>
<feColorMatrix in="SourceAlpha" type="matrix" values="0 0 0 0 0 0 0 0 0 0 0 0 0 0 0 0 0 0 127 0" result="hardAlpha"/>
<feOffset dy="4"/>
<feGaussianBlur stdDeviation="2"/>
<feComposite in2="hardAlpha" operator="out"/>
<feColorMatrix type="matrix" values="0 0 0 0 0.94902 0 0 0 0 0.913725 0 0 0 0 0.894118 0 0 0 0.27 0"/>
<feBlend mode="normal" in2="BackgroundImageFix" result="effect1_dropShadow_23_2"/>
<feBlend mode="normal" in="SourceGraphic" in2="effect1_dropShadow_23_2" result="shape"/>
<feColorMatrix in="SourceAlpha" type="matrix" values="0 0 0 0 0 0 0 0 0 0 0 0 0 0 0 0 0 0 127 0" result="hardAlpha"/>
<feOffset dy="4"/>
<feGaussianBlur stdDeviation="1"/>
<feComposite in2="hardAlpha" operator="arithmetic" k2="-1" k3="1"/>
<feColorMatrix type="matrix" values="0 0 0 0 0.133333 0 0 0 0 0.133333 0 0 0 0 0.231373 0 0 0 0.24 0"/>
<feBlend mode="normal" in2="shape" result="effect2_innerShadow_23_2"/>
</filter>
<clipPath id="clip0_23_2">
<rect width="345" height="334" rx="167" fill="white"/>
</clipPath>
</defs>
</svg>
