<svg width="298" height="297" viewBox="0 0 298 297" fill="none" xmlns="http://www.w3.org/2000/svg">
<rect x="3" y="3" width="292" height="291" rx="145.5" fill="#22223B"/>
<g clip-path="url(#clip0_23_2)">
<path d="M33.4721 156.976C33.4721 155.24 31.4001 153.546 27.2561 151.894L27.4661 150.802C28.1941 150.578 29.3561 150.116 30.9521 149.416C34.0321 148.072 35.7121 146.7 35.9921 145.3H36.8741C36.7061 146.224 36.0761 147.12 34.9841 147.988C33.2481 149.388 30.9941 150.522 28.2221 151.39C31.3021 152.594 33.2341 153.938 34.0181 155.422C34.2701 155.87 34.3961 156.262 34.3961 156.598C34.3961 156.906 34.3681 157.172 34.3121 157.396H33.4301C33.4581 157.256 33.4721 157.116 33.4721 156.976ZM53.5576 160.378C51.0936 160.378 49.7496 159.328 49.5256 157.228C48.2936 159.328 46.7256 160.378 44.8216 160.378C42.9176 160.378 41.4616 159.846 40.4536 158.782C39.4456 157.69 38.9416 156.206 38.9416 154.33C38.9416 151.026 39.7256 148.422 41.2936 146.518C42.8616 144.614 44.8916 143.662 47.3836 143.662C48.8116 143.662 49.9176 144.096 50.7016 144.964C51.0376 145.412 51.2476 145.748 51.3316 145.972L53.5996 133.624C52.7596 133.708 52.0596 134.1 51.4996 134.8L50.8696 134.296C51.7096 133.288 52.7596 132.784 54.0196 132.784C55.3076 132.784 56.3016 133.106 57.0016 133.75C57.7016 134.394 58.0516 135.304 58.0516 136.48C58.0516 136.704 58.0236 137.068 57.9676 137.572C56.5956 145.272 55.2656 152.594 53.9776 159.538C54.8176 159.454 55.5176 159.062 56.0776 158.362L56.7076 158.866C55.8676 159.874 54.8176 160.378 53.5576 160.378ZM43.6876 156.052C43.6876 157.34 43.8136 158.222 44.0656 158.698C44.3456 159.174 44.7656 159.412 45.3256 159.412C45.9136 159.412 46.4736 159.216 47.0056 158.824C47.5376 158.432 47.9856 157.928 48.3496 157.312C49.0216 156.276 49.4976 155.394 49.7776 154.666L50.9956 148.03C50.9396 147.134 50.6456 146.322 50.1136 145.594C49.5816 144.838 48.6716 144.46 47.3836 144.46C46.4876 144.46 45.6476 145.776 44.8636 148.408C44.0796 151.04 43.6876 153.588 43.6876 156.052ZM74.0763 160.378C71.6123 160.378 70.2683 159.3 70.0443 157.144C68.8123 159.3 67.2583 160.378 65.3823 160.378C63.5063 160.378 62.0083 159.818 60.8883 158.698C59.7963 157.55 59.2503 155.954 59.2503 153.91C59.2503 150.718 60.0343 148.212 61.6023 146.392C63.1703 144.572 65.2003 143.662 67.6923 143.662C69.7363 143.662 71.0943 144.628 71.7663 146.56C71.9063 145.72 72.0603 144.88 72.2283 144.04C74.3003 144.04 75.8403 143.956 76.8483 143.788L77.3943 143.662L74.4963 159.538C75.3363 159.454 76.0363 159.062 76.5963 158.362L77.2263 158.866C76.3863 159.874 75.3363 160.378 74.0763 160.378ZM63.9963 156.052C63.9963 157.312 64.1503 158.194 64.4583 158.698C64.7943 159.174 65.2983 159.412 65.9703 159.412C66.6423 159.412 67.3283 159.048 68.0283 158.32C68.9523 157.368 69.6943 156.164 70.2543 154.708C70.3383 154.344 70.4923 153.476 70.7163 152.104C70.9683 150.704 71.1783 149.556 71.3463 148.66C71.2623 147.596 70.9683 146.672 70.4643 145.888C69.9603 145.104 69.3303 144.712 68.5743 144.712C67.2023 144.712 66.0963 145.944 65.2563 148.408C64.4163 150.844 63.9963 153.392 63.9963 156.052ZM80.056 145.174C80.896 144.166 81.946 143.662 83.206 143.662C84.494 143.662 85.488 143.984 86.188 144.628C86.888 145.272 87.238 146.182 87.238 147.358V147.61C88.498 144.978 90.136 143.662 92.152 143.662C94.308 143.662 95.386 144.782 95.386 147.022C95.386 147.946 95.078 148.926 94.462 149.962C93.846 150.998 93.23 151.992 92.614 152.944C91.998 153.868 91.69 154.694 91.69 155.422H90.682C90.682 154.386 91.284 152.986 92.488 151.222C93.692 149.458 94.294 148.1 94.294 147.148C94.294 146.168 94.098 145.51 93.706 145.174C93.342 144.81 92.782 144.628 92.026 144.628C91.298 144.628 90.57 144.95 89.842 145.594C89.142 146.238 88.554 147.05 88.078 148.03C87.322 149.486 86.818 150.676 86.566 151.6V151.642L85.054 160H80.014L82.786 144.502C81.946 144.586 81.246 144.978 80.686 145.678L80.056 145.174ZM102.509 151.894L100.997 160H95.9993L100.745 133.624C99.9053 133.708 99.2053 134.1 98.6453 134.8L98.0153 134.296C98.8553 133.288 99.9053 132.784 101.165 132.784C102.453 132.784 103.447 133.106 104.147 133.75C104.847 134.394 105.197 135.304 105.197 136.48C105.197 136.704 105.169 137.068 105.113 137.572C104.469 141.128 103.769 144.964 103.013 149.08C103.713 147.372 104.721 146.042 106.037 145.09C107.353 144.138 108.753 143.662 110.237 143.662C111.721 143.662 112.757 143.956 113.345 144.544C113.961 145.132 114.269 145.874 114.269 146.77C114.269 147.638 114.003 148.352 113.471 148.912C112.939 149.472 112.239 149.752 111.371 149.752C110.531 149.752 109.873 149.514 109.397 149.038C108.949 148.534 108.725 147.806 108.725 146.854C108.725 145.874 109.061 145.132 109.733 144.628C107.045 144.936 104.903 146.924 103.307 150.592C103.699 150.536 104.035 150.508 104.315 150.508C105.799 150.508 106.961 150.802 107.801 151.39C108.669 151.978 109.229 152.706 109.481 153.574C109.733 154.414 109.915 155.268 110.027 156.136C110.139 156.976 110.321 157.69 110.573 158.278C110.825 158.866 111.273 159.16 111.917 159.16C112.561 159.16 113.065 158.894 113.429 158.362L114.059 158.866C113.863 159.258 113.429 159.608 112.757 159.916C112.085 160.224 111.217 160.378 110.153 160.378C109.117 160.378 108.193 160.112 107.381 159.58C106.597 159.048 106.051 158.39 105.743 157.606C105.435 156.794 105.183 155.996 104.987 155.212C104.455 153.196 103.629 152.09 102.509 151.894ZM130.974 160.378C128.51 160.378 127.166 159.328 126.942 157.228C125.71 159.328 124.142 160.378 122.238 160.378C120.334 160.378 118.878 159.846 117.87 158.782C116.862 157.69 116.358 156.206 116.358 154.33C116.358 151.026 117.142 148.422 118.71 146.518C120.278 144.614 122.308 143.662 124.8 143.662C126.228 143.662 127.334 144.096 128.118 144.964C128.454 145.412 128.664 145.748 128.748 145.972L131.016 133.624C130.176 133.708 129.476 134.1 128.916 134.8L128.286 134.296C129.126 133.288 130.176 132.784 131.436 132.784C132.724 132.784 133.718 133.106 134.418 133.75C135.118 134.394 135.468 135.304 135.468 136.48C135.468 136.704 135.44 137.068 135.384 137.572C134.012 145.272 132.682 152.594 131.394 159.538C132.234 159.454 132.934 159.062 133.494 158.362L134.124 158.866C133.284 159.874 132.234 160.378 130.974 160.378ZM121.104 156.052C121.104 157.34 121.23 158.222 121.482 158.698C121.762 159.174 122.182 159.412 122.742 159.412C123.33 159.412 123.89 159.216 124.422 158.824C124.954 158.432 125.402 157.928 125.766 157.312C126.438 156.276 126.914 155.394 127.194 154.666L128.412 148.03C128.356 147.134 128.062 146.322 127.53 145.594C126.998 144.838 126.088 144.46 124.8 144.46C123.904 144.46 123.064 145.776 122.28 148.408C121.496 151.04 121.104 153.588 121.104 156.052ZM145.903 143.662C149.459 143.662 151.237 145.076 151.237 147.904C151.237 149.668 150.397 151.012 148.717 151.936C147.065 152.832 144.699 153.294 141.619 153.322C141.563 154.33 141.535 155.128 141.535 155.716C141.535 156.976 141.815 157.914 142.375 158.53C142.963 159.118 143.691 159.412 144.559 159.412C145.427 159.412 146.211 159.244 146.911 158.908C147.639 158.572 148.213 158.18 148.633 157.732C149.053 157.256 149.417 156.766 149.725 156.262C150.285 155.338 150.565 154.75 150.565 154.498L151.321 154.834C151.237 155.282 150.985 155.884 150.565 156.64C150.145 157.368 149.683 157.97 149.179 158.446C148.675 158.922 147.933 159.37 146.953 159.79C145.973 160.182 144.881 160.378 143.677 160.378C141.409 160.378 139.687 159.846 138.511 158.782C137.363 157.69 136.789 156.206 136.789 154.33C136.789 150.998 137.615 148.394 139.267 146.518C140.919 144.614 143.131 143.662 145.903 143.662ZM150.187 147.904C150.187 146.98 149.907 146.224 149.347 145.636C148.815 145.02 148.003 144.712 146.911 144.712C145.847 144.712 144.797 145.356 143.761 146.644C142.753 147.932 142.081 149.836 141.745 152.356C147.373 152.328 150.187 150.844 150.187 147.904ZM164.738 148.87C164.15 148.282 163.856 147.568 163.856 146.728C163.856 145.888 164.15 145.174 164.738 144.586C165.326 143.97 165.984 143.662 166.712 143.662C167.468 143.662 168.098 143.858 168.602 144.25C169.134 144.614 169.512 145.09 169.736 145.678C169.764 145.706 169.778 145.734 169.778 145.762V145.804C170.114 146.532 170.282 147.596 170.282 148.996C170.282 150.368 170.114 151.628 169.778 152.776C169.47 153.924 168.98 155.1 168.308 156.304C167.664 157.48 166.712 158.46 165.452 159.244C164.192 160 162.708 160.378 161 160.378C159.292 160.378 157.864 159.818 156.716 158.698C155.596 157.578 155.036 156.29 155.036 154.834C155.036 153.378 155.288 151.586 155.792 149.458C156.324 147.302 156.618 145.65 156.674 144.502C156.226 144.53 155.792 144.698 155.372 145.006C154.952 145.286 154.644 145.566 154.448 145.846L154.154 146.266L153.524 145.762C153.608 145.594 153.734 145.398 153.902 145.174C154.07 144.95 154.49 144.642 155.162 144.25C155.862 143.858 156.73 143.662 157.766 143.662C158.802 143.662 159.628 143.998 160.244 144.67C160.888 145.342 161.21 146.196 161.21 147.232C161.21 148.268 160.93 149.878 160.37 152.062C159.81 154.218 159.53 155.744 159.53 156.64C159.53 157.508 159.726 158.194 160.118 158.698C160.538 159.202 161.126 159.454 161.882 159.454C163.758 159.454 165.466 158.432 167.006 156.388C168.546 154.344 169.316 152.062 169.316 149.542C169.316 149.346 169.288 149.052 169.232 148.66C168.644 149.388 167.888 149.752 166.964 149.752C166.068 149.752 165.326 149.458 164.738 148.87ZM180.253 158.866C179.413 159.874 178.363 160.378 177.103 160.378C175.843 160.378 174.849 160.056 174.121 159.412C173.421 158.768 173.071 157.928 173.071 156.892C173.071 156.528 173.295 155.002 173.743 152.314L175.129 144.796H173.365L173.449 144.04H175.255C177.327 144.04 178.853 143.956 179.833 143.788L180.421 143.662L177.523 159.538C178.363 159.454 179.063 159.062 179.623 158.362L180.253 158.866ZM176.557 139.63C175.969 139.042 175.675 138.328 175.675 137.488C175.675 136.648 175.969 135.934 176.557 135.346C177.145 134.73 177.859 134.422 178.699 134.422C179.539 134.422 180.253 134.73 180.841 135.346C181.457 135.934 181.765 136.648 181.765 137.488C181.765 138.328 181.457 139.042 180.841 139.63C180.253 140.218 179.539 140.512 178.699 140.512C177.859 140.512 177.145 140.218 176.557 139.63ZM190.551 158.488C190.187 158.964 189.683 159.398 189.039 159.79C188.423 160.182 187.611 160.378 186.603 160.378C185.595 160.378 184.741 160.056 184.041 159.412C183.341 158.768 182.991 157.858 182.991 156.682C182.991 156.458 183.019 156.094 183.075 155.59L185.805 140.47C186.309 137.698 186.995 135.724 187.863 134.548C188.759 133.372 189.935 132.784 191.391 132.784C192.399 132.784 193.225 133.162 193.869 133.918C194.541 134.674 194.877 135.822 194.877 137.362C194.877 138.902 194.275 141.1 193.071 143.956C191.895 146.812 191.307 148.898 191.307 150.214H190.551C190.551 148.73 191.139 146.616 192.315 143.872C193.491 141.1 194.079 138.888 194.079 137.236C194.079 136.228 193.841 135.36 193.365 134.632C192.917 133.904 192.357 133.54 191.685 133.54C191.657 134.268 191.167 137.544 190.215 143.368C189.291 149.164 188.367 154.554 187.443 159.538C188.227 159.538 188.955 159.132 189.627 158.32C190.299 157.508 190.775 156.696 191.055 155.884L191.517 154.624L192.273 154.96C192.189 155.352 191.965 155.926 191.601 156.682C191.265 157.41 190.915 158.012 190.551 158.488ZM208.204 157.354C208.54 158.222 209.072 158.656 209.8 158.656C210.556 158.656 211.186 158.18 211.69 157.228L212.362 157.606C212.082 158.082 211.83 158.46 211.606 158.74C211.41 158.992 211.004 159.272 210.388 159.58C209.8 159.86 209.072 160 208.204 160C205.74 160 204.088 158.964 203.248 156.892L201.652 153.028C200 153.196 198.67 153.616 197.662 154.288H197.704C198.544 154.288 199.258 154.582 199.846 155.17C200.434 155.758 200.728 156.472 200.728 157.312C200.728 158.152 200.434 158.88 199.846 159.496C199.258 160.084 198.544 160.378 197.704 160.378C196.864 160.378 196.136 160.084 195.52 159.496C194.932 158.88 194.638 158.152 194.638 157.312C194.638 155.94 195.268 154.778 196.528 153.826C197.816 152.846 199.398 152.258 201.274 152.062L198.964 146.308C198.628 145.44 198.096 145.006 197.368 145.006C196.668 145.006 196.038 145.482 195.478 146.434L194.848 146.056C195.128 145.58 195.366 145.216 195.562 144.964C195.786 144.684 196.192 144.404 196.78 144.124C197.396 143.816 198.138 143.662 199.006 143.662C201.442 143.662 203.08 144.698 203.92 146.77L205.642 151.054C207.378 150.886 208.736 150.452 209.716 149.752H209.674C208.834 149.752 208.12 149.458 207.532 148.87C206.944 148.282 206.65 147.568 206.65 146.728C206.65 145.888 206.944 145.174 207.532 144.586C208.12 143.97 208.834 143.662 209.674 143.662C210.514 143.662 211.228 143.97 211.816 144.586C212.432 145.174 212.74 145.888 212.74 146.728C212.74 148.156 212.082 149.36 210.766 150.34C209.45 151.292 207.868 151.852 206.02 152.02L208.204 157.354ZM217.471 144.502C216.799 144.502 216.099 144.894 215.371 145.678L214.741 145.174C214.937 144.782 215.371 144.432 216.043 144.124C216.715 143.816 217.457 143.662 218.269 143.662C220.817 143.662 222.091 144.81 222.091 147.106C222.091 148.086 221.825 149.696 221.293 151.936C220.761 154.148 220.495 155.646 220.495 156.43C220.495 157.774 221.055 158.446 222.175 158.446C223.099 158.446 223.995 157.816 224.863 156.556C225.759 155.296 226.487 153.602 227.047 151.474L228.433 144.04C230.505 144.04 232.017 143.956 232.969 143.788L233.515 143.662L230.869 158.53C230.365 161.414 229.189 163.668 227.341 165.292C225.521 166.916 223.155 167.728 220.243 167.728C218.479 167.728 217.107 167.42 216.127 166.804C215.175 166.216 214.699 165.432 214.699 164.452C214.699 163.5 214.993 162.73 215.581 162.142C216.169 161.582 216.995 161.302 218.059 161.302C219.151 161.302 220.159 161.47 221.083 161.806C222.007 162.17 222.679 162.38 223.099 162.436L223.015 163.192C222.539 163.136 221.853 162.94 220.957 162.604C220.061 162.268 219.165 162.1 218.269 162.1C217.401 162.1 216.729 162.296 216.253 162.688C215.805 163.08 215.581 163.64 215.581 164.368C215.581 165.124 215.987 165.726 216.799 166.174C217.611 166.65 218.619 166.888 219.823 166.888C222.735 166.888 224.527 165.138 225.199 161.638L226.249 155.842C225.073 158.418 223.295 159.706 220.915 159.706C219.291 159.706 218.031 159.244 217.135 158.32C216.267 157.396 215.833 156.094 215.833 154.414C215.833 153.546 216.085 151.992 216.589 149.752C217.121 147.484 217.415 145.734 217.471 144.502ZM261.709 141.016C261.709 139.392 261.219 138.104 260.239 137.152C259.287 136.2 257.761 135.724 255.661 135.724C253.561 135.724 251.741 136.452 250.201 137.908C248.689 139.364 247.723 141.142 247.303 143.242H246.085C246.561 140.778 247.709 138.72 249.529 137.068C251.349 135.388 253.435 134.548 255.787 134.548C258.167 134.548 259.945 135.122 261.121 136.27C262.325 137.39 262.927 138.86 262.927 140.68C262.927 141.352 262.843 142.024 262.675 142.696C262.311 144.152 261.695 145.426 260.827 146.518C259.987 147.582 258.713 148.856 257.005 150.34C255.297 151.824 253.995 153.434 253.099 155.17L252.091 154.666C252.959 152.818 254.569 150.942 256.921 149.038C259.273 147.106 260.813 144.964 261.541 142.612C261.653 142.136 261.709 141.604 261.709 141.016ZM250.201 159.748C249.809 159.328 249.613 158.824 249.613 158.236C249.613 157.648 249.809 157.144 250.201 156.724C250.621 156.304 251.125 156.094 251.713 156.094C252.301 156.094 252.805 156.304 253.225 156.724C253.645 157.144 253.855 157.648 253.855 158.236C253.855 158.824 253.645 159.328 253.225 159.748C252.805 160.14 252.301 160.336 251.713 160.336C251.125 160.336 250.621 160.14 250.201 159.748ZM267.584 145.72C267.584 147.456 269.656 149.15 273.8 150.802L273.59 151.894C272.862 152.118 271.7 152.58 270.104 153.28C267.024 154.624 265.344 155.996 265.064 157.396H264.182C264.35 156.472 264.98 155.576 266.072 154.708C267.808 153.308 270.062 152.174 272.834 151.306C269.754 150.102 267.808 148.758 266.996 147.274C266.772 146.826 266.66 146.448 266.66 146.14C266.66 145.804 266.688 145.524 266.744 145.3H267.626C267.598 145.44 267.584 145.58 267.584 145.72Z" fill="#9A8C98"/>
<path d="M27.2561 151.894L26.2741 151.705L26.118 152.517L26.8858 152.823L27.2561 151.894ZM27.4661 150.802L27.172 149.846L26.5976 150.023L26.4841 150.613L27.4661 150.802ZM30.9521 149.416L30.5522 148.499L30.5504 148.5L30.9521 149.416ZM35.9921 145.3V144.3H35.1723L35.0115 145.104L35.9921 145.3ZM36.8741 145.3L37.858 145.479L38.0723 144.3H36.8741V145.3ZM34.9841 147.988L34.3618 147.205L34.3564 147.21L34.9841 147.988ZM28.2221 151.39L27.9233 150.436L25.2087 151.286L27.858 152.321L28.2221 151.39ZM34.0181 155.422L33.1339 155.889L33.1401 155.901L33.1465 155.912L34.0181 155.422ZM34.3121 157.396V158.396H35.0929L35.2823 157.639L34.3121 157.396ZM33.4301 157.396L32.4495 157.2L32.2103 158.396H33.4301V157.396ZM34.4721 156.976C34.4721 155.675 33.6923 154.562 32.5511 153.629C31.4007 152.689 29.739 151.807 27.6264 150.965L26.8858 152.823C28.9172 153.633 30.3635 154.424 31.2852 155.178C32.2159 155.939 32.4721 156.541 32.4721 156.976H34.4721ZM28.2381 152.083L28.4481 150.991L26.4841 150.613L26.2741 151.705L28.2381 152.083ZM27.7602 151.758C28.5479 151.515 29.7556 151.033 31.3538 150.332L30.5504 148.5C28.9566 149.199 27.8403 149.641 27.172 149.846L27.7602 151.758ZM31.3521 150.333C32.9352 149.642 34.2164 148.92 35.1546 148.154C36.085 147.394 36.7689 146.515 36.9727 145.496L35.0115 145.104C34.9354 145.485 34.6392 145.992 33.8896 146.604C33.1478 147.21 32.049 147.846 30.5522 148.499L31.3521 150.333ZM35.9921 146.3H36.8741V144.3H35.9921V146.3ZM35.8902 145.121C35.7824 145.714 35.3537 146.417 34.3619 147.205L35.6064 148.771C36.7985 147.823 37.6298 146.734 37.858 145.479L35.8902 145.121ZM34.3564 147.21C32.7426 148.511 30.61 149.594 27.9233 150.436L28.5209 152.344C31.3782 151.45 33.7536 150.265 35.6119 148.766L34.3564 147.21ZM27.858 152.321C30.9004 153.511 32.5291 154.744 33.1339 155.889L34.9023 154.955C33.9391 153.132 31.7038 151.677 28.5862 150.459L27.858 152.321ZM33.1465 155.912C33.3552 156.283 33.3961 156.501 33.3961 156.598H35.3961C35.3961 156.023 35.185 155.457 34.8897 154.932L33.1465 155.912ZM33.3961 156.598C33.3961 156.85 33.3728 157.03 33.342 157.153L35.2823 157.639C35.3634 157.314 35.3961 156.962 35.3961 156.598H33.3961ZM34.3121 156.396H33.4301V158.396H34.3121V156.396ZM34.4107 157.592C34.4513 157.389 34.4721 157.183 34.4721 156.976H32.4721C32.4721 157.049 32.4649 157.123 32.4495 157.2L34.4107 157.592ZM49.5256 157.228L50.52 157.122L50.1982 154.105L48.6631 156.722L49.5256 157.228ZM40.4536 158.782L39.7188 159.46L39.7277 159.47L40.4536 158.782ZM41.2936 146.518L42.0656 147.154L42.0656 147.154L41.2936 146.518ZM50.7016 144.964L51.5016 144.364L51.4743 144.328L51.4437 144.294L50.7016 144.964ZM51.3316 145.972L50.3953 146.323L51.663 149.704L52.3152 146.153L51.3316 145.972ZM53.5996 133.624L54.5832 133.805L54.8234 132.497L53.5001 132.629L53.5996 133.624ZM51.4996 134.8L50.8749 135.581L51.6558 136.206L52.2805 135.425L51.4996 134.8ZM50.8696 134.296L50.1014 133.656L49.4483 134.44L50.2449 135.077L50.8696 134.296ZM57.0016 133.75L56.3246 134.486L56.3246 134.486L57.0016 133.75ZM57.9676 137.572L58.9521 137.747L58.9579 137.715L58.9615 137.682L57.9676 137.572ZM53.9776 159.538L52.9944 159.356L52.7514 160.666L54.0771 160.533L53.9776 159.538ZM56.0776 158.362L56.7023 157.581L55.9214 156.956L55.2968 157.737L56.0776 158.362ZM56.7076 158.866L57.4758 159.506L58.129 158.722L57.3323 158.085L56.7076 158.866ZM44.0656 158.698L43.1818 159.166L43.1923 159.186L43.2037 159.205L44.0656 158.698ZM47.0056 158.824L46.4124 158.019L46.4124 158.019L47.0056 158.824ZM48.3496 157.312L47.5107 156.768L47.4993 156.785L47.4887 156.803L48.3496 157.312ZM49.7776 154.666L50.711 155.025L50.7444 154.938L50.7612 154.847L49.7776 154.666ZM50.9956 148.03L51.9792 148.211L52.0013 148.09L51.9937 147.968L50.9956 148.03ZM50.1136 145.594L49.2958 146.169L49.301 146.177L49.3062 146.184L50.1136 145.594ZM44.8636 148.408L45.822 148.693L45.822 148.693L44.8636 148.408ZM53.5576 159.378C52.4526 159.378 51.7503 159.141 51.3173 158.802C50.9073 158.482 50.6106 157.971 50.52 157.122L48.5313 157.334C48.6647 158.585 49.152 159.649 50.086 160.379C50.997 161.09 52.1987 161.378 53.5576 161.378V159.378ZM48.6631 156.722C47.553 158.614 46.27 159.378 44.8216 159.378V161.378C47.1812 161.378 49.0343 160.042 50.3881 157.734L48.6631 156.722ZM44.8216 159.378C43.1059 159.378 41.9466 158.904 41.1796 158.094L39.7277 159.47C40.9767 160.788 42.7294 161.378 44.8216 161.378V159.378ZM41.1884 158.104C40.3924 157.241 39.9416 156.023 39.9416 154.33H37.9416C37.9416 156.389 38.4989 158.139 39.7188 159.46L41.1884 158.104ZM39.9416 154.33C39.9416 151.179 40.6884 148.826 42.0656 147.154L40.5217 145.882C38.7628 148.018 37.9416 150.873 37.9416 154.33H39.9416ZM42.0656 147.154C43.4413 145.483 45.1869 144.662 47.3836 144.662V142.662C44.5964 142.662 42.2819 143.745 40.5217 145.882L42.0656 147.154ZM47.3836 144.662C48.5964 144.662 49.4061 145.022 49.9595 145.634L51.4437 144.294C50.4291 143.17 49.0269 142.662 47.3836 142.662V144.662ZM49.9016 145.564C50.2363 146.01 50.3664 146.246 50.3953 146.323L52.268 145.621C52.1289 145.25 51.8389 144.814 51.5016 144.364L49.9016 145.564ZM52.3152 146.153L54.5832 133.805L52.6161 133.443L50.3481 145.791L52.3152 146.153ZM53.5001 132.629C52.3745 132.742 51.4352 133.28 50.7188 134.175L52.2805 135.425C52.684 134.92 53.1447 134.674 53.6991 134.619L53.5001 132.629ZM52.1243 134.019L51.4943 133.515L50.2449 135.077L50.8749 135.581L52.1243 134.019ZM51.6378 134.936C52.2969 134.145 53.0702 133.784 54.0196 133.784V131.784C52.449 131.784 51.1224 132.431 50.1014 133.656L51.6378 134.936ZM54.0196 133.784C55.1469 133.784 55.8662 134.064 56.3246 134.486L57.6787 133.014C56.737 132.148 55.4683 131.784 54.0196 131.784V133.784ZM56.3246 134.486C56.7717 134.897 57.0516 135.513 57.0516 136.48H59.0516C59.0516 135.095 58.6315 133.891 57.6787 133.014L56.3246 134.486ZM57.0516 136.48C57.0516 136.644 57.0294 136.96 56.9737 137.462L58.9615 137.682C59.0178 137.176 59.0516 136.764 59.0516 136.48H57.0516ZM56.9831 137.397C55.6115 145.095 54.2819 152.414 52.9944 159.356L54.9609 159.72C56.2493 152.774 57.5797 145.449 58.9521 137.747L56.9831 137.397ZM54.0771 160.533C55.2027 160.42 56.142 159.882 56.8585 158.987L55.2968 157.737C54.8932 158.242 54.4325 158.488 53.8781 158.543L54.0771 160.533ZM55.4529 159.143L56.0829 159.647L57.3323 158.085L56.7023 157.581L55.4529 159.143ZM55.9394 158.226C55.2804 159.017 54.507 159.378 53.5576 159.378V161.378C55.1282 161.378 56.4549 160.731 57.4758 159.506L55.9394 158.226ZM42.6876 156.052C42.6876 156.724 42.7203 157.318 42.7922 157.821C42.8623 158.311 42.9781 158.781 43.1818 159.166L44.9494 158.23C44.9012 158.139 44.828 157.93 44.7721 157.538C44.718 157.159 44.6876 156.668 44.6876 156.052H42.6876ZM43.2037 159.205C43.6665 159.992 44.4174 160.412 45.3256 160.412V158.412C45.1138 158.412 45.0248 158.356 44.9276 158.191L43.2037 159.205ZM45.3256 160.412C46.1532 160.412 46.9172 160.131 47.5988 159.629L46.4124 158.019C46.03 158.301 45.674 158.412 45.3256 158.412V160.412ZM47.5988 159.629C48.2478 159.151 48.7839 158.543 49.2105 157.821L47.4887 156.803C47.1874 157.313 46.8275 157.713 46.4124 158.019L47.5988 159.629ZM49.1886 157.856C49.8792 156.791 50.396 155.844 50.711 155.025L48.8443 154.307C48.5993 154.944 48.164 155.761 47.5107 156.768L49.1886 157.856ZM50.7612 154.847L51.9792 148.211L50.0121 147.849L48.7941 154.485L50.7612 154.847ZM51.9937 147.968C51.9257 146.88 51.5651 145.885 50.921 145.004L49.3062 146.184C49.7262 146.759 49.9535 147.388 49.9976 148.092L51.9937 147.968ZM50.9314 145.019C50.1447 143.901 48.8589 143.46 47.3836 143.46V145.46C48.4843 145.46 49.0186 145.775 49.2958 146.169L50.9314 145.019ZM47.3836 143.46C46.4011 143.46 45.7062 144.177 45.2387 144.909C44.7446 145.683 44.3069 146.774 43.9052 148.123L45.822 148.693C46.2043 147.41 46.5787 146.527 46.9245 145.985C47.2971 145.401 47.4701 145.46 47.3836 145.46V143.46ZM43.9052 148.123C43.0968 150.837 42.6876 153.481 42.6876 156.052H44.6876C44.6876 153.695 45.0625 151.243 45.822 148.693L43.9052 148.123ZM70.0443 157.144L71.0389 157.041L70.7178 153.95L69.176 156.648L70.0443 157.144ZM60.8883 158.698L60.1637 159.387L60.1723 159.396L60.1812 159.405L60.8883 158.698ZM61.6023 146.392L62.3599 147.045L62.3599 147.045L61.6023 146.392ZM71.7663 146.56L70.8218 146.889L72.7527 146.724L71.7663 146.56ZM72.2283 144.04V143.04H71.4085L71.2477 143.844L72.2283 144.04ZM76.8483 143.788L77.0127 144.774L77.0431 144.769L77.0731 144.762L76.8483 143.788ZM77.3943 143.662L78.378 143.842L78.6511 142.346L77.1694 142.688L77.3943 143.662ZM74.4963 159.538L73.5125 159.358L73.274 160.665L74.5958 160.533L74.4963 159.538ZM76.5963 158.362L77.221 157.581L76.4401 156.956L75.8154 157.737L76.5963 158.362ZM77.2263 158.866L77.9945 159.506L78.6476 158.722L77.851 158.085L77.2263 158.866ZM64.4583 158.698L63.605 159.219L63.6222 159.248L63.6413 159.275L64.4583 158.698ZM68.0283 158.32L67.3107 157.624L67.3074 157.627L68.0283 158.32ZM70.2543 154.708L71.1876 155.067L71.2128 155.001L71.2287 154.933L70.2543 154.708ZM70.7163 152.104L69.7321 151.927L69.7306 151.935L69.7293 151.943L70.7163 152.104ZM71.3463 148.66L72.3291 148.844L72.3536 148.714L72.3432 148.581L71.3463 148.66ZM70.4643 145.888L69.6231 146.429L69.6231 146.429L70.4643 145.888ZM65.2563 148.408L66.2016 148.734L66.2028 148.731L65.2563 148.408ZM74.0763 159.378C72.9763 159.378 72.2781 159.136 71.8459 158.789C71.4331 158.458 71.1308 157.925 71.0389 157.041L69.0496 157.247C69.1817 158.519 69.6634 159.603 70.5946 160.35C71.5065 161.081 72.7123 161.378 74.0763 161.378V159.378ZM69.176 156.648C68.0562 158.608 66.7838 159.378 65.3823 159.378V161.378C67.7327 161.378 69.5684 159.992 70.9125 157.64L69.176 156.648ZM65.3823 159.378C63.7189 159.378 62.4937 158.889 61.5954 157.991L60.1812 159.405C61.5228 160.747 63.2936 161.378 65.3823 161.378V159.378ZM61.6128 158.009C60.7445 157.096 60.2503 155.775 60.2503 153.91H58.2503C58.2503 156.133 58.848 158.004 60.1637 159.387L61.6128 158.009ZM60.2503 153.91C60.2503 150.878 60.9934 148.631 62.3599 147.045L60.8447 145.739C59.0751 147.793 58.2503 150.558 58.2503 153.91H60.2503ZM62.3599 147.045C63.7299 145.454 65.4789 144.662 67.6923 144.662V142.662C64.9217 142.662 62.6106 143.69 60.8447 145.739L62.3599 147.045ZM67.6923 144.662C68.5543 144.662 69.1896 144.864 69.6641 145.201C70.1387 145.539 70.5382 146.073 70.8218 146.889L72.7108 146.231C72.3223 145.115 71.7068 144.2 70.8234 143.572C69.94 142.943 68.8743 142.662 67.6923 142.662V144.662ZM72.7527 146.724C72.8909 145.895 73.0429 145.066 73.2088 144.236L71.2477 143.844C71.0776 144.694 70.9216 145.545 70.7799 146.396L72.7527 146.724ZM72.2283 145.04C74.3114 145.04 75.9196 144.957 77.0127 144.774L76.6839 142.802C75.761 142.955 74.2891 143.04 72.2283 143.04V145.04ZM77.0731 144.762L77.6191 144.636L77.1694 142.688L76.6234 142.814L77.0731 144.762ZM76.4105 143.482L73.5125 159.358L75.48 159.718L78.378 143.842L76.4105 143.482ZM74.5958 160.533C75.7214 160.42 76.6607 159.882 77.3771 158.987L75.8154 157.737C75.4119 158.242 74.9512 158.488 74.3968 158.543L74.5958 160.533ZM75.9716 159.143L76.6016 159.647L77.851 158.085L77.221 157.581L75.9716 159.143ZM76.458 158.226C75.799 159.017 75.0257 159.378 74.0763 159.378V161.378C75.6469 161.378 76.9735 160.731 77.9945 159.506L76.458 158.226ZM62.9963 156.052C62.9963 157.33 63.1411 158.46 63.605 159.219L65.3115 158.177C65.1594 157.928 64.9963 157.294 64.9963 156.052H62.9963ZM63.6413 159.275C64.1955 160.06 65.0307 160.412 65.9703 160.412V158.412C65.5658 158.412 65.3931 158.288 65.2752 158.121L63.6413 159.275ZM65.9703 160.412C67.0254 160.412 67.9548 159.839 68.7491 159.013L67.3074 157.627C66.7018 158.257 66.2591 158.412 65.9703 158.412V160.412ZM68.7458 159.016C69.7788 157.952 70.5876 156.627 71.1876 155.067L69.3209 154.349C68.8009 155.701 68.1257 156.784 67.3107 157.624L68.7458 159.016ZM71.2287 154.933C71.3215 154.53 71.4809 153.627 71.7032 152.265L69.7293 151.943C69.5036 153.325 69.355 154.158 69.2799 154.483L71.2287 154.933ZM71.7004 152.281C71.9522 150.882 72.1618 149.737 72.3291 148.844L70.3634 148.476C70.1948 149.375 69.9843 150.526 69.7321 151.927L71.7004 152.281ZM72.3432 148.581C72.2481 147.377 71.9109 146.289 71.3054 145.347L69.6231 146.429C70.0256 147.055 70.2764 147.815 70.3494 148.739L72.3432 148.581ZM71.3054 145.347C70.6666 144.353 69.7524 143.712 68.5743 143.712V145.712C68.9082 145.712 69.254 145.855 69.6231 146.429L71.3054 145.347ZM68.5743 143.712C67.5462 143.712 66.6717 144.188 65.9716 144.968C65.2919 145.725 64.7511 146.791 64.3098 148.085L66.2028 148.731C66.6014 147.561 67.0336 146.779 67.4599 146.304C67.8659 145.852 68.2303 145.712 68.5743 145.712V143.712ZM64.3109 148.082C63.4336 150.626 62.9963 153.285 62.9963 156.052H64.9963C64.9963 153.499 65.399 151.062 66.2016 148.734L64.3109 148.082ZM80.056 145.174L79.2878 144.534L78.6347 145.318L79.4313 145.955L80.056 145.174ZM87.238 147.61H86.238L88.14 148.042L87.238 147.61ZM94.462 149.962L95.3216 150.473L95.3216 150.473L94.462 149.962ZM92.614 152.944L93.4461 153.499L93.4536 153.487L92.614 152.944ZM91.69 155.422V156.422H92.69V155.422H91.69ZM90.682 155.422H89.682V156.422H90.682V155.422ZM92.488 151.222L93.314 151.786L93.314 151.786L92.488 151.222ZM93.706 145.174L92.9989 145.881L93.0261 145.908L93.0552 145.933L93.706 145.174ZM89.842 145.594L89.1794 144.845L89.1721 144.851L89.165 144.858L89.842 145.594ZM88.078 148.03L88.9655 148.491L88.9717 148.479L88.9775 148.467L88.078 148.03ZM86.566 151.6L85.6013 151.337L85.566 151.466V151.6H86.566ZM86.566 151.642L87.55 151.82L87.566 151.732V151.642H86.566ZM85.054 160V161H85.8893L86.038 160.178L85.054 160ZM80.014 160L79.0296 159.824L78.8193 161H80.014V160ZM82.786 144.502L83.7704 144.678L84.0034 143.375L82.6865 143.507L82.786 144.502ZM80.686 145.678L80.0613 146.459L80.8422 147.084L81.4669 146.303L80.686 145.678ZM80.8242 145.814C81.4833 145.023 82.2566 144.662 83.206 144.662V142.662C81.6354 142.662 80.3088 143.309 79.2878 144.534L80.8242 145.814ZM83.206 144.662C84.3333 144.662 85.0526 144.942 85.511 145.364L86.8651 143.892C85.9234 143.026 84.6547 142.662 83.206 142.662V144.662ZM85.511 145.364C85.9581 145.775 86.238 146.391 86.238 147.358H88.238C88.238 145.973 87.8179 144.769 86.8651 143.892L85.511 145.364ZM86.238 147.358V147.61H88.238V147.358H86.238ZM88.14 148.042C89.3187 145.58 90.6849 144.662 92.152 144.662V142.662C89.5872 142.662 87.6773 144.376 86.336 147.178L88.14 148.042ZM92.152 144.662C93.0659 144.662 93.5701 144.897 93.857 145.195C94.1508 145.501 94.386 146.047 94.386 147.022H96.386C96.386 145.757 96.0822 144.623 95.298 143.809C94.5069 142.987 93.3941 142.662 92.152 142.662V144.662ZM94.386 147.022C94.386 147.719 94.1539 148.524 93.6025 149.451L95.3216 150.473C96.0022 149.328 96.386 148.173 96.386 147.022H94.386ZM93.6025 149.451C92.9925 150.477 92.3832 151.46 91.7744 152.401L93.4536 153.487C94.0769 152.524 94.6995 151.519 95.3216 150.473L93.6025 149.451ZM91.782 152.389C91.1101 153.397 90.69 154.418 90.69 155.422H92.69C92.69 154.97 92.8859 154.339 93.4461 153.499L91.782 152.389ZM91.69 154.422H90.682V156.422H91.69V154.422ZM91.682 155.422C91.682 154.71 92.1252 153.527 93.314 151.786L91.6621 150.658C90.4429 152.445 89.682 154.062 89.682 155.422H91.682ZM93.314 151.786C93.9367 150.873 94.4231 150.038 94.7567 149.286C95.0859 148.543 95.294 147.82 95.294 147.148H93.294C93.294 147.428 93.2011 147.86 92.9283 148.475C92.6599 149.081 92.2434 149.807 91.6621 150.658L93.314 151.786ZM95.294 147.148C95.294 146.115 95.1034 145.055 94.3568 144.415L93.0552 145.933C93.0926 145.965 93.294 146.221 93.294 147.148H95.294ZM94.4131 144.467C93.7892 143.843 92.9234 143.628 92.026 143.628V145.628C92.6406 145.628 92.8949 145.777 92.9989 145.881L94.4131 144.467ZM92.026 143.628C90.9821 143.628 90.0281 144.094 89.1794 144.845L90.5046 146.343C91.1119 145.806 91.614 145.628 92.026 145.628V143.628ZM89.165 144.858C88.3603 145.598 87.7014 146.517 87.1785 147.593L88.9775 148.467C89.4066 147.583 89.9237 146.878 90.5191 146.33L89.165 144.858ZM87.1905 147.569C86.4214 149.05 85.8805 150.313 85.6013 151.337L87.5308 151.863C87.7555 151.039 88.2226 149.922 88.9655 148.491L87.1905 147.569ZM85.566 151.6V151.642H87.566V151.6H85.566ZM85.582 151.464L84.07 159.822L86.038 160.178L87.55 151.82L85.582 151.464ZM85.054 159H80.014V161H85.054V159ZM80.9984 160.176L83.7704 144.678L81.8016 144.326L79.0296 159.824L80.9984 160.176ZM82.6865 143.507C81.5609 143.62 80.6216 144.158 79.9051 145.053L81.4669 146.303C81.8704 145.798 82.3311 145.552 82.8855 145.497L82.6865 143.507ZM81.3107 144.897L80.6807 144.393L79.4313 145.955L80.0613 146.459L81.3107 144.897ZM102.509 151.894L102.682 150.909L101.708 150.739L101.526 151.711L102.509 151.894ZM100.997 160V161H101.828L101.98 160.183L100.997 160ZM95.9993 160L95.0151 159.823L94.8033 161H95.9993V160ZM100.745 133.624L101.729 133.801L101.964 132.497L100.646 132.629L100.745 133.624ZM98.6453 134.8L98.0206 135.581L98.8014 136.206L99.4261 135.425L98.6453 134.8ZM98.0153 134.296L97.2471 133.656L96.5939 134.44L97.3906 135.077L98.0153 134.296ZM104.147 133.75L103.47 134.486L103.47 134.486L104.147 133.75ZM105.113 137.572L106.097 137.75L106.103 137.716L106.107 137.682L105.113 137.572ZM103.013 149.08L102.03 148.899L103.939 149.459L103.013 149.08ZM106.037 145.09L105.451 144.28L105.451 144.28L106.037 145.09ZM113.345 144.544L112.638 145.251L112.646 145.259L112.655 145.267L113.345 144.544ZM113.471 148.912L114.196 149.601L114.196 149.601L113.471 148.912ZM109.397 149.038L108.65 149.702L108.669 149.724L108.69 149.745L109.397 149.038ZM109.733 144.628L110.333 145.428L113.285 143.215L109.619 143.634L109.733 144.628ZM103.307 150.592L102.39 150.193L101.676 151.835L103.449 151.582L103.307 150.592ZM107.801 151.39L107.228 152.209L107.234 152.214L107.24 152.218L107.801 151.39ZM109.481 153.574L108.521 153.853L108.523 153.861L109.481 153.574ZM110.027 156.136L109.035 156.264L109.036 156.268L110.027 156.136ZM110.573 158.278L109.654 158.672L109.654 158.672L110.573 158.278ZM113.429 158.362L114.054 157.581L113.212 156.908L112.604 157.797L113.429 158.362ZM114.059 158.866L114.954 159.313L115.315 158.59L114.684 158.085L114.059 158.866ZM112.757 159.916L113.174 160.825L113.174 160.825L112.757 159.916ZM107.381 159.58L106.82 160.407L106.826 160.412L106.833 160.416L107.381 159.58ZM105.743 157.606L104.808 157.961L104.813 157.972L105.743 157.606ZM104.987 155.212L105.958 154.969L105.954 154.957L104.987 155.212ZM101.526 151.711L100.014 159.817L101.98 160.183L103.492 152.077L101.526 151.711ZM100.997 159H95.9993V161H100.997V159ZM96.9835 160.177L101.729 133.801L99.7611 133.447L95.0151 159.823L96.9835 160.177ZM100.646 132.629C99.5202 132.742 98.5809 133.28 97.8644 134.175L99.4261 135.425C99.8297 134.92 100.29 134.674 100.845 134.619L100.646 132.629ZM99.27 134.019L98.64 133.515L97.3906 135.077L98.0206 135.581L99.27 134.019ZM98.7835 134.936C99.4425 134.145 100.216 133.784 101.165 133.784V131.784C99.5947 131.784 98.268 132.431 97.2471 133.656L98.7835 134.936ZM101.165 133.784C102.293 133.784 103.012 134.064 103.47 134.486L104.824 133.014C103.883 132.148 102.614 131.784 101.165 131.784V133.784ZM103.47 134.486C103.917 134.897 104.197 135.513 104.197 136.48H106.197C106.197 135.095 105.777 133.891 104.824 133.014L103.47 134.486ZM104.197 136.48C104.197 136.644 104.175 136.96 104.119 137.462L106.107 137.682C106.163 137.176 106.197 136.764 106.197 136.48H104.197ZM104.129 137.394C103.485 140.949 102.786 144.784 102.03 148.899L103.997 149.261C104.753 145.144 105.453 141.307 106.097 137.75L104.129 137.394ZM103.939 149.459C104.578 147.9 105.478 146.729 106.623 145.9L105.451 144.28C103.964 145.355 102.849 146.844 102.088 148.701L103.939 149.459ZM106.623 145.9C107.786 145.059 108.984 144.662 110.237 144.662V142.662C108.523 142.662 106.921 143.217 105.451 144.28L106.623 145.9ZM110.237 144.662C111.647 144.662 112.339 144.952 112.638 145.251L114.052 143.837C113.175 142.96 111.796 142.662 110.237 142.662V144.662ZM112.655 145.267C113.062 145.656 113.269 146.131 113.269 146.77H115.269C115.269 145.617 114.861 144.608 114.036 143.821L112.655 145.267ZM113.269 146.77C113.269 147.416 113.079 147.873 112.746 148.223L114.196 149.601C114.927 148.831 115.269 147.86 115.269 146.77H113.269ZM112.746 148.223C112.427 148.559 112.003 148.752 111.371 148.752V150.752C112.476 150.752 113.451 150.385 114.196 149.601L112.746 148.223ZM111.371 148.752C110.727 148.752 110.349 148.575 110.104 148.331L108.69 149.745C109.398 150.453 110.336 150.752 111.371 150.752V148.752ZM110.145 148.374C109.916 148.116 109.725 147.661 109.725 146.854H107.725C107.725 147.951 107.983 148.952 108.65 149.702L110.145 148.374ZM109.725 146.854C109.725 146.129 109.957 145.71 110.333 145.428L109.133 143.828C108.165 144.554 107.725 145.619 107.725 146.854H109.725ZM109.619 143.634C106.424 144.001 104.054 146.369 102.39 150.193L104.224 150.991C105.752 147.479 107.667 145.871 109.847 145.621L109.619 143.634ZM103.449 151.582C103.811 151.53 104.097 151.508 104.315 151.508V149.508C103.973 149.508 103.587 149.542 103.166 149.602L103.449 151.582ZM104.315 151.508C105.682 151.508 106.616 151.781 107.228 152.209L108.375 150.571C107.307 149.823 105.917 149.508 104.315 149.508V151.508ZM107.24 152.218C107.948 152.697 108.344 153.244 108.521 153.853L110.442 153.295C110.114 152.168 109.391 151.259 108.362 150.562L107.24 152.218ZM108.523 153.861C108.76 154.649 108.93 155.45 109.035 156.264L111.019 156.008C110.9 155.086 110.707 154.179 110.439 153.287L108.523 153.861ZM109.036 156.268C109.156 157.171 109.357 157.978 109.654 158.672L111.492 157.884C111.286 157.402 111.122 156.781 111.019 156.004L109.036 156.268ZM109.654 158.672C109.842 159.111 110.132 159.501 110.55 159.776C110.967 160.049 111.44 160.16 111.917 160.16V158.16C111.75 158.16 111.678 158.124 111.647 158.103C111.617 158.084 111.556 158.033 111.492 157.884L109.654 158.672ZM111.917 160.16C112.892 160.16 113.704 159.731 114.255 158.927L112.604 157.797C112.426 158.057 112.231 158.16 111.917 158.16V160.16ZM112.805 159.143L113.435 159.647L114.684 158.085L114.054 157.581L112.805 159.143ZM113.165 158.419C113.12 158.508 112.935 158.734 112.341 159.007L113.174 160.825C113.923 160.482 114.606 160.008 114.954 159.313L113.165 158.419ZM112.341 159.007C111.844 159.235 111.132 159.378 110.153 159.378V161.378C111.303 161.378 112.327 161.213 113.174 160.825L112.341 159.007ZM110.153 159.378C109.298 159.378 108.567 159.162 107.929 158.744L106.833 160.416C107.819 161.062 108.936 161.378 110.153 161.378V159.378ZM107.943 158.753C107.304 158.319 106.899 157.814 106.674 157.24L104.813 157.972C105.203 158.966 105.891 159.777 106.82 160.407L107.943 158.753ZM106.678 157.251C106.383 156.473 106.143 155.713 105.957 154.969L104.017 155.455C104.223 156.279 104.487 157.115 104.808 157.961L106.678 157.251ZM105.954 154.957C105.408 152.888 104.433 151.215 102.682 150.909L102.337 152.879C102.825 152.965 103.502 153.504 104.02 155.467L105.954 154.957ZM126.942 157.228L127.936 157.122L127.614 154.105L126.079 156.722L126.942 157.228ZM117.87 158.782L117.135 159.46L117.144 159.47L117.87 158.782ZM118.71 146.518L119.482 147.154L119.482 147.154L118.71 146.518ZM128.118 144.964L128.918 144.364L128.89 144.328L128.86 144.294L128.118 144.964ZM128.748 145.972L127.811 146.323L129.079 149.704L129.731 146.153L128.748 145.972ZM131.016 133.624L131.999 133.805L132.24 132.497L130.916 132.629L131.016 133.624ZM128.916 134.8L128.291 135.581L129.072 136.206L129.697 135.425L128.916 134.8ZM128.286 134.296L127.518 133.656L126.864 134.44L127.661 135.077L128.286 134.296ZM134.418 133.75L133.741 134.486L133.741 134.486L134.418 133.75ZM135.384 137.572L136.368 137.747L136.374 137.715L136.378 137.682L135.384 137.572ZM131.394 159.538L130.411 159.356L130.168 160.666L131.493 160.533L131.394 159.538ZM133.494 158.362L134.118 157.581L133.338 156.956L132.713 157.737L133.494 158.362ZM134.124 158.866L134.892 159.506L135.545 158.722L134.748 158.085L134.124 158.866ZM121.482 158.698L120.598 159.166L120.608 159.186L120.62 159.205L121.482 158.698ZM124.422 158.824L123.829 158.019L123.829 158.019L124.422 158.824ZM125.766 157.312L124.927 156.768L124.915 156.785L124.905 156.803L125.766 157.312ZM127.194 154.666L128.127 155.025L128.161 154.938L128.177 154.847L127.194 154.666ZM128.412 148.03L129.395 148.211L129.417 148.09L129.41 147.968L128.412 148.03ZM127.53 145.594L126.712 146.169L126.717 146.177L126.722 146.184L127.53 145.594ZM122.28 148.408L123.238 148.693L123.238 148.693L122.28 148.408ZM130.974 159.378C129.869 159.378 129.166 159.141 128.733 158.802C128.323 158.482 128.027 157.971 127.936 157.122L125.947 157.334C126.081 158.585 126.568 159.649 127.502 160.379C128.413 161.09 129.615 161.378 130.974 161.378V159.378ZM126.079 156.722C124.969 158.614 123.686 159.378 122.238 159.378V161.378C124.597 161.378 126.45 160.042 127.804 157.734L126.079 156.722ZM122.238 159.378C120.522 159.378 119.363 158.904 118.596 158.094L117.144 159.47C118.393 160.788 120.146 161.378 122.238 161.378V159.378ZM118.605 158.104C117.809 157.241 117.358 156.023 117.358 154.33H115.358C115.358 156.389 115.915 158.139 117.135 159.46L118.605 158.104ZM117.358 154.33C117.358 151.179 118.105 148.826 119.482 147.154L117.938 145.882C116.179 148.018 115.358 150.873 115.358 154.33H117.358ZM119.482 147.154C120.858 145.483 122.603 144.662 124.8 144.662V142.662C122.013 142.662 119.698 143.745 117.938 145.882L119.482 147.154ZM124.8 144.662C126.013 144.662 126.822 145.022 127.376 145.634L128.86 144.294C127.845 143.17 126.443 142.662 124.8 142.662V144.662ZM127.318 145.564C127.652 146.01 127.783 146.246 127.811 146.323L129.684 145.621C129.545 145.25 129.255 144.814 128.918 144.364L127.318 145.564ZM129.731 146.153L131.999 133.805L130.032 133.443L127.764 145.791L129.731 146.153ZM130.916 132.629C129.791 132.742 128.851 133.28 128.135 134.175L129.697 135.425C130.1 134.92 130.561 134.674 131.115 134.619L130.916 132.629ZM129.54 134.019L128.91 133.515L127.661 135.077L128.291 135.581L129.54 134.019ZM129.054 134.936C129.713 134.145 130.486 133.784 131.436 133.784V131.784C129.865 131.784 128.539 132.431 127.518 133.656L129.054 134.936ZM131.436 133.784C132.563 133.784 133.282 134.064 133.741 134.486L135.095 133.014C134.153 132.148 132.884 131.784 131.436 131.784V133.784ZM133.741 134.486C134.188 134.897 134.468 135.513 134.468 136.48H136.468C136.468 135.095 136.048 133.891 135.095 133.014L133.741 134.486ZM134.468 136.48C134.468 136.644 134.446 136.96 134.39 137.462L136.378 137.682C136.434 137.176 136.468 136.764 136.468 136.48H134.468ZM134.399 137.397C133.028 145.095 131.698 152.414 130.411 159.356L132.377 159.72C133.666 152.774 134.996 145.449 136.368 137.747L134.399 137.397ZM131.493 160.533C132.619 160.42 133.558 159.882 134.275 158.987L132.713 157.737C132.309 158.242 131.849 158.488 131.294 158.543L131.493 160.533ZM132.869 159.143L133.499 159.647L134.748 158.085L134.118 157.581L132.869 159.143ZM133.356 158.226C132.697 159.017 131.923 159.378 130.974 159.378V161.378C132.544 161.378 133.871 160.731 134.892 159.506L133.356 158.226ZM120.104 156.052C120.104 156.724 120.136 157.318 120.208 157.821C120.278 158.311 120.394 158.781 120.598 159.166L122.366 158.23C122.317 158.139 122.244 157.93 122.188 157.538C122.134 157.159 122.104 156.668 122.104 156.052H120.104ZM120.62 159.205C121.083 159.992 121.834 160.412 122.742 160.412V158.412C122.53 158.412 122.441 158.356 122.344 158.191L120.62 159.205ZM122.742 160.412C123.569 160.412 124.333 160.131 125.015 159.629L123.829 158.019C123.446 158.301 123.09 158.412 122.742 158.412V160.412ZM125.015 159.629C125.664 159.151 126.2 158.543 126.627 157.821L124.905 156.803C124.604 157.313 124.244 157.713 123.829 158.019L125.015 159.629ZM126.605 157.856C127.295 156.791 127.812 155.844 128.127 155.025L126.26 154.307C126.015 154.944 125.58 155.761 124.927 156.768L126.605 157.856ZM128.177 154.847L129.395 148.211L127.428 147.849L126.21 154.485L128.177 154.847ZM129.41 147.968C129.342 146.88 128.981 145.885 128.337 145.004L126.722 146.184C127.142 146.759 127.37 147.388 127.414 148.092L129.41 147.968ZM128.348 145.019C127.561 143.901 126.275 143.46 124.8 143.46V145.46C125.901 145.46 126.435 145.775 126.712 146.169L128.348 145.019ZM124.8 143.46C123.817 143.46 123.122 144.177 122.655 144.909C122.161 145.683 121.723 146.774 121.321 148.123L123.238 148.693C123.62 147.41 123.995 146.527 124.341 145.985C124.713 145.401 124.886 145.46 124.8 145.46V143.46ZM121.321 148.123C120.513 150.837 120.104 153.481 120.104 156.052H122.104C122.104 153.695 122.479 151.243 123.238 148.693L121.321 148.123ZM148.717 151.936L149.193 152.815L149.198 152.812L148.717 151.936ZM141.619 153.322L141.609 152.322L140.672 152.331L140.62 153.267L141.619 153.322ZM142.375 158.53L141.635 159.203L141.651 159.22L141.667 159.237L142.375 158.53ZM146.911 158.908L146.491 158L146.485 158.003L146.478 158.006L146.911 158.908ZM148.633 157.732L149.362 158.416L149.372 158.405L149.382 158.394L148.633 157.732ZM149.725 156.262L150.578 156.783L150.58 156.78L149.725 156.262ZM150.565 154.498L150.971 153.584L149.565 152.959V154.498H150.565ZM151.321 154.834L152.303 155.018L152.449 154.241L151.727 153.92L151.321 154.834ZM150.565 156.64L151.431 157.14L151.435 157.133L151.439 157.126L150.565 156.64ZM149.179 158.446L149.865 159.173L149.865 159.173L149.179 158.446ZM146.953 159.79L147.324 160.718L147.335 160.714L147.346 160.709L146.953 159.79ZM138.511 158.782L137.821 159.507L137.83 159.515L137.84 159.524L138.511 158.782ZM139.267 146.518L140.017 147.179L140.022 147.173L139.267 146.518ZM149.347 145.636L148.59 146.29L148.606 146.308L148.622 146.326L149.347 145.636ZM143.761 146.644L142.981 146.017L142.973 146.028L143.761 146.644ZM141.745 152.356L140.753 152.224L140.602 153.362L141.749 153.356L141.745 152.356ZM145.903 144.662C147.575 144.662 148.644 144.999 149.281 145.505C149.873 145.977 150.237 146.713 150.237 147.904H152.237C152.237 146.267 151.711 144.882 150.525 143.94C149.384 143.032 147.786 142.662 145.903 142.662V144.662ZM150.237 147.904C150.237 148.62 150.068 149.209 149.759 149.705C149.446 150.205 148.956 150.663 148.235 151.06L149.198 152.812C150.157 152.285 150.927 151.609 151.454 150.765C151.985 149.917 152.237 148.952 152.237 147.904H150.237ZM148.24 151.057C146.795 151.84 144.619 152.295 141.609 152.322L141.628 154.322C144.778 154.293 147.334 153.824 149.193 152.815L148.24 151.057ZM140.62 153.267C140.564 154.282 140.535 155.101 140.535 155.716H142.535C142.535 155.155 142.561 154.378 142.617 153.377L140.62 153.267ZM140.535 155.716C140.535 157.101 140.839 158.328 141.635 159.203L143.114 157.857C142.79 157.5 142.535 156.851 142.535 155.716H140.535ZM141.667 159.237C142.452 160.022 143.438 160.412 144.559 160.412V158.412C143.943 158.412 143.473 158.214 143.082 157.823L141.667 159.237ZM144.559 160.412C145.558 160.412 146.493 160.218 147.343 159.81L146.478 158.006C145.928 158.27 145.295 158.412 144.559 158.412V160.412ZM147.33 159.816C148.141 159.442 148.832 158.982 149.362 158.416L147.903 157.048C147.593 157.378 147.136 157.702 146.491 158L147.33 159.816ZM149.382 158.394C149.838 157.877 150.237 157.341 150.578 156.783L148.871 155.741C148.596 156.191 148.267 156.635 147.883 157.07L149.382 158.394ZM150.58 156.78C150.867 156.306 151.097 155.895 151.257 155.558C151.338 155.389 151.408 155.223 151.461 155.066C151.508 154.924 151.565 154.72 151.565 154.498H149.565C149.565 154.402 149.586 154.366 149.563 154.434C149.546 154.487 149.511 154.573 149.452 154.698C149.332 154.949 149.142 155.294 148.869 155.744L150.58 156.78ZM150.158 155.412L150.914 155.748L151.727 153.92L150.971 153.584L150.158 155.412ZM150.338 154.65C150.284 154.936 150.096 155.424 149.69 156.154L151.439 157.126C151.873 156.344 152.189 155.628 152.303 155.018L150.338 154.65ZM149.698 156.14C149.317 156.801 148.912 157.322 148.492 157.719L149.865 159.173C150.453 158.618 150.972 157.935 151.431 157.14L149.698 156.14ZM148.492 157.719C148.107 158.083 147.482 158.475 146.559 158.871L147.346 160.709C148.383 160.265 149.242 159.761 149.865 159.173L148.492 157.719ZM146.581 158.862C145.735 159.2 144.771 159.378 143.677 159.378V161.378C144.99 161.378 146.21 161.164 147.324 160.718L146.581 158.862ZM143.677 159.378C141.551 159.378 140.108 158.879 139.181 158.04L137.84 159.524C139.265 160.813 141.266 161.378 143.677 161.378V159.378ZM139.2 158.057C138.287 157.189 137.789 155.987 137.789 154.33H135.789C135.789 156.425 136.438 158.191 137.821 159.507L139.2 158.057ZM137.789 154.33C137.789 151.159 138.573 148.819 140.017 147.179L138.516 145.857C136.656 147.969 135.789 150.837 135.789 154.33H137.789ZM140.022 147.173C141.464 145.512 143.388 144.662 145.903 144.662V142.662C142.873 142.662 140.373 143.716 138.511 145.863L140.022 147.173ZM151.187 147.904C151.187 146.761 150.832 145.746 150.071 144.946L148.622 146.326C148.981 146.702 149.187 147.199 149.187 147.904H151.187ZM150.103 144.982C149.322 144.078 148.188 143.712 146.911 143.712V145.712C147.817 145.712 148.307 145.962 148.59 146.29L150.103 144.982ZM146.911 143.712C145.407 143.712 144.101 144.625 142.981 146.017L144.54 147.271C145.492 146.087 146.286 145.712 146.911 145.712V143.712ZM142.973 146.028C141.81 147.513 141.101 149.617 140.753 152.224L142.736 152.488C143.06 150.055 143.695 148.351 144.548 147.26L142.973 146.028ZM141.749 153.356C144.618 153.342 146.922 152.961 148.542 152.107C149.367 151.672 150.039 151.101 150.503 150.373C150.968 149.64 151.187 148.805 151.187 147.904H149.187C149.187 148.473 149.053 148.926 148.815 149.299C148.575 149.677 148.192 150.03 147.61 150.337C146.416 150.967 144.499 151.342 141.74 151.356L141.749 153.356ZM164.738 144.586L165.445 145.293L165.453 145.285L165.461 145.276L164.738 144.586ZM168.602 144.25L167.988 145.039L168.012 145.058L168.037 145.075L168.602 144.25ZM169.736 145.678L168.801 146.034L168.878 146.234L169.029 146.385L169.736 145.678ZM169.778 145.804H168.778V146.024L168.87 146.223L169.778 145.804ZM169.778 152.776L168.818 152.495L168.815 152.506L168.812 152.517L169.778 152.776ZM168.308 156.304L167.435 155.817L167.431 155.824L168.308 156.304ZM165.452 159.244L165.966 160.101L165.973 160.097L165.98 160.093L165.452 159.244ZM156.716 158.698L156.009 159.405L156.018 159.414L156.716 158.698ZM155.792 149.458L154.821 149.218L154.819 149.228L155.792 149.458ZM156.674 144.502L157.673 144.551L157.727 143.434L156.611 143.504L156.674 144.502ZM155.372 145.006L155.927 145.838L155.945 145.826L155.963 145.812L155.372 145.006ZM154.154 146.266L153.529 147.047L154.362 147.713L154.973 146.839L154.154 146.266ZM153.524 145.762L152.629 145.315L152.268 146.038L152.899 146.543L153.524 145.762ZM153.902 145.174L154.702 145.774L154.702 145.774L153.902 145.174ZM155.162 144.25L154.673 143.377L154.666 143.382L154.658 143.386L155.162 144.25ZM160.244 144.67L159.507 145.346L159.514 145.354L159.522 145.362L160.244 144.67ZM160.37 152.062L161.338 152.313L161.339 152.31L160.37 152.062ZM160.118 158.698L159.329 159.312L159.339 159.325L159.35 159.338L160.118 158.698ZM167.006 156.388L167.805 156.99L167.805 156.99L167.006 156.388ZM169.232 148.66L170.222 148.519L169.897 146.245L168.454 148.032L169.232 148.66ZM165.445 148.163C165.047 147.765 164.856 147.306 164.856 146.728H162.856C162.856 147.83 163.253 148.799 164.031 149.577L165.445 148.163ZM164.856 146.728C164.856 146.15 165.047 145.691 165.445 145.293L164.031 143.879C163.253 144.657 162.856 145.626 162.856 146.728H164.856ZM165.461 145.276C165.895 144.822 166.304 144.662 166.712 144.662V142.662C165.664 142.662 164.756 143.118 164.015 143.896L165.461 145.276ZM166.712 144.662C167.288 144.662 167.69 144.808 167.988 145.039L169.216 143.461C168.505 142.908 167.648 142.662 166.712 142.662V144.662ZM168.037 145.075C168.405 145.327 168.652 145.641 168.801 146.034L170.67 145.322C170.372 144.539 169.862 143.901 169.167 143.425L168.037 145.075ZM169.029 146.385C168.948 146.304 168.778 146.093 168.778 145.762H170.778C170.778 145.375 170.58 145.108 170.443 144.971L169.029 146.385ZM168.778 145.762V145.804H170.778V145.762H168.778ZM168.87 146.223C169.116 146.756 169.282 147.648 169.282 148.996H171.282C171.282 147.544 171.112 146.308 170.686 145.385L168.87 146.223ZM169.282 148.996C169.282 150.287 169.124 151.451 168.818 152.495L170.738 153.057C171.104 151.805 171.282 150.449 171.282 148.996H169.282ZM168.812 152.517C168.528 153.574 168.073 154.673 167.435 155.817L169.181 156.791C169.887 155.527 170.411 154.274 170.744 153.035L168.812 152.517ZM167.431 155.824C166.878 156.833 166.053 157.692 164.924 158.395L165.98 160.093C167.37 159.228 168.45 158.127 169.185 156.784L167.431 155.824ZM164.937 158.387C163.857 159.035 162.556 159.378 161 159.378V161.378C162.859 161.378 164.527 160.965 165.966 160.101L164.937 158.387ZM161 159.378C159.534 159.378 158.362 158.907 157.414 157.982L156.018 159.414C157.365 160.729 159.05 161.378 161 161.378V159.378ZM157.423 157.991C156.472 157.04 156.036 156 156.036 154.834H154.036C154.036 156.58 154.719 158.116 156.009 159.405L157.423 157.991ZM156.036 154.834C156.036 153.484 156.271 151.775 156.765 149.688L154.819 149.228C154.305 151.397 154.036 153.272 154.036 154.834H156.036ZM156.763 149.698C157.299 147.525 157.612 145.798 157.673 144.551L155.675 144.453C155.624 145.502 155.349 147.079 154.821 149.218L156.763 149.698ZM156.611 143.504C155.943 143.546 155.33 143.797 154.78 144.2L155.963 145.812C156.254 145.599 156.508 145.514 156.736 145.5L156.611 143.504ZM154.817 144.174C154.338 144.493 153.921 144.854 153.629 145.273L155.267 146.419C155.366 146.278 155.565 146.079 155.927 145.838L154.817 144.174ZM153.629 145.273L153.335 145.693L154.973 146.839L155.267 146.419L153.629 145.273ZM154.779 145.485L154.149 144.981L152.899 146.543L153.529 147.047L154.779 145.485ZM154.418 146.209C154.466 146.114 154.554 145.971 154.702 145.774L153.102 144.574C152.914 144.825 152.75 145.074 152.629 145.315L154.418 146.209ZM154.702 145.774C154.696 145.782 154.748 145.718 154.934 145.581C155.106 145.455 155.347 145.3 155.666 145.114L154.658 143.386C154.305 143.592 154 143.787 153.751 143.969C153.518 144.14 153.276 144.342 153.102 144.574L154.702 145.774ZM155.65 145.123C156.164 144.835 156.852 144.662 157.766 144.662V142.662C156.607 142.662 155.56 142.881 154.673 143.377L155.65 145.123ZM157.766 144.662C158.564 144.662 159.107 144.91 159.507 145.346L160.981 143.994C160.149 143.086 159.04 142.662 157.766 142.662V144.662ZM159.522 145.362C159.967 145.826 160.21 146.422 160.21 147.232H162.21C162.21 145.97 161.809 144.858 160.966 143.978L159.522 145.362ZM160.21 147.232C160.21 148.133 159.959 149.639 159.401 151.814L161.339 152.31C161.901 150.117 162.21 148.403 162.21 147.232H160.21ZM159.402 151.811C158.843 153.963 158.53 155.602 158.53 156.64H160.53C160.53 155.886 160.777 154.473 161.338 152.313L159.402 151.811ZM158.53 156.64C158.53 157.651 158.758 158.579 159.329 159.312L160.907 158.084C160.693 157.809 160.53 157.365 160.53 156.64H158.53ZM159.35 159.338C159.99 160.106 160.88 160.454 161.882 160.454V158.454C161.372 158.454 161.086 158.298 160.886 158.058L159.35 159.338ZM161.882 160.454C164.177 160.454 166.15 159.186 167.805 156.99L166.207 155.786C164.782 157.678 163.339 158.454 161.882 158.454V160.454ZM167.805 156.99C169.473 154.775 170.316 152.283 170.316 149.542H168.316C168.316 151.841 167.619 153.913 166.207 155.786L167.805 156.99ZM170.316 149.542C170.316 149.272 170.279 148.92 170.222 148.519L168.242 148.801C168.297 149.184 168.316 149.42 168.316 149.542H170.316ZM168.454 148.032C168.053 148.528 167.581 148.752 166.964 148.752V150.752C168.194 150.752 169.235 150.248 170.01 149.288L168.454 148.032ZM166.964 148.752C166.31 148.752 165.83 148.548 165.445 148.163L164.031 149.577C164.822 150.368 165.825 150.752 166.964 150.752V148.752ZM180.253 158.866L181.021 159.506L181.674 158.722L180.878 158.085L180.253 158.866ZM174.121 159.412L173.444 160.148L173.451 160.155L173.458 160.161L174.121 159.412ZM173.743 152.314L172.759 152.133L172.758 152.141L172.757 152.15L173.743 152.314ZM175.129 144.796L176.112 144.977L176.33 143.796H175.129V144.796ZM173.365 144.796L172.371 144.686L172.248 145.796H173.365V144.796ZM173.449 144.04V143.04H172.554L172.455 143.93L173.449 144.04ZM179.833 143.788L180.002 144.774L180.022 144.77L180.042 144.766L179.833 143.788ZM180.421 143.662L181.405 143.842L181.673 142.371L180.211 142.684L180.421 143.662ZM177.523 159.538L176.539 159.358L176.301 160.665L177.622 160.533L177.523 159.538ZM179.623 158.362L180.248 157.581L179.467 156.956L178.842 157.737L179.623 158.362ZM176.557 139.63L175.85 140.337L175.85 140.337L176.557 139.63ZM176.557 135.346L177.264 136.053L177.272 136.045L177.28 136.036L176.557 135.346ZM180.841 135.346L180.118 136.036L180.134 136.053L180.15 136.069L180.841 135.346ZM180.841 139.63L180.15 138.907L180.142 138.915L180.134 138.923L180.841 139.63ZM179.485 158.226C178.826 159.017 178.052 159.378 177.103 159.378V161.378C178.674 161.378 180 160.731 181.021 159.506L179.485 158.226ZM177.103 159.378C176.013 159.378 175.28 159.102 174.783 158.663L173.458 160.161C174.418 161.01 175.673 161.378 177.103 161.378V159.378ZM174.798 158.676C174.323 158.239 174.071 157.676 174.071 156.892H172.071C172.071 158.18 172.518 159.297 173.444 160.148L174.798 158.676ZM174.071 156.892C174.071 156.893 174.071 156.885 174.072 156.865C174.073 156.846 174.075 156.82 174.078 156.786C174.084 156.719 174.093 156.63 174.106 156.519C174.132 156.296 174.173 155.997 174.228 155.62C174.339 154.866 174.506 153.82 174.729 152.478L172.757 152.15C172.532 153.496 172.363 154.557 172.25 155.329C172.142 156.062 172.071 156.62 172.071 156.892H174.071ZM174.726 152.495L176.112 144.977L174.145 144.615L172.759 152.133L174.726 152.495ZM175.129 143.796H173.365V145.796H175.129V143.796ZM174.359 144.906L174.443 144.15L172.455 143.93L172.371 144.686L174.359 144.906ZM173.449 145.04H175.255V143.04H173.449V145.04ZM175.255 145.04C177.337 145.04 178.934 144.957 180.002 144.774L179.664 142.802C178.772 142.955 177.317 143.04 175.255 143.04V145.04ZM180.042 144.766L180.63 144.64L180.211 142.684L179.623 142.81L180.042 144.766ZM179.437 143.482L176.539 159.358L178.507 159.718L181.405 143.842L179.437 143.482ZM177.622 160.533C178.748 160.42 179.687 159.882 180.404 158.987L178.842 157.737C178.439 158.242 177.978 158.488 177.423 158.543L177.622 160.533ZM178.998 159.143L179.628 159.647L180.878 158.085L180.248 157.581L178.998 159.143ZM177.264 138.923C176.866 138.525 176.675 138.066 176.675 137.488H174.675C174.675 138.59 175.072 139.559 175.85 140.337L177.264 138.923ZM176.675 137.488C176.675 136.91 176.866 136.451 177.264 136.053L175.85 134.639C175.072 135.417 174.675 136.386 174.675 137.488H176.675ZM177.28 136.036C177.683 135.615 178.136 135.422 178.699 135.422V133.422C177.581 133.422 176.607 133.845 175.834 134.656L177.28 136.036ZM178.699 135.422C179.261 135.422 179.715 135.615 180.118 136.036L181.564 134.656C180.791 133.845 179.816 133.422 178.699 133.422V135.422ZM180.15 136.069C180.572 136.472 180.765 136.926 180.765 137.488H182.765C182.765 136.37 182.342 135.396 181.531 134.623L180.15 136.069ZM180.765 137.488C180.765 138.05 180.572 138.504 180.15 138.907L181.531 140.353C182.342 139.58 182.765 138.606 182.765 137.488H180.765ZM180.134 138.923C179.735 139.321 179.277 139.512 178.699 139.512V141.512C179.801 141.512 180.77 141.115 181.548 140.337L180.134 138.923ZM178.699 139.512C178.121 139.512 177.662 139.321 177.264 138.923L175.85 140.337C176.627 141.115 177.597 141.512 178.699 141.512V139.512ZM190.551 158.488L189.756 157.881L189.756 157.881L190.551 158.488ZM189.039 159.79L188.519 158.936L188.51 158.941L188.502 158.946L189.039 159.79ZM184.041 159.412L184.718 158.676L184.718 158.676L184.041 159.412ZM183.075 155.59L182.091 155.412L182.085 155.446L182.081 155.48L183.075 155.59ZM185.805 140.47L184.821 140.291L184.821 140.292L185.805 140.47ZM187.863 134.548L187.067 133.942L187.063 133.948L187.058 133.954L187.863 134.548ZM193.869 133.918L193.108 134.566L193.114 134.574L193.121 134.582L193.869 133.918ZM193.071 143.956L192.149 143.568L192.146 143.575L193.071 143.956ZM191.307 150.214V151.214H192.307V150.214H191.307ZM190.551 150.214H189.551V151.214H190.551V150.214ZM192.315 143.872L193.234 144.266L193.235 144.263L192.315 143.872ZM193.365 134.632L192.513 135.156L192.52 135.168L192.528 135.179L193.365 134.632ZM191.685 133.54V132.54H190.723L190.686 133.502L191.685 133.54ZM190.215 143.368L189.228 143.207L189.227 143.211L190.215 143.368ZM187.443 159.538L186.46 159.356L186.24 160.538H187.443V159.538ZM189.627 158.32L190.397 158.958L189.627 158.32ZM191.055 155.884L190.116 155.54L190.113 155.549L190.109 155.558L191.055 155.884ZM191.517 154.624L191.923 153.71L190.946 153.276L190.578 154.28L191.517 154.624ZM192.273 154.96L193.251 155.17L193.421 154.376L192.679 154.046L192.273 154.96ZM191.601 156.682L190.7 156.248L190.696 156.256L190.693 156.263L191.601 156.682ZM189.756 157.881C189.484 158.236 189.083 158.592 188.519 158.936L189.559 160.644C190.282 160.204 190.889 159.692 191.345 159.095L189.756 157.881ZM188.502 158.946C188.096 159.204 187.49 159.378 186.603 159.378V161.378C187.731 161.378 188.749 161.16 189.576 160.634L188.502 158.946ZM186.603 159.378C185.829 159.378 185.222 159.139 184.718 158.676L183.364 160.148C184.26 160.973 185.36 161.378 186.603 161.378V159.378ZM184.718 158.676C184.271 158.265 183.991 157.649 183.991 156.682H181.991C181.991 158.067 182.411 159.271 183.364 160.148L184.718 158.676ZM183.991 156.682C183.991 156.518 184.013 156.202 184.069 155.7L182.081 155.48C182.025 155.986 181.991 156.398 181.991 156.682H183.991ZM184.059 155.768L186.789 140.648L184.821 140.292L182.091 155.412L184.059 155.768ZM186.789 140.649C187.286 137.913 187.94 136.127 188.667 135.142L187.058 133.954C186.049 135.321 185.331 137.483 184.821 140.291L186.789 140.649ZM188.658 135.154C189.369 134.222 190.253 133.784 191.391 133.784V131.784C189.617 131.784 188.149 132.522 187.067 133.942L188.658 135.154ZM191.391 133.784C192.111 133.784 192.657 134.037 193.108 134.566L194.63 133.27C193.793 132.287 192.687 131.784 191.391 131.784V133.784ZM193.121 134.582C193.564 135.08 193.877 135.943 193.877 137.362H195.877C195.877 135.701 195.518 134.268 194.616 133.254L193.121 134.582ZM193.877 137.362C193.877 138.692 193.343 140.735 192.149 143.568L193.992 144.344C195.206 141.465 195.877 139.112 195.877 137.362H193.877ZM192.146 143.575C190.97 146.432 190.307 148.681 190.307 150.214H192.307C192.307 149.115 192.82 147.192 193.995 144.337L192.146 143.575ZM191.307 149.214H190.551V151.214H191.307V149.214ZM191.551 150.214C191.551 148.943 192.068 146.986 193.234 144.266L191.396 143.478C190.209 146.246 189.551 148.517 189.551 150.214H191.551ZM193.235 144.263C194.428 141.452 195.079 139.091 195.079 137.236H193.079C193.079 138.685 192.554 140.748 191.394 143.481L193.235 144.263ZM195.079 137.236C195.079 136.065 194.8 135 194.202 134.085L192.528 135.179C192.881 135.72 193.079 136.391 193.079 137.236H195.079ZM194.216 134.108C193.643 133.176 192.8 132.54 191.685 132.54V134.54C191.914 134.54 192.191 134.632 192.513 135.156L194.216 134.108ZM190.686 133.502C190.674 133.797 190.556 134.732 190.307 136.395C190.063 138.026 189.704 140.296 189.228 143.207L191.202 143.529C191.678 140.616 192.039 138.336 192.285 136.691C192.527 135.078 192.667 134.011 192.684 133.578L190.686 133.502ZM189.227 143.211C188.304 149 187.382 154.381 186.46 159.356L188.426 159.72C189.352 154.727 190.277 149.328 191.202 143.525L189.227 143.211ZM187.443 160.538C188.619 160.538 189.605 159.915 190.397 158.958L188.856 157.682C188.305 158.349 187.835 158.538 187.443 158.538V160.538ZM190.397 158.958C191.129 158.073 191.673 157.158 192 156.21L190.109 155.558C189.876 156.234 189.469 156.943 188.856 157.682L190.397 158.958ZM191.994 156.228L192.456 154.968L190.578 154.28L190.116 155.54L191.994 156.228ZM191.111 155.538L191.867 155.874L192.679 154.046L191.923 153.71L191.111 155.538ZM191.295 154.75C191.237 155.019 191.058 155.504 190.7 156.248L192.502 157.116C192.871 156.348 193.14 155.685 193.251 155.17L191.295 154.75ZM190.693 156.263C190.378 156.945 190.064 157.479 189.756 157.881L191.345 159.095C191.766 158.545 192.152 157.875 192.509 157.101L190.693 156.263ZM208.204 157.354L209.137 156.993L209.133 156.984L209.13 156.975L208.204 157.354ZM211.69 157.228L212.181 156.356L211.286 155.854L210.806 156.76L211.69 157.228ZM212.362 157.606L213.224 158.113L213.741 157.234L212.853 156.734L212.362 157.606ZM211.606 158.74L210.825 158.115L210.817 158.126L211.606 158.74ZM210.388 159.58L210.818 160.483L210.827 160.479L210.835 160.474L210.388 159.58ZM203.248 156.892L204.175 156.516L204.173 156.51L203.248 156.892ZM201.652 153.028L202.577 152.646L202.292 151.958L201.551 152.033L201.652 153.028ZM197.662 154.288L197.108 153.456L194.359 155.288H197.662V154.288ZM199.846 155.17L199.139 155.877L199.139 155.877L199.846 155.17ZM199.846 159.496L200.553 160.203L200.562 160.195L200.57 160.186L199.846 159.496ZM195.52 159.496L194.797 160.186L194.813 160.203L194.83 160.219L195.52 159.496ZM196.528 153.826L197.131 154.624L197.134 154.622L196.528 153.826ZM201.274 152.062L201.378 153.057L202.696 152.919L202.202 151.689L201.274 152.062ZM198.964 146.308L198.032 146.669L198.036 146.681L198.964 146.308ZM195.478 146.434L194.964 147.291L195.829 147.81L196.34 146.941L195.478 146.434ZM194.848 146.056L193.986 145.549L193.484 146.403L194.334 146.913L194.848 146.056ZM195.562 144.964L194.781 144.339L194.773 144.35L195.562 144.964ZM196.78 144.124L197.21 145.027L197.219 145.023L197.227 145.018L196.78 144.124ZM203.92 146.77L204.848 146.397L204.847 146.394L203.92 146.77ZM205.642 151.054L204.714 151.427L204.994 152.121L205.739 152.049L205.642 151.054ZM209.716 149.752L210.297 150.566L212.837 148.752H209.716V149.752ZM207.532 144.586L208.239 145.293L208.248 145.285L208.256 145.276L207.532 144.586ZM211.816 144.586L211.093 145.276L211.109 145.293L211.126 145.309L211.816 144.586ZM210.766 150.34L211.352 151.15L211.364 151.142L210.766 150.34ZM206.02 152.02L205.93 151.024L204.582 151.147L205.095 152.399L206.02 152.02ZM207.272 157.715C207.481 158.255 207.783 158.747 208.223 159.105C208.679 159.477 209.221 159.656 209.8 159.656V157.656C209.652 157.656 209.564 157.618 209.487 157.556C209.395 157.48 209.264 157.321 209.137 156.993L207.272 157.715ZM209.8 159.656C211.076 159.656 211.98 158.818 212.574 157.696L210.806 156.76C210.393 157.542 210.037 157.656 209.8 157.656V159.656ZM211.2 158.1L211.872 158.478L212.853 156.734L212.181 156.356L211.2 158.1ZM211.5 157.099C211.233 157.553 211.008 157.887 210.825 158.115L212.387 159.365C212.652 159.033 212.931 158.611 213.224 158.113L211.5 157.099ZM210.817 158.126C210.769 158.187 210.543 158.384 209.941 158.686L210.835 160.474C211.465 160.16 212.051 159.797 212.396 159.354L210.817 158.126ZM209.958 158.677C209.542 158.876 208.971 159 208.204 159V161C209.174 161 210.059 160.844 210.818 160.483L209.958 158.677ZM208.204 159C207.111 159 206.278 158.771 205.649 158.376C205.026 157.985 204.528 157.387 204.175 156.516L202.322 157.268C202.808 158.469 203.557 159.425 204.586 160.07C205.608 160.711 206.833 161 208.204 161V159ZM204.173 156.51L202.577 152.646L200.728 153.41L202.324 157.274L204.173 156.51ZM201.551 152.033C199.794 152.212 198.292 152.666 197.108 153.456L198.217 155.12C199.048 154.566 200.206 154.18 201.753 154.023L201.551 152.033ZM197.662 155.288H197.704V153.288H197.662V155.288ZM197.704 155.288C198.282 155.288 198.741 155.479 199.139 155.877L200.553 154.463C199.776 153.685 198.806 153.288 197.704 153.288V155.288ZM199.139 155.877C199.537 156.275 199.728 156.734 199.728 157.312H201.728C201.728 156.21 201.331 155.241 200.553 154.463L199.139 155.877ZM199.728 157.312C199.728 157.891 199.536 158.373 199.123 158.806L200.57 160.186C201.332 159.387 201.728 158.413 201.728 157.312H199.728ZM199.139 158.789C198.741 159.187 198.282 159.378 197.704 159.378V161.378C198.806 161.378 199.776 160.981 200.553 160.203L199.139 158.789ZM197.704 159.378C197.125 159.378 196.644 159.186 196.211 158.773L194.83 160.219C195.629 160.982 196.603 161.378 197.704 161.378V159.378ZM196.244 158.806C195.83 158.373 195.638 157.891 195.638 157.312H193.638C193.638 158.413 194.034 159.387 194.797 160.186L196.244 158.806ZM195.638 157.312C195.638 156.304 196.078 155.419 197.131 154.624L195.925 153.028C194.458 154.137 193.638 155.576 193.638 157.312H195.638ZM197.134 154.622C198.253 153.77 199.654 153.237 201.378 153.057L201.17 151.067C199.143 151.279 197.379 151.922 195.923 153.03L197.134 154.622ZM202.202 151.689L199.892 145.935L198.036 146.681L200.346 152.435L202.202 151.689ZM199.897 145.947C199.688 145.407 199.385 144.915 198.945 144.557C198.49 144.185 197.948 144.006 197.368 144.006V146.006C197.517 146.006 197.605 146.044 197.681 146.106C197.773 146.182 197.905 146.341 198.032 146.669L199.897 145.947ZM197.368 144.006C196.14 144.006 195.246 144.857 194.616 145.927L196.34 146.941C196.831 146.107 197.196 146.006 197.368 146.006V144.006ZM195.993 145.577L195.363 145.199L194.334 146.913L194.964 147.291L195.993 145.577ZM195.71 146.563C195.982 146.102 196.194 145.78 196.352 145.578L194.773 144.35C194.538 144.652 194.275 145.058 193.986 145.549L195.71 146.563ZM196.343 145.589C196.424 145.487 196.665 145.287 197.21 145.027L196.35 143.221C195.72 143.521 195.148 143.881 194.781 144.339L196.343 145.589ZM197.227 145.018C197.673 144.796 198.254 144.662 199.006 144.662V142.662C198.022 142.662 197.119 142.836 196.333 143.23L197.227 145.018ZM199.006 144.662C200.083 144.662 200.905 144.89 201.527 145.284C202.144 145.674 202.64 146.273 202.994 147.146L204.847 146.394C204.361 145.195 203.618 144.24 202.596 143.594C201.581 142.952 200.365 142.662 199.006 142.662V144.662ZM202.992 147.143L204.714 151.427L206.57 150.681L204.848 146.397L202.992 147.143ZM205.739 152.049C207.576 151.872 209.125 151.404 210.297 150.566L209.135 148.938C208.348 149.5 207.181 149.9 205.546 150.059L205.739 152.049ZM209.716 148.752H209.674V150.752H209.716V148.752ZM209.674 148.752C209.096 148.752 208.638 148.561 208.239 148.163L206.825 149.577C207.603 150.355 208.572 150.752 209.674 150.752V148.752ZM208.239 148.163C207.841 147.765 207.65 147.306 207.65 146.728H205.65C205.65 147.83 206.047 148.799 206.825 149.577L208.239 148.163ZM207.65 146.728C207.65 146.15 207.841 145.691 208.239 145.293L206.825 143.879C206.047 144.657 205.65 145.626 205.65 146.728H207.65ZM208.256 145.276C208.658 144.855 209.112 144.662 209.674 144.662V142.662C208.557 142.662 207.583 143.085 206.809 143.896L208.256 145.276ZM209.674 144.662C210.237 144.662 210.691 144.855 211.093 145.276L212.54 143.896C211.766 143.085 210.792 142.662 209.674 142.662V144.662ZM211.126 145.309C211.547 145.712 211.74 146.166 211.74 146.728H213.74C213.74 145.61 213.317 144.636 212.507 143.863L211.126 145.309ZM211.74 146.728C211.74 147.79 211.275 148.715 210.169 149.538L211.364 151.142C212.89 150.005 213.74 148.522 213.74 146.728H211.74ZM210.18 149.53C209.029 150.362 207.625 150.87 205.93 151.024L206.111 153.016C208.112 152.834 209.871 152.222 211.352 151.15L210.18 149.53ZM205.095 152.399L207.279 157.733L209.13 156.975L206.946 151.641L205.095 152.399ZM217.471 144.502L218.47 144.547L218.517 143.502H217.471V144.502ZM215.371 145.678L214.746 146.459L215.472 147.039L216.104 146.358L215.371 145.678ZM214.741 145.174L213.846 144.727L213.485 145.45L214.116 145.955L214.741 145.174ZM221.293 151.936L222.265 152.17L222.266 152.167L221.293 151.936ZM224.863 156.556L224.048 155.976L224.044 155.983L224.039 155.989L224.863 156.556ZM227.047 151.474L228.014 151.728L228.023 151.693L228.03 151.657L227.047 151.474ZM228.433 144.04V143.04H227.602L227.45 143.857L228.433 144.04ZM232.969 143.788L233.143 144.773L233.168 144.768L233.194 144.762L232.969 143.788ZM233.515 143.662L234.499 143.837L234.765 142.347L233.29 142.688L233.515 143.662ZM230.869 158.53L229.884 158.355L229.884 158.358L230.869 158.53ZM227.341 165.292L226.681 164.541L226.675 164.546L227.341 165.292ZM216.127 166.804L216.659 165.957L216.652 165.953L216.127 166.804ZM215.581 162.142L214.891 161.418L214.882 161.426L214.874 161.435L215.581 162.142ZM221.083 161.806L221.449 160.876L221.437 160.871L221.425 160.866L221.083 161.806ZM223.099 162.436L224.093 162.546L224.201 161.574L223.231 161.445L223.099 162.436ZM223.015 163.192L222.898 164.185L223.898 164.303L224.009 163.302L223.015 163.192ZM220.957 162.604L220.606 163.54L220.606 163.54L220.957 162.604ZM216.253 162.688L215.617 161.916L215.606 161.926L215.594 161.935L216.253 162.688ZM216.799 166.174L217.305 165.311L217.293 165.305L217.282 165.298L216.799 166.174ZM225.199 161.638L226.181 161.827L226.183 161.816L225.199 161.638ZM226.249 155.842L227.233 156.02L225.339 155.427L226.249 155.842ZM217.135 158.32L216.406 159.005L216.411 159.01L216.417 159.016L217.135 158.32ZM216.589 149.752L215.615 149.524L215.613 149.532L216.589 149.752ZM217.471 143.502C216.393 143.502 215.446 144.127 214.638 144.998L216.104 146.358C216.752 145.661 217.205 145.502 217.471 145.502V143.502ZM215.996 144.897L215.366 144.393L214.116 145.955L214.746 146.459L215.996 144.897ZM215.635 145.621C215.68 145.532 215.865 145.306 216.459 145.033L215.626 143.215C214.877 143.558 214.194 144.032 213.846 144.727L215.635 145.621ZM216.459 145.033C216.988 144.791 217.586 144.662 218.269 144.662V142.662C217.327 142.662 216.441 142.841 215.626 143.215L216.459 145.033ZM218.269 144.662C219.413 144.662 220.084 144.922 220.466 145.266C220.828 145.592 221.091 146.141 221.091 147.106H223.091C223.091 145.775 222.717 144.602 221.805 143.78C220.912 142.976 219.673 142.662 218.269 142.662V144.662ZM221.091 147.106C221.091 147.958 220.851 149.467 220.32 151.705L222.266 152.167C222.798 149.925 223.091 148.214 223.091 147.106H221.091ZM220.321 151.702C219.793 153.897 219.495 155.509 219.495 156.43H221.495C221.495 155.783 221.729 154.399 222.265 152.17L220.321 151.702ZM219.495 156.43C219.495 157.216 219.655 157.992 220.147 158.582C220.667 159.207 221.408 159.446 222.175 159.446V157.446C221.822 157.446 221.722 157.349 221.683 157.302C221.615 157.22 221.495 156.988 221.495 156.43H219.495ZM222.175 159.446C223.598 159.446 224.755 158.475 225.686 157.123L224.039 155.989C223.234 157.157 222.6 157.446 222.175 157.446V159.446ZM225.678 157.136C226.666 155.745 227.435 153.928 228.014 151.728L226.08 151.22C225.539 153.276 224.851 154.847 224.048 155.976L225.678 157.136ZM228.03 151.657L229.416 144.223L227.45 143.857L226.064 151.291L228.03 151.657ZM228.433 145.04C230.513 145.04 232.099 144.957 233.143 144.773L232.795 142.803C231.935 142.955 230.497 143.04 228.433 143.04V145.04ZM233.194 144.762L233.74 144.636L233.29 142.688L232.744 142.814L233.194 144.762ZM232.53 143.487L229.884 158.355L231.853 158.705L234.499 143.837L232.53 143.487ZM229.884 158.358C229.411 161.062 228.327 163.094 226.681 164.541L228.001 166.043C230.051 164.242 231.318 161.766 231.854 158.702L229.884 158.358ZM226.675 164.546C225.073 165.976 222.959 166.728 220.243 166.728V168.728C223.35 168.728 225.969 167.856 228.007 166.038L226.675 164.546ZM220.243 166.728C218.576 166.728 217.417 166.434 216.659 165.957L215.595 167.651C216.797 168.406 218.382 168.728 220.243 168.728V166.728ZM216.652 165.953C215.946 165.517 215.699 165.031 215.699 164.452H213.699C213.699 165.833 214.404 166.915 215.601 167.655L216.652 165.953ZM215.699 164.452C215.699 163.724 215.915 163.222 216.288 162.849L214.874 161.435C214.071 162.238 213.699 163.276 213.699 164.452H215.699ZM216.27 162.866C216.62 162.533 217.169 162.302 218.059 162.302V160.302C216.82 160.302 215.717 160.631 214.891 161.418L216.27 162.866ZM218.059 162.302C219.047 162.302 219.938 162.454 220.741 162.746L221.425 160.866C220.38 160.486 219.255 160.302 218.059 160.302V162.302ZM220.716 162.736C221.642 163.101 222.414 163.354 222.967 163.427L223.231 161.445C222.943 161.406 222.371 161.239 221.449 160.876L220.716 162.736ZM222.105 162.326L222.021 163.082L224.009 163.302L224.093 162.546L222.105 162.326ZM223.132 162.199C222.781 162.158 222.188 161.998 221.308 161.668L220.606 163.54C221.518 163.882 222.297 164.114 222.898 164.185L223.132 162.199ZM221.308 161.668C220.307 161.292 219.293 161.1 218.269 161.1V163.1C219.037 163.1 219.814 163.244 220.606 163.54L221.308 161.668ZM218.269 161.1C217.262 161.1 216.333 161.327 215.617 161.916L216.889 163.46C217.125 163.265 217.54 163.1 218.269 163.1V161.1ZM215.594 161.935C214.882 162.559 214.581 163.422 214.581 164.368H216.581C216.581 163.858 216.728 163.601 216.911 163.441L215.594 161.935ZM214.581 164.368C214.581 165.576 215.27 166.473 216.316 167.05L217.282 165.298C216.703 164.979 216.581 164.672 216.581 164.368H214.581ZM216.293 167.037C217.296 167.624 218.49 167.888 219.823 167.888V165.888C218.748 165.888 217.926 165.676 217.305 165.311L216.293 167.037ZM219.823 167.888C221.494 167.888 222.936 167.378 224.049 166.291C225.141 165.225 225.822 163.695 226.181 161.827L224.217 161.449C223.904 163.081 223.352 164.176 222.652 164.86C221.973 165.523 221.063 165.888 219.823 165.888V167.888ZM226.183 161.816L227.233 156.02L225.265 155.664L224.215 161.46L226.183 161.816ZM225.339 155.427C224.803 156.602 224.161 157.413 223.447 157.93C222.743 158.44 221.913 158.706 220.915 158.706V160.706C222.297 160.706 223.546 160.328 224.62 159.55C225.684 158.779 226.519 157.658 227.159 156.257L225.339 155.427ZM220.915 158.706C219.486 158.706 218.514 158.306 217.853 157.624L216.417 159.016C217.548 160.182 219.095 160.706 220.915 160.706V158.706ZM217.864 157.635C217.22 156.951 216.833 155.924 216.833 154.414H214.833C214.833 156.264 215.313 157.841 216.406 159.005L217.864 157.635ZM216.833 154.414C216.833 153.672 217.059 152.22 217.564 149.972L215.613 149.532C215.111 151.764 214.833 153.42 214.833 154.414H216.833ZM217.562 149.98C218.098 147.695 218.41 145.873 218.47 144.547L216.472 144.457C216.42 145.595 216.143 147.273 215.615 149.524L217.562 149.98ZM260.239 137.152L259.532 137.859L259.537 137.864L259.542 137.869L260.239 137.152ZM250.201 137.908L249.514 137.181L249.507 137.188L250.201 137.908ZM247.303 143.242V144.242H248.123L248.284 143.438L247.303 143.242ZM246.085 143.242L245.103 143.052L244.873 144.242H246.085V143.242ZM249.529 137.068L250.201 137.808L250.207 137.803L249.529 137.068ZM261.121 136.27L260.422 136.986L260.431 136.994L260.44 137.002L261.121 136.27ZM262.675 142.696L263.645 142.939L263.645 142.939L262.675 142.696ZM260.827 146.518L260.044 145.896L260.042 145.898L260.827 146.518ZM257.005 150.34L256.349 149.585L256.349 149.585L257.005 150.34ZM253.099 155.17L252.652 156.064L253.535 156.506L253.988 155.629L253.099 155.17ZM252.091 154.666L251.186 154.241L250.771 155.124L251.644 155.56L252.091 154.666ZM256.921 149.038L257.55 149.815L257.556 149.811L256.921 149.038ZM261.541 142.612L262.496 142.908L262.506 142.875L262.514 142.841L261.541 142.612ZM250.201 159.748L249.47 160.43L249.493 160.456L249.519 160.479L250.201 159.748ZM250.201 156.724L249.494 156.017L249.482 156.029L249.47 156.042L250.201 156.724ZM253.225 156.724L252.518 157.431L252.518 157.431L253.225 156.724ZM253.225 159.748L253.907 160.479L253.92 160.467L253.932 160.455L253.225 159.748ZM262.709 141.016C262.709 139.177 262.146 137.61 260.936 136.435L259.542 137.869C260.292 138.598 260.709 139.607 260.709 141.016H262.709ZM260.946 136.445C259.725 135.223 257.882 134.724 255.661 134.724V136.724C257.64 136.724 258.849 137.177 259.532 137.859L260.946 136.445ZM255.661 134.724C253.303 134.724 251.238 135.552 249.514 137.181L250.888 138.635C252.244 137.352 253.819 136.724 255.661 136.724V134.724ZM249.507 137.188C247.845 138.788 246.781 140.75 246.322 143.046L248.284 143.438C248.664 141.534 249.533 139.94 250.895 138.628L249.507 137.188ZM247.303 142.242H246.085V144.242H247.303V142.242ZM247.067 143.432C247.503 141.175 248.545 139.312 250.201 137.808L248.857 136.328C246.873 138.128 245.619 140.381 245.103 143.052L247.067 143.432ZM250.207 137.803C251.853 136.283 253.701 135.548 255.787 135.548V133.548C253.169 133.548 250.845 134.493 248.851 136.333L250.207 137.803ZM255.787 135.548C258.023 135.548 259.503 136.088 260.422 136.986L261.82 135.554C260.387 134.156 258.311 133.548 255.787 133.548V135.548ZM260.44 137.002C261.418 137.912 261.927 139.105 261.927 140.68H263.927C263.927 138.615 263.232 136.868 261.802 135.538L260.44 137.002ZM261.927 140.68C261.927 141.268 261.854 141.858 261.705 142.453L263.645 142.939C263.832 142.19 263.927 141.436 263.927 140.68H261.927ZM261.705 142.453C261.373 143.782 260.817 144.924 260.044 145.896L261.61 147.14C262.573 145.928 263.249 144.522 263.645 142.939L261.705 142.453ZM260.042 145.898C259.258 146.892 258.037 148.119 256.349 149.585L257.661 151.095C259.389 149.593 260.716 148.272 261.612 147.138L260.042 145.898ZM256.349 149.585C254.56 151.139 253.173 152.846 252.21 154.711L253.988 155.629C254.817 154.022 256.034 152.509 257.661 151.095L256.349 149.585ZM253.546 154.276L252.538 153.772L251.644 155.56L252.652 156.064L253.546 154.276ZM252.996 155.091C253.777 153.43 255.264 151.666 257.55 149.815L256.292 148.261C253.874 150.218 252.141 152.206 251.186 154.241L252.996 155.091ZM257.556 149.811C260.023 147.784 261.698 145.487 262.496 142.908L260.586 142.316C259.928 144.441 258.523 146.428 256.286 148.265L257.556 149.811ZM262.514 142.841C262.647 142.277 262.709 141.666 262.709 141.016H260.709C260.709 141.542 260.659 141.995 260.568 142.383L262.514 142.841ZM250.932 159.066C250.717 158.836 250.613 158.577 250.613 158.236H248.613C248.613 159.071 248.901 159.82 249.47 160.43L250.932 159.066ZM250.613 158.236C250.613 157.895 250.717 157.636 250.932 157.406L249.47 156.042C248.901 156.652 248.613 157.401 248.613 158.236H250.613ZM250.908 157.431C251.143 157.197 251.393 157.094 251.713 157.094V155.094C250.857 155.094 250.099 155.411 249.494 156.017L250.908 157.431ZM251.713 157.094C252.033 157.094 252.283 157.197 252.518 157.431L253.932 156.017C253.327 155.411 252.569 155.094 251.713 155.094V157.094ZM252.518 157.431C252.752 157.666 252.855 157.916 252.855 158.236H254.855C254.855 157.38 254.537 156.622 253.932 156.017L252.518 157.431ZM252.855 158.236C252.855 158.556 252.752 158.806 252.518 159.041L253.932 160.455C254.537 159.85 254.855 159.092 254.855 158.236H252.855ZM252.543 159.017C252.313 159.232 252.054 159.336 251.713 159.336V161.336C252.548 161.336 253.297 161.048 253.907 160.479L252.543 159.017ZM251.713 159.336C251.372 159.336 251.113 159.232 250.883 159.017L249.519 160.479C250.129 161.048 250.878 161.336 251.713 161.336V159.336ZM273.8 150.802L274.782 150.991L274.938 150.179L274.171 149.873L273.8 150.802ZM273.59 151.894L273.884 152.85L274.459 152.673L274.572 152.083L273.59 151.894ZM270.104 153.28L270.504 154.197L270.506 154.196L270.104 153.28ZM265.064 157.396V158.396H265.884L266.045 157.592L265.064 157.396ZM264.182 157.396L263.199 157.217L262.984 158.396H264.182V157.396ZM266.072 154.708L266.695 155.491L266.7 155.486L266.072 154.708ZM272.834 151.306L273.133 152.26L275.848 151.41L273.198 150.375L272.834 151.306ZM266.996 147.274L266.102 147.721L266.11 147.738L266.119 147.754L266.996 147.274ZM266.744 145.3V144.3H265.964L265.774 145.057L266.744 145.3ZM267.626 145.3L268.607 145.496L268.846 144.3H267.626V145.3ZM266.584 145.72C266.584 147.021 267.364 148.134 268.505 149.067C269.656 150.007 271.317 150.889 273.43 151.731L274.171 149.873C272.139 149.063 270.693 148.272 269.771 147.518C268.841 146.757 268.584 146.155 268.584 145.72H266.584ZM272.818 150.613L272.608 151.705L274.572 152.083L274.782 150.991L272.818 150.613ZM273.296 150.938C272.509 151.181 271.301 151.663 269.703 152.364L270.506 154.196C272.1 153.497 273.216 153.055 273.884 152.85L273.296 150.938ZM269.704 152.363C268.121 153.054 266.84 153.776 265.902 154.542C264.971 155.302 264.288 156.181 264.084 157.2L266.045 157.592C266.121 157.211 266.417 156.704 267.167 156.092C267.909 155.486 269.007 154.85 270.504 154.197L269.704 152.363ZM265.064 156.396H264.182V158.396H265.064V156.396ZM265.166 157.575C265.274 156.982 265.703 156.279 266.695 155.491L265.45 153.925C264.258 154.873 263.427 155.962 263.199 157.217L265.166 157.575ZM266.7 155.486C268.314 154.185 270.446 153.102 273.133 152.26L272.536 150.352C269.678 151.246 267.303 152.431 265.445 153.93L266.7 155.486ZM273.198 150.375C270.158 149.186 268.506 147.95 267.874 146.794L266.119 147.754C267.111 149.566 269.351 151.018 272.47 152.237L273.198 150.375ZM267.891 146.827C267.698 146.441 267.66 146.225 267.66 146.14H265.66C265.66 146.671 265.847 147.211 266.102 147.721L267.891 146.827ZM267.66 146.14C267.66 145.852 267.685 145.66 267.715 145.543L265.774 145.057C265.692 145.388 265.66 145.756 265.66 146.14H267.66ZM266.744 146.3H267.626V144.3H266.744V146.3ZM266.646 145.104C266.605 145.307 266.584 145.513 266.584 145.72H268.584C268.584 145.647 268.592 145.573 268.607 145.496L266.646 145.104Z" fill="#F2E9E4"/>
</g>
<rect x="3" y="3" width="292" height="291" rx="145.5" stroke="#C9ADA7" stroke-width="6"/>
<defs>
<clipPath id="clip0_23_2">
<rect width="264" height="133" fill="white" transform="translate(17 82)"/>
</clipPath>
</defs>
</svg>
