<svg width="298" height="297" viewBox="0 0 298 297" fill="none" xmlns="http://www.w3.org/2000/svg">
<rect x="0.5" y="0.5" width="297" height="296" rx="148" fill="#22223B"/>
<path d="M38.718 159.425L24.718 153.545V150.78L38.718 144.865V147.315L27.028 152.145L38.718 156.975V159.425ZM50.1986 161.28C48.9152 161.28 47.8419 161.14 46.9786 160.86C46.1386 160.58 45.4736 160.102 44.9836 159.425C44.4936 158.725 44.1436 157.78 43.9336 156.59C43.7236 155.4 43.6186 153.907 43.6186 152.11C43.6186 150.29 43.7119 148.785 43.8986 147.595C44.1086 146.382 44.4586 145.437 44.9486 144.76C45.4386 144.083 46.1036 143.605 46.9436 143.325C47.7836 143.022 48.8452 142.87 50.1286 142.87C51.0852 142.87 51.9369 142.952 52.6836 143.115C53.4302 143.255 54.0719 143.512 54.6086 143.885C55.1686 144.258 55.6119 144.772 55.9386 145.425H56.1136V134.995H58.9836V161H56.4286L56.2886 158.445H56.0786C55.7519 159.262 55.2736 159.88 54.6436 160.3C54.0369 160.697 53.3486 160.953 52.5786 161.07C51.8086 161.21 51.0152 161.28 50.1986 161.28ZM51.3186 158.76C52.5086 158.76 53.4536 158.597 54.1536 158.27C54.8536 157.943 55.3436 157.43 55.6236 156.73C55.8569 156.077 55.9969 155.365 56.0436 154.595C56.0902 153.825 56.1136 152.915 56.1136 151.865C56.1136 151.002 56.0902 150.22 56.0436 149.52C55.9969 148.797 55.8686 148.167 55.6586 147.63C55.3552 146.837 54.8536 146.277 54.1536 145.95C53.4536 145.6 52.4852 145.425 51.2486 145.425C50.1986 145.425 49.3586 145.495 48.7286 145.635C48.0986 145.775 47.6202 146.078 47.2936 146.545C46.9669 146.988 46.7452 147.653 46.6286 148.54C46.5119 149.403 46.4536 150.582 46.4536 152.075C46.4536 153.568 46.5119 154.758 46.6286 155.645C46.7452 156.532 46.9669 157.197 47.2936 157.64C47.6202 158.083 48.0986 158.387 48.7286 158.55C49.3819 158.69 50.2452 158.76 51.3186 158.76ZM69.9681 161.28C68.6614 161.28 67.5648 161.128 66.6781 160.825C65.8148 160.522 65.1614 159.997 64.7181 159.25C64.2981 158.503 64.0881 157.453 64.0881 156.1C64.0881 154.747 64.2398 153.685 64.5431 152.915C64.8698 152.122 65.4298 151.562 66.2231 151.235C67.0164 150.908 68.1248 150.745 69.5481 150.745C69.7814 150.745 70.1431 150.757 70.6331 150.78C71.1464 150.78 71.7298 150.792 72.3831 150.815C73.0364 150.815 73.6898 150.827 74.3431 150.85C75.0198 150.85 75.6381 150.862 76.1981 150.885V149.765C76.1981 148.715 76.1281 147.898 75.9881 147.315C75.8714 146.708 75.6148 146.265 75.2181 145.985C74.8214 145.682 74.2614 145.495 73.5381 145.425C72.8381 145.332 71.9048 145.285 70.7381 145.285C70.2248 145.285 69.6181 145.308 68.9181 145.355C68.2181 145.378 67.5298 145.425 66.8531 145.495C66.1998 145.542 65.6748 145.6 65.2781 145.67V143.36C66.1648 143.197 67.1564 143.08 68.2531 143.01C69.3731 142.917 70.5281 142.87 71.7181 142.87C72.9781 142.87 74.0398 142.952 74.9031 143.115C75.7898 143.255 76.5014 143.488 77.0381 143.815C77.5981 144.142 78.0181 144.573 78.2981 145.11C78.5781 145.647 78.7648 146.3 78.8581 147.07C78.9748 147.84 79.0331 148.738 79.0331 149.765V161H76.4781L76.3731 158.48H76.1631C75.7898 159.297 75.2531 159.915 74.5531 160.335C73.8764 160.732 73.1298 160.988 72.3131 161.105C71.4964 161.222 70.7148 161.28 69.9681 161.28ZM71.0181 158.935C71.6948 158.935 72.3248 158.9 72.9081 158.83C73.4914 158.737 74.0048 158.573 74.4481 158.34C74.8914 158.107 75.2414 157.757 75.4981 157.29C75.7548 156.8 75.9298 156.275 76.0231 155.715C76.1398 155.132 76.1981 154.455 76.1981 153.685V152.775H70.2481C69.3381 152.775 68.6381 152.845 68.1481 152.985C67.6581 153.125 67.3198 153.417 67.1331 153.86C66.9698 154.303 66.8881 154.968 66.8881 155.855C66.8881 156.718 66.9931 157.372 67.2031 157.815C67.4131 158.258 67.8098 158.562 68.3931 158.725C68.9998 158.865 69.8748 158.935 71.0181 158.935ZM85.2748 161V143.15H87.8298L87.9698 146.58H88.1798C88.4832 145.577 88.9148 144.807 89.4748 144.27C90.0348 143.733 90.7115 143.372 91.5048 143.185C92.2982 142.975 93.1732 142.87 94.1298 142.87V145.67C92.5198 145.67 91.2832 145.927 90.4198 146.44C89.5565 146.953 88.9615 147.747 88.6348 148.82C88.3082 149.893 88.1448 151.247 88.1448 152.88V161H85.2748ZM98.3014 161V134.995H101.171V150.745H103.411L109.711 143.15H112.931L105.686 151.795L113.036 161H109.711L103.411 153.195H101.171V161H98.3014ZM121.685 161.28C120.401 161.28 119.328 161.14 118.465 160.86C117.625 160.58 116.96 160.102 116.47 159.425C115.98 158.725 115.63 157.78 115.42 156.59C115.21 155.4 115.105 153.907 115.105 152.11C115.105 150.29 115.198 148.785 115.385 147.595C115.595 146.382 115.945 145.437 116.435 144.76C116.925 144.083 117.59 143.605 118.43 143.325C119.27 143.022 120.331 142.87 121.615 142.87C122.571 142.87 123.423 142.952 124.17 143.115C124.916 143.255 125.558 143.512 126.095 143.885C126.655 144.258 127.098 144.772 127.425 145.425H127.6V134.995H130.47V161H127.915L127.775 158.445H127.565C127.238 159.262 126.76 159.88 126.13 160.3C125.523 160.697 124.835 160.953 124.065 161.07C123.295 161.21 122.501 161.28 121.685 161.28ZM122.805 158.76C123.995 158.76 124.94 158.597 125.64 158.27C126.34 157.943 126.83 157.43 127.11 156.73C127.343 156.077 127.483 155.365 127.53 154.595C127.576 153.825 127.6 152.915 127.6 151.865C127.6 151.002 127.576 150.22 127.53 149.52C127.483 148.797 127.355 148.167 127.145 147.63C126.841 146.837 126.34 146.277 125.64 145.95C124.94 145.6 123.971 145.425 122.735 145.425C121.685 145.425 120.845 145.495 120.215 145.635C119.585 145.775 119.106 146.078 118.78 146.545C118.453 146.988 118.231 147.653 118.115 148.54C117.998 149.403 117.94 150.582 117.94 152.075C117.94 153.568 117.998 154.758 118.115 155.645C118.231 156.532 118.453 157.197 118.78 157.64C119.106 158.083 119.585 158.387 120.215 158.55C120.868 158.69 121.731 158.76 122.805 158.76ZM143.939 161.28C142.493 161.28 141.279 161.187 140.299 161C139.343 160.813 138.573 160.51 137.989 160.09C137.406 159.647 136.963 159.075 136.659 158.375C136.356 157.652 136.158 156.777 136.064 155.75C135.971 154.723 135.924 153.51 135.924 152.11C135.924 150.453 135.994 149.042 136.134 147.875C136.274 146.685 136.589 145.728 137.079 145.005C137.593 144.258 138.386 143.722 139.459 143.395C140.533 143.045 141.979 142.87 143.799 142.87C145.176 142.87 146.296 142.975 147.159 143.185C148.046 143.395 148.746 143.722 149.259 144.165C149.773 144.608 150.146 145.203 150.379 145.95C150.636 146.673 150.799 147.548 150.869 148.575C150.939 149.578 150.974 150.745 150.974 152.075V153.02H138.759C138.759 154.233 138.818 155.225 138.934 155.995C139.051 156.765 139.284 157.36 139.634 157.78C140.008 158.2 140.579 158.492 141.349 158.655C142.143 158.818 143.216 158.9 144.569 158.9C145.129 158.9 145.748 158.888 146.424 158.865C147.101 158.818 147.778 158.76 148.454 158.69C149.131 158.62 149.738 158.55 150.274 158.48V160.79C149.784 160.883 149.178 160.965 148.454 161.035C147.754 161.105 147.008 161.163 146.214 161.21C145.444 161.257 144.686 161.28 143.939 161.28ZM148.209 151.585V150.64C148.209 149.427 148.139 148.47 147.999 147.77C147.859 147.047 147.614 146.51 147.264 146.16C146.938 145.787 146.483 145.542 145.899 145.425C145.316 145.308 144.593 145.25 143.729 145.25C142.609 145.25 141.723 145.332 141.069 145.495C140.416 145.635 139.926 145.903 139.599 146.3C139.273 146.697 139.051 147.268 138.934 148.015C138.818 148.762 138.759 149.753 138.759 150.99H148.874L148.209 151.585ZM160.865 161L154.32 143.15H157.295L162.545 158.025H162.825L168.04 143.15H170.98L164.435 161H160.865ZM175.05 138.11V134.995H178.095V138.11H175.05ZM175.12 161V143.15H177.99V161H175.12ZM184.181 161V134.995H187.051V161H184.181ZM191.283 161L198.038 151.935L191.528 143.15H194.783L199.718 149.8H199.928L204.898 143.15H208.013L201.538 151.9L208.293 161H205.003L199.823 154.07H199.613L194.433 161H191.283ZM219.384 168.21C218.708 168.21 217.996 168.187 217.249 168.14C216.526 168.117 215.826 168.082 215.149 168.035C214.496 168.012 213.913 167.965 213.399 167.895V165.62C214.169 165.643 214.869 165.667 215.499 165.69C216.153 165.737 216.748 165.76 217.284 165.76C217.844 165.783 218.346 165.795 218.789 165.795C220.143 165.795 221.204 165.69 221.974 165.48C222.768 165.27 223.351 164.92 223.724 164.43C224.098 163.963 224.331 163.333 224.424 162.54C224.541 161.747 224.599 160.778 224.599 159.635V158.585H224.389C224.203 159.052 223.888 159.483 223.444 159.88C223.001 160.277 222.394 160.592 221.624 160.825C220.854 161.058 219.851 161.175 218.614 161.175C217.308 161.175 216.246 161.047 215.429 160.79C214.636 160.51 214.029 160.09 213.609 159.53C213.189 158.947 212.898 158.223 212.734 157.36C212.594 156.497 212.524 155.47 212.524 154.28V143.15H215.394V153.265C215.394 154.478 215.441 155.447 215.534 156.17C215.628 156.893 215.826 157.442 216.129 157.815C216.456 158.165 216.911 158.398 217.494 158.515C218.078 158.632 218.836 158.69 219.769 158.69C220.936 158.69 221.846 158.55 222.499 158.27C223.153 157.967 223.619 157.535 223.899 156.975C224.203 156.415 224.389 155.75 224.459 154.98C224.553 154.187 224.599 153.3 224.599 152.32V143.15H227.434V158.795C227.434 160.498 227.341 161.945 227.154 163.135C226.991 164.348 226.629 165.317 226.069 166.04C225.533 166.787 224.728 167.335 223.654 167.685C222.581 168.035 221.158 168.21 219.384 168.21ZM244.444 154.105V151.305C244.444 150.418 244.526 149.742 244.689 149.275C244.876 148.808 245.156 148.447 245.529 148.19C245.926 147.933 246.427 147.7 247.034 147.49L248.294 147.07C249.134 146.767 249.752 146.487 250.149 146.23C250.546 145.95 250.814 145.553 250.954 145.04C251.094 144.527 251.164 143.803 251.164 142.87C251.164 141.75 251.001 140.933 250.674 140.42C250.371 139.907 249.846 139.58 249.099 139.44C248.376 139.3 247.372 139.23 246.089 139.23C245.739 139.23 245.331 139.242 244.864 139.265C244.421 139.288 243.942 139.323 243.429 139.37C242.916 139.393 242.402 139.428 241.889 139.475C241.376 139.522 240.874 139.58 240.384 139.65V137.2C241.061 137.083 241.796 136.99 242.589 136.92C243.382 136.827 244.164 136.757 244.934 136.71C245.727 136.663 246.451 136.64 247.104 136.64C248.364 136.64 249.437 136.745 250.324 136.955C251.234 137.165 251.969 137.515 252.529 138.005C253.089 138.472 253.497 139.102 253.754 139.895C254.034 140.665 254.174 141.622 254.174 142.765C254.174 143.512 254.127 144.2 254.034 144.83C253.964 145.437 253.824 145.985 253.614 146.475C253.404 146.942 253.101 147.35 252.704 147.7C252.331 148.027 251.852 148.295 251.269 148.505L250.009 148.925C249.332 149.158 248.796 149.368 248.399 149.555C248.002 149.718 247.711 149.893 247.524 150.08C247.361 150.243 247.244 150.465 247.174 150.745C247.127 151.025 247.104 151.41 247.104 151.9V154.105H244.444ZM244.129 161V157.57H247.454V161H244.129ZM259.281 159.425V156.975L270.971 152.145L259.281 147.315V144.865L273.281 150.78V153.545L259.281 159.425Z" fill="#9A8C98"/>
<path d="M38.718 159.425L38.3308 160.347L39.718 160.93V159.425H38.718ZM24.718 153.545H23.718V154.21L24.3308 154.467L24.718 153.545ZM24.718 150.78L24.3288 149.859L23.718 150.117V150.78H24.718ZM38.718 144.865H39.718V143.357L38.3288 143.944L38.718 144.865ZM38.718 147.315L39.0999 148.239L39.718 147.984V147.315H38.718ZM27.028 152.145L26.6461 151.221L24.4093 152.145L26.6461 153.069L27.028 152.145ZM38.718 156.975H39.718V156.306L39.0999 156.051L38.718 156.975ZM39.1052 158.503L25.1052 152.623L24.3308 154.467L38.3308 160.347L39.1052 158.503ZM25.718 153.545V150.78H23.718V153.545H25.718ZM25.1072 151.701L39.1072 145.786L38.3288 143.944L24.3288 149.859L25.1072 151.701ZM37.718 144.865V147.315H39.718V144.865H37.718ZM38.3361 146.391L26.6461 151.221L27.4099 153.069L39.0999 148.239L38.3361 146.391ZM26.6461 153.069L38.3361 157.899L39.0999 156.051L27.4099 151.221L26.6461 153.069ZM37.718 156.975V159.425H39.718V156.975H37.718ZM46.9786 160.86L46.6623 161.809L46.6701 161.811L46.9786 160.86ZM44.9836 159.425L44.1643 159.998L44.1689 160.005L44.1736 160.012L44.9836 159.425ZM43.9336 156.59L42.9488 156.764L42.9488 156.764L43.9336 156.59ZM43.8986 147.595L42.9132 147.424L42.9119 147.432L42.9106 147.44L43.8986 147.595ZM44.9486 144.76L45.7585 145.347L45.7585 145.347L44.9486 144.76ZM46.9436 143.325L47.2598 144.274L47.2715 144.27L47.2832 144.266L46.9436 143.325ZM52.6836 143.115L52.4699 144.092L52.4845 144.095L52.4993 144.098L52.6836 143.115ZM54.6086 143.885L54.0375 144.706L54.0456 144.712L54.0539 144.717L54.6086 143.885ZM55.9386 145.425L55.0441 145.872L55.3205 146.425H55.9386V145.425ZM56.1136 145.425V146.425H57.1136V145.425H56.1136ZM56.1136 134.995V133.995H55.1136V134.995H56.1136ZM58.9836 134.995H59.9836V133.995H58.9836V134.995ZM58.9836 161V162H59.9836V161H58.9836ZM56.4286 161L55.4301 161.055L55.4819 162H56.4286V161ZM56.2886 158.445L57.2871 158.39L57.2353 157.445H56.2886V158.445ZM56.0786 158.445V157.445H55.4015L55.1501 158.074L56.0786 158.445ZM54.6436 160.3L55.1908 161.137L55.1983 161.132L54.6436 160.3ZM52.5786 161.07L52.4288 160.081L52.4142 160.083L52.3997 160.086L52.5786 161.07ZM54.1536 158.27L54.5764 159.176L54.5764 159.176L54.1536 158.27ZM55.6236 156.73L56.552 157.101L56.559 157.084L56.5653 157.066L55.6236 156.73ZM56.0436 154.595L55.0454 154.535L55.0454 154.535L56.0436 154.595ZM56.0436 149.52L55.0456 149.584L55.0458 149.587L56.0436 149.52ZM55.6586 147.63L54.7245 147.987L54.7273 147.994L55.6586 147.63ZM54.1536 145.95L53.7063 146.844L53.7184 146.85L53.7307 146.856L54.1536 145.95ZM48.7286 145.635L48.9455 146.611L48.9455 146.611L48.7286 145.635ZM47.2936 146.545L48.0986 147.138L48.1058 147.128L48.1128 147.118L47.2936 146.545ZM46.6286 148.54L47.6196 148.674L47.62 148.67L46.6286 148.54ZM46.6286 155.645L47.62 155.515L47.62 155.515L46.6286 155.645ZM47.2936 157.64L46.4885 158.233L46.4885 158.233L47.2936 157.64ZM48.7286 158.55L48.4776 159.518L48.4982 159.523L48.519 159.528L48.7286 158.55ZM50.1986 160.28C48.9803 160.28 48.0189 160.146 47.2871 159.909L46.6701 161.811C47.6648 162.134 48.8502 162.28 50.1986 162.28V160.28ZM47.2948 159.911C46.6406 159.693 46.1533 159.335 45.7935 158.838L44.1736 160.012C44.7938 160.868 45.6365 161.467 46.6623 161.809L47.2948 159.911ZM45.8028 158.852C45.4237 158.31 45.1128 157.518 44.9183 156.416L42.9488 156.764C43.1743 158.042 43.5634 159.14 44.1643 159.998L45.8028 158.852ZM44.9183 156.416C44.7221 155.304 44.6186 153.874 44.6186 152.11H42.6186C42.6186 153.94 42.7251 155.496 42.9488 156.764L44.9183 156.416ZM44.6186 152.11C44.6186 150.319 44.7108 148.87 44.8865 147.75L42.9106 147.44C42.713 148.7 42.6186 150.261 42.6186 152.11H44.6186ZM44.8839 147.766C45.0792 146.637 45.3901 145.855 45.7585 145.347L44.1386 144.173C43.527 145.018 43.1379 146.126 42.9132 147.424L44.8839 147.766ZM45.7585 145.347C46.1183 144.85 46.6056 144.492 47.2598 144.274L46.6273 142.376C45.6015 142.718 44.7588 143.317 44.1386 144.173L45.7585 145.347ZM47.2832 144.266C47.9779 144.015 48.9148 143.87 50.1286 143.87V141.87C48.7757 141.87 47.5892 142.029 46.6039 142.384L47.2832 144.266ZM50.1286 143.87C51.0305 143.87 51.8083 143.947 52.4699 144.092L52.8973 142.138C52.0654 141.956 51.14 141.87 50.1286 141.87V143.87ZM52.4993 144.098C53.1294 144.216 53.6342 144.425 54.0375 144.706L55.1796 143.064C54.5096 142.598 53.7311 142.294 52.8678 142.132L52.4993 144.098ZM54.0539 144.717C54.4568 144.986 54.7885 145.361 55.0441 145.872L56.833 144.978C56.4353 144.182 55.8803 143.531 55.1633 143.053L54.0539 144.717ZM55.9386 146.425H56.1136V144.425H55.9386V146.425ZM57.1136 145.425V134.995H55.1136V145.425H57.1136ZM56.1136 135.995H58.9836V133.995H56.1136V135.995ZM57.9836 134.995V161H59.9836V134.995H57.9836ZM58.9836 160H56.4286V162H58.9836V160ZM57.4271 160.945L57.2871 158.39L55.2901 158.5L55.4301 161.055L57.4271 160.945ZM56.2886 157.445H56.0786V159.445H56.2886V157.445ZM55.1501 158.074C54.8861 158.734 54.5246 159.177 54.0889 159.468L55.1983 161.132C56.0225 160.583 56.6177 159.79 57.007 158.816L55.1501 158.074ZM54.0963 159.463C53.6185 159.775 53.0676 159.984 52.4288 160.081L52.7284 162.059C53.6295 161.922 54.4553 161.618 55.1908 161.137L54.0963 159.463ZM52.3997 160.086C51.6912 160.215 50.9578 160.28 50.1986 160.28V162.28C51.0726 162.28 51.9259 162.205 52.7574 162.054L52.3997 160.086ZM51.3186 159.76C52.5834 159.76 53.6919 159.589 54.5764 159.176L53.7307 157.364C53.2152 157.604 52.4337 157.76 51.3186 157.76V159.76ZM54.5764 159.176C55.5005 158.745 56.1751 158.044 56.552 157.101L54.6951 156.359C54.512 156.816 54.2066 157.142 53.7307 157.364L54.5764 159.176ZM56.5653 157.066C56.8337 156.315 56.99 155.509 57.0417 154.655L55.0454 154.535C55.0038 155.221 54.8801 155.838 54.6818 156.394L56.5653 157.066ZM57.0417 154.655C57.09 153.86 57.1136 152.929 57.1136 151.865H55.1136C55.1136 152.901 55.0905 153.79 55.0454 154.535L57.0417 154.655ZM57.1136 151.865C57.1136 150.984 57.0898 150.18 57.0413 149.453L55.0458 149.587C55.0907 150.26 55.1136 151.019 55.1136 151.865H57.1136ZM57.0415 149.456C56.9898 148.655 56.8456 147.919 56.5898 147.266L54.7273 147.994C54.8915 148.414 55.004 148.939 55.0456 149.584L57.0415 149.456ZM56.5926 147.273C56.2067 146.263 55.536 145.492 54.5764 145.044L53.7307 146.856C54.1711 147.062 54.5038 147.41 54.7245 147.987L56.5926 147.273ZM54.6008 145.056C53.7043 144.607 52.5597 144.425 51.2486 144.425V146.425C52.4108 146.425 53.2029 146.593 53.7063 146.844L54.6008 145.056ZM51.2486 144.425C50.1649 144.425 49.2431 144.496 48.5116 144.659L48.9455 146.611C49.4741 146.494 50.2322 146.425 51.2486 146.425V144.425ZM48.5116 144.659C47.6724 144.845 46.9636 145.273 46.4743 145.972L48.1128 147.118C48.2768 146.884 48.5247 146.705 48.9455 146.611L48.5116 144.659ZM46.4885 145.952C46.0176 146.591 45.7635 147.449 45.6371 148.41L47.62 148.67C47.7269 147.858 47.9162 147.386 48.0986 147.138L46.4885 145.952ZM45.6376 148.406C45.5121 149.334 45.4536 150.564 45.4536 152.075H47.4536C47.4536 150.6 47.5116 149.473 47.6195 148.674L45.6376 148.406ZM45.4536 152.075C45.4536 153.587 45.5122 154.826 45.6371 155.775L47.62 155.515C47.5115 154.69 47.4536 153.549 47.4536 152.075H45.4536ZM45.6371 155.775C45.7635 156.736 46.0176 157.594 46.4885 158.233L48.0986 157.047C47.9162 156.799 47.7269 156.327 47.62 155.515L45.6371 155.775ZM46.4885 158.233C46.9751 158.894 47.6675 159.308 48.4776 159.518L48.9795 157.582C48.5296 157.465 48.2653 157.273 48.0986 157.047L46.4885 158.233ZM48.519 159.528C49.2698 159.689 50.2117 159.76 51.3186 159.76V157.76C50.2788 157.76 49.494 157.691 48.9381 157.572L48.519 159.528ZM66.6781 160.825L66.3466 161.768L66.3544 161.771L66.6781 160.825ZM64.7181 159.25L63.8465 159.74L63.8523 159.75L63.8582 159.761L64.7181 159.25ZM64.5431 152.915L63.6184 152.534L63.6155 152.541L63.6127 152.548L64.5431 152.915ZM66.2231 151.235L65.8423 150.31L66.2231 151.235ZM70.6331 150.78L70.5855 151.779L70.6093 151.78H70.6331V150.78ZM72.3831 150.815L72.3474 151.814L72.3652 151.815H72.3831V150.815ZM74.3431 150.85L74.3074 151.849L74.3252 151.85H74.3431V150.85ZM76.1981 150.885L76.1565 151.884L77.1981 151.928V150.885H76.1981ZM75.9881 147.315L75.0061 147.504L75.0104 147.526L75.0157 147.548L75.9881 147.315ZM75.2181 145.985L74.6106 146.779L74.6258 146.791L74.6414 146.802L75.2181 145.985ZM73.5381 145.425L73.4059 146.416L73.4238 146.419L73.4418 146.42L73.5381 145.425ZM68.9181 145.355L68.9514 146.354L68.968 146.354L68.9846 146.353L68.9181 145.355ZM66.8531 145.495L66.9243 146.492L66.9402 146.491L66.956 146.49L66.8531 145.495ZM65.2781 145.67H64.2781V146.862L65.4519 146.655L65.2781 145.67ZM65.2781 143.36L65.0969 142.377L64.2781 142.527V143.36H65.2781ZM68.2531 143.01L68.3168 144.008L68.3265 144.007L68.3361 144.007L68.2531 143.01ZM74.9031 143.115L74.7172 144.098L74.7321 144.1L74.7471 144.103L74.9031 143.115ZM77.0381 143.815L76.5181 144.669L76.5261 144.674L76.5342 144.679L77.0381 143.815ZM78.2981 145.11L77.4115 145.573L78.2981 145.11ZM78.8581 147.07L77.8654 147.19L77.8671 147.205L77.8694 147.22L78.8581 147.07ZM79.0331 161V162H80.0331V161H79.0331ZM76.4781 161L75.479 161.042L75.5189 162H76.4781V161ZM76.3731 158.48L77.3722 158.438L77.3323 157.48H76.3731V158.48ZM76.1631 158.48V157.48H75.5207L75.2536 158.064L76.1631 158.48ZM74.5531 160.335L75.0588 161.198L75.0676 161.192L74.5531 160.335ZM72.3131 161.105L72.1717 160.115L72.3131 161.105ZM72.9081 158.83L73.0272 159.823L73.0467 159.821L73.0661 159.817L72.9081 158.83ZM74.4481 158.34L73.9823 157.455L73.9823 157.455L74.4481 158.34ZM75.4981 157.29L76.3743 157.772L76.3792 157.763L76.3839 157.754L75.4981 157.29ZM76.0231 155.715L75.0425 155.519L75.0393 155.535L75.0367 155.551L76.0231 155.715ZM76.1981 152.775H77.1981V151.775H76.1981V152.775ZM68.1481 152.985L67.8734 152.023L67.8734 152.023L68.1481 152.985ZM67.1331 153.86L66.2115 153.472L66.2026 153.493L66.1947 153.514L67.1331 153.86ZM68.3931 158.725L68.1235 159.688L68.1457 159.694L68.1682 159.699L68.3931 158.725ZM69.9681 160.28C68.7315 160.28 67.7521 160.136 67.0018 159.879L66.3544 161.771C67.3774 162.121 68.5914 162.28 69.9681 162.28V160.28ZM67.0096 159.882C66.3548 159.651 65.8946 159.273 65.5779 158.739L63.8582 159.761C64.4282 160.721 65.2747 161.392 66.3466 161.768L67.0096 159.882ZM65.5897 158.76C65.2891 158.225 65.0881 157.372 65.0881 156.1H63.0881C63.0881 157.535 63.3071 158.781 63.8465 159.74L65.5897 158.76ZM65.0881 156.1C65.0881 154.803 65.2361 153.884 65.4735 153.282L63.6127 152.548C63.2434 153.486 63.0881 154.691 63.0881 156.1H65.0881ZM65.4678 153.296C65.6929 152.749 66.0571 152.385 66.6038 152.16L65.8423 150.31C64.8024 150.739 64.0466 151.494 63.6184 152.534L65.4678 153.296ZM66.6038 152.16C67.2225 151.905 68.1806 151.745 69.5481 151.745V149.745C68.0689 149.745 66.8104 149.912 65.8423 150.31L66.6038 152.16ZM69.5481 151.745C69.7563 151.745 70.0981 151.756 70.5855 151.779L70.6807 149.781C70.1881 149.758 69.8066 149.745 69.5481 149.745V151.745ZM70.6331 151.78C71.1318 151.78 71.7029 151.791 72.3474 151.814L72.4188 149.816C71.7566 149.792 71.161 149.78 70.6331 149.78V151.78ZM72.3831 151.815C73.0245 151.815 73.6659 151.826 74.3074 151.849L74.3788 149.851C73.7136 149.827 73.0483 149.815 72.3831 149.815V151.815ZM74.3431 151.85C75.0086 151.85 75.6128 151.861 76.1565 151.884L76.2397 149.886C75.6634 149.862 75.0309 149.85 74.3431 149.85V151.85ZM77.1981 150.885V149.765H75.1981V150.885H77.1981ZM77.1981 149.765C77.1981 148.686 77.1275 147.778 76.9605 147.082L75.0157 147.548C75.1286 148.019 75.1981 148.744 75.1981 149.765H77.1981ZM76.9701 147.126C76.8185 146.338 76.4559 145.635 75.7948 145.168L74.6414 146.802C74.7736 146.895 74.9244 147.079 75.0061 147.504L76.9701 147.126ZM75.8255 145.191C75.2277 144.734 74.4638 144.51 73.6344 144.43L73.4418 146.42C74.0591 146.48 74.4151 146.63 74.6106 146.779L75.8255 145.191ZM73.6703 144.434C72.9075 144.332 71.9245 144.285 70.7381 144.285V146.285C71.885 146.285 72.7687 146.331 73.4059 146.416L73.6703 144.434ZM70.7381 144.285C70.1962 144.285 69.5663 144.31 68.8516 144.357L68.9846 146.353C69.6699 146.307 70.2533 146.285 70.7381 146.285V144.285ZM68.8848 144.356C68.1622 144.38 67.4507 144.428 66.7502 144.5L66.956 146.49C67.6088 146.422 68.274 146.377 68.9514 146.354L68.8848 144.356ZM66.7818 144.498C66.1125 144.545 65.5492 144.607 65.1043 144.685L65.4519 146.655C65.8003 146.593 66.287 146.538 66.9243 146.492L66.7818 144.498ZM66.2781 145.67V143.36H64.2781V145.67H66.2781ZM65.4592 144.343C66.2998 144.189 67.2513 144.076 68.3168 144.008L68.1894 142.012C67.0615 142.084 66.0297 142.205 65.0969 142.377L65.4592 144.343ZM68.3361 144.007C69.427 143.916 70.5542 143.87 71.7181 143.87V141.87C70.502 141.87 69.3192 141.918 68.17 142.013L68.3361 144.007ZM71.7181 143.87C72.9401 143.87 73.9352 143.95 74.7172 144.098L75.089 142.132C74.1443 141.954 73.0161 141.87 71.7181 141.87V143.87ZM74.7471 144.103C75.5558 144.23 76.1298 144.433 76.5181 144.669L77.558 142.961C76.873 142.544 76.0237 142.28 75.0591 142.127L74.7471 144.103ZM76.5342 144.679C76.9434 144.917 77.2249 145.215 77.4115 145.573L79.1847 144.647C78.8112 143.932 78.2527 143.366 77.542 142.951L76.5342 144.679ZM77.4115 145.573C77.6226 145.977 77.7826 146.508 77.8654 147.19L79.8508 146.95C79.7469 146.092 79.5336 145.316 79.1847 144.647L77.4115 145.573ZM77.8694 147.22C77.9766 147.927 78.0331 148.774 78.0331 149.765H80.0331C80.0331 148.703 79.9729 147.753 79.8468 146.92L77.8694 147.22ZM78.0331 149.765V161H80.0331V149.765H78.0331ZM79.0331 160H76.4781V162H79.0331V160ZM77.4772 160.958L77.3722 158.438L75.374 158.522L75.479 161.042L77.4772 160.958ZM76.3731 157.48H76.1631V159.48H76.3731V157.48ZM75.2536 158.064C74.9555 158.716 74.5481 159.172 74.0386 159.478L75.0676 161.192C75.9581 160.658 76.624 159.877 77.0726 158.896L75.2536 158.064ZM74.0474 159.472C73.4885 159.8 72.8665 160.016 72.1717 160.115L72.4545 162.095C73.393 161.961 74.2644 161.663 75.0588 161.198L74.0474 159.472ZM72.1717 160.115C71.397 160.226 70.6628 160.28 69.9681 160.28V162.28C70.7667 162.28 71.5958 162.218 72.4545 162.095L72.1717 160.115ZM71.0181 159.935C71.7287 159.935 72.399 159.898 73.0272 159.823L72.7889 157.837C72.2505 157.902 71.6608 157.935 71.0181 157.935V159.935ZM73.0661 159.817C73.7381 159.71 74.3587 159.517 74.9138 159.225L73.9823 157.455C73.6508 157.63 73.2447 157.763 72.7501 157.843L73.0661 159.817ZM74.9138 159.225C75.5416 158.894 76.0295 158.399 76.3743 157.772L74.6219 156.808C74.4533 157.114 74.2412 157.319 73.9823 157.455L74.9138 159.225ZM76.3839 157.754C76.6911 157.168 76.8992 156.541 77.0095 155.879L75.0367 155.551C74.9603 156.009 74.8184 156.432 74.6123 156.826L76.3839 157.754ZM77.0037 155.911C77.1364 155.248 77.1981 154.503 77.1981 153.685H75.1981C75.1981 154.407 75.1431 155.016 75.0425 155.519L77.0037 155.911ZM77.1981 153.685V152.775H75.1981V153.685H77.1981ZM76.1981 151.775H70.2481V153.775H76.1981V151.775ZM70.2481 151.775C69.3058 151.775 68.4966 151.845 67.8734 152.023L68.4228 153.947C68.7796 153.845 69.3704 153.775 70.2481 153.775V151.775ZM67.8734 152.023C67.1119 152.241 66.5235 152.731 66.2115 153.472L68.0547 154.248C68.116 154.103 68.2043 154.009 68.4228 153.947L67.8734 152.023ZM66.1947 153.514C65.9691 154.127 65.8881 154.935 65.8881 155.855H67.8881C67.8881 155.002 67.9704 154.48 68.0714 154.206L66.1947 153.514ZM65.8881 155.855C65.8881 156.77 65.9948 157.6 66.2993 158.243L68.1068 157.387C67.9914 157.143 67.8881 156.666 67.8881 155.855H65.8881ZM66.2993 158.243C66.6617 159.008 67.3323 159.466 68.1235 159.688L68.6627 157.762C68.2872 157.657 68.1644 157.509 68.1068 157.387L66.2993 158.243ZM68.1682 159.699C68.8861 159.865 69.8508 159.935 71.0181 159.935V157.935C69.8988 157.935 69.1135 157.865 68.6179 157.751L68.1682 159.699ZM85.2748 161H84.2748V162H85.2748V161ZM85.2748 143.15V142.15H84.2748V143.15H85.2748ZM87.8298 143.15L88.829 143.109L88.7899 142.15H87.8298V143.15ZM87.9698 146.58L86.9707 146.621L87.0098 147.58H87.9698V146.58ZM88.1798 146.58V147.58H88.9222L89.1371 146.869L88.1798 146.58ZM89.4748 144.27L90.1668 144.992L90.1668 144.992L89.4748 144.27ZM91.5048 143.185L91.7339 144.158L91.7474 144.155L91.7607 144.152L91.5048 143.185ZM94.1298 142.87H95.1298V141.87H94.1298V142.87ZM94.1298 145.67V146.67H95.1298V145.67H94.1298ZM90.4198 146.44L90.9309 147.3L90.9309 147.3L90.4198 146.44ZM88.1448 161V162H89.1448V161H88.1448ZM86.2748 161V143.15H84.2748V161H86.2748ZM85.2748 144.15H87.8298V142.15H85.2748V144.15ZM86.8307 143.191L86.9707 146.621L88.969 146.539L88.829 143.109L86.8307 143.191ZM87.9698 147.58H88.1798V145.58H87.9698V147.58ZM89.1371 146.869C89.4074 145.975 89.767 145.375 90.1668 144.992L88.7829 143.548C88.0627 144.238 87.5589 145.178 87.2226 146.291L89.1371 146.869ZM90.1668 144.992C90.591 144.585 91.1053 144.306 91.7339 144.158L91.2758 142.212C90.3177 142.437 89.4786 142.881 88.7829 143.548L90.1668 144.992ZM91.7607 144.152C92.4581 143.967 93.2457 143.87 94.1298 143.87V141.87C93.1007 141.87 92.1382 141.983 91.249 142.218L91.7607 144.152ZM93.1298 142.87V145.67H95.1298V142.87H93.1298ZM94.1298 144.67C92.438 144.67 90.9935 144.935 89.9088 145.58L90.9309 147.3C91.5729 146.918 92.6017 146.67 94.1298 146.67V144.67ZM89.9088 145.58C88.8057 146.236 88.0682 147.247 87.6782 148.529L89.5915 149.111C89.8548 148.246 90.3073 147.67 90.9309 147.3L89.9088 145.58ZM87.6782 148.529C87.313 149.729 87.1448 151.189 87.1448 152.88H89.1448C89.1448 151.305 89.3034 150.058 89.5915 149.111L87.6782 148.529ZM87.1448 152.88V161H89.1448V152.88H87.1448ZM88.1448 160H85.2748V162H88.1448V160ZM98.3014 161H97.3014V162H98.3014V161ZM98.3014 134.995V133.995H97.3014V134.995H98.3014ZM101.171 134.995H102.171V133.995H101.171V134.995ZM101.171 150.745H100.171V151.745H101.171V150.745ZM103.411 150.745V151.745H103.881L104.181 151.383L103.411 150.745ZM109.711 143.15V142.15H109.242L108.942 142.512L109.711 143.15ZM112.931 143.15L113.698 143.792L115.074 142.15H112.931V143.15ZM105.686 151.795L104.92 151.153L104.395 151.78L104.905 152.419L105.686 151.795ZM113.036 161V162H115.115L113.818 160.376L113.036 161ZM109.711 161L108.933 161.628L109.233 162H109.711V161ZM103.411 153.195L104.19 152.567L103.889 152.195H103.411V153.195ZM101.171 153.195V152.195H100.171V153.195H101.171ZM101.171 161V162H102.171V161H101.171ZM99.3014 161V134.995H97.3014V161H99.3014ZM98.3014 135.995H101.171V133.995H98.3014V135.995ZM100.171 134.995V150.745H102.171V134.995H100.171ZM101.171 151.745H103.411V149.745H101.171V151.745ZM104.181 151.383L110.481 143.788L108.942 142.512L102.642 150.107L104.181 151.383ZM109.711 144.15H112.931V142.15H109.711V144.15ZM112.165 142.508L104.92 151.153L106.453 152.437L113.698 143.792L112.165 142.508ZM104.905 152.419L112.255 161.624L113.818 160.376L106.468 151.171L104.905 152.419ZM113.036 160H109.711V162H113.036V160ZM110.49 160.372L104.19 152.567L102.633 153.823L108.933 161.628L110.49 160.372ZM103.411 152.195H101.171V154.195H103.411V152.195ZM100.171 153.195V161H102.171V153.195H100.171ZM101.171 160H98.3014V162H101.171V160ZM118.465 160.86L118.148 161.809L118.156 161.811L118.465 160.86ZM116.47 159.425L115.65 159.998L115.655 160.005L115.66 160.012L116.47 159.425ZM115.42 156.59L114.435 156.764L114.435 156.764L115.42 156.59ZM115.385 147.595L114.399 147.424L114.398 147.432L114.397 147.44L115.385 147.595ZM116.435 144.76L117.245 145.347L117.245 145.347L116.435 144.76ZM118.43 143.325L118.746 144.274L118.758 144.27L118.769 144.266L118.43 143.325ZM124.17 143.115L123.956 144.092L123.971 144.095L123.985 144.098L124.17 143.115ZM126.095 143.885L125.524 144.706L125.532 144.712L125.54 144.717L126.095 143.885ZM127.425 145.425L126.53 145.872L126.807 146.425H127.425V145.425ZM127.6 145.425V146.425H128.6V145.425H127.6ZM127.6 134.995V133.995H126.6V134.995H127.6ZM130.47 134.995H131.47V133.995H130.47V134.995ZM130.47 161V162H131.47V161H130.47ZM127.915 161L126.916 161.055L126.968 162H127.915V161ZM127.775 158.445L128.773 158.39L128.721 157.445H127.775V158.445ZM127.565 158.445V157.445H126.888L126.636 158.074L127.565 158.445ZM126.13 160.3L126.677 161.137L126.684 161.132L126.13 160.3ZM124.065 161.07L123.915 160.081L123.9 160.083L123.886 160.086L124.065 161.07ZM125.64 158.27L126.063 159.176L126.063 159.176L125.64 158.27ZM127.11 156.73L128.038 157.101L128.045 157.084L128.051 157.066L127.11 156.73ZM127.53 154.595L126.532 154.535L126.532 154.535L127.53 154.595ZM127.53 149.52L126.532 149.584L126.532 149.587L127.53 149.52ZM127.145 147.63L126.211 147.987L126.213 147.994L127.145 147.63ZM125.64 145.95L125.192 146.844L125.205 146.85L125.217 146.856L125.64 145.95ZM120.215 145.635L120.432 146.611L120.432 146.611L120.215 145.635ZM118.78 146.545L119.585 147.138L119.592 147.128L119.599 147.118L118.78 146.545ZM118.115 148.54L119.106 148.674L119.106 148.67L118.115 148.54ZM118.115 155.645L119.106 155.515L119.106 155.515L118.115 155.645ZM118.78 157.64L117.975 158.233L117.975 158.233L118.78 157.64ZM120.215 158.55L119.964 159.518L119.984 159.523L120.005 159.528L120.215 158.55ZM121.685 160.28C120.466 160.28 119.505 160.146 118.773 159.909L118.156 161.811C119.151 162.134 120.336 162.28 121.685 162.28V160.28ZM118.781 159.911C118.127 159.693 117.639 159.335 117.28 158.838L115.66 160.012C116.28 160.868 117.123 161.467 118.148 161.809L118.781 159.911ZM117.289 158.852C116.91 158.31 116.599 157.518 116.404 156.416L114.435 156.764C114.66 158.042 115.05 159.14 115.65 159.998L117.289 158.852ZM116.404 156.416C116.208 155.304 116.105 153.874 116.105 152.11H114.105C114.105 153.94 114.211 155.496 114.435 156.764L116.404 156.416ZM116.105 152.11C116.105 150.319 116.197 148.87 116.373 147.75L114.397 147.44C114.199 148.7 114.105 150.261 114.105 152.11H116.105ZM116.37 147.766C116.565 146.637 116.876 145.855 117.245 145.347L115.625 144.173C115.013 145.018 114.624 146.126 114.399 147.424L116.37 147.766ZM117.245 145.347C117.604 144.85 118.092 144.492 118.746 144.274L118.113 142.376C117.088 142.718 116.245 143.317 115.625 144.173L117.245 145.347ZM118.769 144.266C119.464 144.015 120.401 143.87 121.615 143.87V141.87C120.262 141.87 119.075 142.029 118.09 142.384L118.769 144.266ZM121.615 143.87C122.517 143.87 123.294 143.947 123.956 144.092L124.383 142.138C123.552 141.956 122.626 141.87 121.615 141.87V143.87ZM123.985 144.098C124.615 144.216 125.12 144.425 125.524 144.706L126.666 143.064C125.996 142.598 125.217 142.294 124.354 142.132L123.985 144.098ZM125.54 144.717C125.943 144.986 126.275 145.361 126.53 145.872L128.319 144.978C127.921 144.182 127.366 143.531 126.649 143.053L125.54 144.717ZM127.425 146.425H127.6V144.425H127.425V146.425ZM128.6 145.425V134.995H126.6V145.425H128.6ZM127.6 135.995H130.47V133.995H127.6V135.995ZM129.47 134.995V161H131.47V134.995H129.47ZM130.47 160H127.915V162H130.47V160ZM128.913 160.945L128.773 158.39L126.776 158.5L126.916 161.055L128.913 160.945ZM127.775 157.445H127.565V159.445H127.775V157.445ZM126.636 158.074C126.372 158.734 126.011 159.177 125.575 159.468L126.684 161.132C127.509 160.583 128.104 159.79 128.493 158.816L126.636 158.074ZM125.582 159.463C125.105 159.775 124.554 159.984 123.915 160.081L124.214 162.059C125.116 161.922 125.941 161.618 126.677 161.137L125.582 159.463ZM123.886 160.086C123.177 160.215 122.444 160.28 121.685 160.28V162.28C122.559 162.28 123.412 162.205 124.244 162.054L123.886 160.086ZM122.805 159.76C124.07 159.76 125.178 159.589 126.063 159.176L125.217 157.364C124.701 157.604 123.92 157.76 122.805 157.76V159.76ZM126.063 159.176C126.987 158.745 127.661 158.044 128.038 157.101L126.181 156.359C125.998 156.816 125.693 157.142 125.217 157.364L126.063 159.176ZM128.051 157.066C128.32 156.315 128.476 155.509 128.528 154.655L126.532 154.535C126.49 155.221 126.366 155.838 126.168 156.394L128.051 157.066ZM128.528 154.655C128.576 153.86 128.6 152.929 128.6 151.865H126.6C126.6 152.901 126.577 153.79 126.532 154.535L128.528 154.655ZM128.6 151.865C128.6 150.984 128.576 150.18 128.527 149.453L126.532 149.587C126.577 150.26 126.6 151.019 126.6 151.865H128.6ZM128.528 149.456C128.476 148.655 128.332 147.919 128.076 147.266L126.213 147.994C126.378 148.414 126.49 148.939 126.532 149.584L128.528 149.456ZM128.079 147.273C127.693 146.263 127.022 145.492 126.063 145.044L125.217 146.856C125.657 147.062 125.99 147.41 126.211 147.987L128.079 147.273ZM126.087 145.056C125.19 144.607 124.046 144.425 122.735 144.425V146.425C123.897 146.425 124.689 146.593 125.192 146.844L126.087 145.056ZM122.735 144.425C121.651 144.425 120.729 144.496 119.998 144.659L120.432 146.611C120.96 146.494 121.718 146.425 122.735 146.425V144.425ZM119.998 144.659C119.159 144.845 118.45 145.273 117.96 145.972L119.599 147.118C119.763 146.884 120.011 146.705 120.432 146.611L119.998 144.659ZM117.975 145.952C117.504 146.591 117.25 147.449 117.123 148.41L119.106 148.67C119.213 147.858 119.402 147.386 119.585 147.138L117.975 145.952ZM117.124 148.406C116.998 149.334 116.94 150.564 116.94 152.075H118.94C118.94 150.6 118.998 149.473 119.106 148.674L117.124 148.406ZM116.94 152.075C116.94 153.587 116.998 154.826 117.123 155.775L119.106 155.515C118.998 154.69 118.94 153.549 118.94 152.075H116.94ZM117.123 155.775C117.25 156.736 117.504 157.594 117.975 158.233L119.585 157.047C119.402 156.799 119.213 156.327 119.106 155.515L117.123 155.775ZM117.975 158.233C118.461 158.894 119.154 159.308 119.964 159.518L120.466 157.582C120.016 157.465 119.751 157.273 119.585 157.047L117.975 158.233ZM120.005 159.528C120.756 159.689 121.698 159.76 122.805 159.76V157.76C121.765 157.76 120.98 157.691 120.424 157.572L120.005 159.528ZM140.299 161L140.108 161.982L140.112 161.982L140.299 161ZM137.989 160.09L137.384 160.886L137.394 160.894L137.405 160.902L137.989 160.09ZM136.659 158.375L135.737 158.762L135.742 158.773L136.659 158.375ZM136.134 147.875L137.127 147.994L137.127 147.992L136.134 147.875ZM137.079 145.005L136.255 144.438L136.251 144.444L137.079 145.005ZM139.459 143.395L139.75 144.352L139.76 144.349L139.769 144.346L139.459 143.395ZM147.159 143.185L146.923 144.157L146.929 144.158L147.159 143.185ZM149.259 144.165L149.913 143.408L149.913 143.408L149.259 144.165ZM150.379 145.95L149.425 146.248L149.43 146.266L149.437 146.284L150.379 145.95ZM150.869 148.575L149.872 148.643L149.872 148.645L150.869 148.575ZM150.974 153.02V154.02H151.974V153.02H150.974ZM138.759 153.02V152.02H137.759V153.02H138.759ZM138.934 155.995L137.946 156.145L137.946 156.145L138.934 155.995ZM139.634 157.78L138.866 158.42L138.876 158.432L138.887 158.444L139.634 157.78ZM141.349 158.655L141.142 159.633L141.148 159.634L141.349 158.655ZM146.424 158.865L146.459 159.864L146.476 159.864L146.493 159.863L146.424 158.865ZM148.454 158.69L148.557 159.685L148.557 159.685L148.454 158.69ZM150.274 158.48H151.274V157.341L150.145 157.488L150.274 158.48ZM150.274 160.79L150.461 161.772L151.274 161.618V160.79H150.274ZM148.454 161.035L148.358 160.04L148.355 160.04L148.454 161.035ZM146.214 161.21L146.156 160.212L146.154 160.212L146.214 161.21ZM148.209 151.585H147.209V153.822L148.876 152.33L148.209 151.585ZM147.999 147.77L147.017 147.96L147.019 147.966L147.999 147.77ZM147.264 146.16L146.512 146.819L146.534 146.844L146.557 146.867L147.264 146.16ZM141.069 145.495L141.279 146.473L141.295 146.469L141.312 146.465L141.069 145.495ZM139.599 146.3L138.827 145.664L138.827 145.664L139.599 146.3ZM138.759 150.99H137.759V151.99H138.759V150.99ZM148.874 150.99L149.541 151.735L151.492 149.99H148.874V150.99ZM143.939 160.28C142.53 160.28 141.384 160.189 140.486 160.018L140.112 161.982C141.175 162.185 142.455 162.28 143.939 162.28V160.28ZM140.491 160.019C139.628 159.85 139.006 159.59 138.574 159.278L137.405 160.902C138.139 161.43 139.057 161.776 140.108 161.981L140.491 160.019ZM138.594 159.294C138.153 158.959 137.815 158.527 137.577 157.977L135.742 158.773C136.11 159.623 136.658 160.335 137.384 160.886L138.594 159.294ZM137.581 157.988C137.328 157.384 137.147 156.614 137.06 155.659L135.068 155.841C135.168 156.939 135.384 157.92 135.737 158.762L137.581 157.988ZM137.06 155.659C136.97 154.671 136.924 153.49 136.924 152.11H134.924C134.924 153.53 134.971 154.775 135.068 155.841L137.06 155.659ZM136.924 152.11C136.924 150.478 136.993 149.109 137.127 147.994L135.141 147.756C134.995 148.974 134.924 150.428 134.924 152.11H136.924ZM137.127 147.992C137.255 146.905 137.534 146.117 137.907 145.566L136.251 144.444C135.644 145.34 135.293 146.465 135.141 147.758L137.127 147.992ZM137.903 145.572C138.26 145.053 138.841 144.629 139.75 144.352L139.168 142.438C137.931 142.815 136.925 143.464 136.255 144.438L137.903 145.572ZM139.769 144.346C140.7 144.042 142.028 143.87 143.799 143.87V141.87C141.93 141.87 140.365 142.048 139.149 142.444L139.769 144.346ZM143.799 143.87C145.135 143.87 146.167 143.973 146.923 144.157L147.396 142.213C146.425 141.977 145.217 141.87 143.799 141.87V143.87ZM146.929 144.158C147.71 144.343 148.248 144.613 148.606 144.922L149.913 143.408C149.243 142.83 148.381 142.447 147.39 142.212L146.929 144.158ZM148.606 144.922C148.957 145.226 149.238 145.652 149.425 146.248L151.334 145.652C151.053 144.755 150.588 143.991 149.913 143.408L148.606 144.922ZM149.437 146.284C149.655 146.898 149.806 147.678 149.872 148.643L151.867 148.507C151.793 147.418 151.617 146.448 151.322 145.616L149.437 146.284ZM149.872 148.645C149.94 149.619 149.974 150.761 149.974 152.075H151.974C151.974 150.729 151.939 149.538 151.867 148.505L149.872 148.645ZM149.974 152.075V153.02H151.974V152.075H149.974ZM150.974 152.02H138.759V154.02H150.974V152.02ZM137.759 153.02C137.759 154.259 137.818 155.306 137.946 156.145L139.923 155.845C139.817 155.144 139.759 154.208 139.759 153.02H137.759ZM137.946 156.145C138.079 157.023 138.36 157.813 138.866 158.42L140.402 157.14C140.209 156.907 140.023 156.507 139.923 155.845L137.946 156.145ZM138.887 158.444C139.449 159.077 140.244 159.443 141.142 159.633L141.557 157.677C140.914 157.54 140.566 157.323 140.382 157.116L138.887 158.444ZM141.148 159.634C142.037 159.817 143.187 159.9 144.569 159.9V157.9C143.245 157.9 142.248 157.819 141.551 157.676L141.148 159.634ZM144.569 159.9C145.143 159.9 145.773 159.888 146.459 159.864L146.39 157.866C145.722 157.889 145.116 157.9 144.569 157.9V159.9ZM146.493 159.863C147.181 159.815 147.869 159.756 148.557 159.685L148.351 157.695C147.686 157.764 147.021 157.821 146.355 157.867L146.493 159.863ZM148.557 159.685C149.24 159.614 149.856 159.543 150.404 159.472L150.145 157.488C149.619 157.557 149.021 157.626 148.351 157.695L148.557 159.685ZM149.274 158.48V160.79H151.274V158.48H149.274ZM150.087 159.808C149.637 159.893 149.063 159.971 148.358 160.04L148.551 162.03C149.292 161.959 149.931 161.873 150.461 161.772L150.087 159.808ZM148.355 160.04C147.67 160.108 146.937 160.166 146.156 160.212L146.273 162.208C147.078 162.161 147.839 162.102 148.554 162.03L148.355 160.04ZM146.154 160.212C145.403 160.257 144.665 160.28 143.939 160.28V162.28C144.707 162.28 145.485 162.256 146.275 162.208L146.154 160.212ZM149.209 151.585V150.64H147.209V151.585H149.209ZM149.209 150.64C149.209 149.4 149.139 148.368 148.98 147.574L147.019 147.966C147.14 148.572 147.209 149.454 147.209 150.64H149.209ZM148.981 147.58C148.821 146.751 148.516 145.997 147.971 145.453L146.557 146.867C146.713 147.023 146.898 147.342 147.017 147.96L148.981 147.58ZM148.017 145.501C147.518 144.931 146.85 144.595 146.095 144.444L145.703 146.406C146.115 146.488 146.357 146.642 146.512 146.819L148.017 145.501ZM146.095 144.444C145.426 144.31 144.632 144.25 143.729 144.25V146.25C144.553 146.25 145.206 146.306 145.703 146.406L146.095 144.444ZM143.729 144.25C142.574 144.25 141.594 144.333 140.827 144.525L141.312 146.465C141.851 146.33 142.645 146.25 143.729 146.25V144.25ZM140.86 144.517C140.053 144.69 139.336 145.047 138.827 145.664L140.371 146.936C140.516 146.76 140.779 146.58 141.279 146.473L140.86 144.517ZM138.827 145.664C138.345 146.249 138.078 147.015 137.946 147.861L139.922 148.169C140.023 147.522 140.2 147.144 140.371 146.936L138.827 145.664ZM137.946 147.861C137.818 148.68 137.759 149.73 137.759 150.99H139.759C139.759 149.777 139.817 148.843 139.922 148.169L137.946 147.861ZM138.759 151.99H148.874V149.99H138.759V151.99ZM148.207 150.245L147.542 150.84L148.876 152.33L149.541 151.735L148.207 150.245ZM160.865 161L159.926 161.344L160.167 162H160.865V161ZM154.32 143.15V142.15H152.888L153.381 143.494L154.32 143.15ZM157.295 143.15L158.238 142.817L158.003 142.15H157.295V143.15ZM162.545 158.025L161.602 158.358L161.837 159.025H162.545V158.025ZM162.825 158.025V159.025H163.534L163.769 158.356L162.825 158.025ZM168.04 143.15V142.15H167.331L167.096 142.819L168.04 143.15ZM170.98 143.15L171.919 143.494L172.412 142.15H170.98V143.15ZM164.435 161V162H165.133L165.374 161.344L164.435 161ZM161.804 160.656L155.259 142.806L153.381 143.494L159.926 161.344L161.804 160.656ZM154.32 144.15H157.295V142.15H154.32V144.15ZM156.352 143.483L161.602 158.358L163.488 157.692L158.238 142.817L156.352 143.483ZM162.545 159.025H162.825V157.025H162.545V159.025ZM163.769 158.356L168.984 143.481L167.096 142.819L161.881 157.694L163.769 158.356ZM168.04 144.15H170.98V142.15H168.04V144.15ZM170.041 142.806L163.496 160.656L165.374 161.344L171.919 143.494L170.041 142.806ZM164.435 160H160.865V162H164.435V160ZM175.05 138.11H174.05V139.11H175.05V138.11ZM175.05 134.995V133.995H174.05V134.995H175.05ZM178.095 134.995H179.095V133.995H178.095V134.995ZM178.095 138.11V139.11H179.095V138.11H178.095ZM175.12 161H174.12V162H175.12V161ZM175.12 143.15V142.15H174.12V143.15H175.12ZM177.99 143.15H178.99V142.15H177.99V143.15ZM177.99 161V162H178.99V161H177.99ZM176.05 138.11V134.995H174.05V138.11H176.05ZM175.05 135.995H178.095V133.995H175.05V135.995ZM177.095 134.995V138.11H179.095V134.995H177.095ZM178.095 137.11H175.05V139.11H178.095V137.11ZM176.12 161V143.15H174.12V161H176.12ZM175.12 144.15H177.99V142.15H175.12V144.15ZM176.99 143.15V161H178.99V143.15H176.99ZM177.99 160H175.12V162H177.99V160ZM184.181 161H183.181V162H184.181V161ZM184.181 134.995V133.995H183.181V134.995H184.181ZM187.051 134.995H188.051V133.995H187.051V134.995ZM187.051 161V162H188.051V161H187.051ZM185.181 161V134.995H183.181V161H185.181ZM184.181 135.995H187.051V133.995H184.181V135.995ZM186.051 134.995V161H188.051V134.995H186.051ZM187.051 160H184.181V162H187.051V160ZM191.283 161L190.481 160.402L189.291 162H191.283V161ZM198.038 151.935L198.84 152.533L199.284 151.937L198.841 151.34L198.038 151.935ZM191.528 143.15V142.15H189.542L190.725 143.745L191.528 143.15ZM194.783 143.15L195.586 142.554L195.286 142.15H194.783V143.15ZM199.718 149.8L198.915 150.396L199.215 150.8H199.718V149.8ZM199.928 149.8V150.8H200.429L200.729 150.399L199.928 149.8ZM204.898 143.15V142.15H204.397L204.097 142.551L204.898 143.15ZM208.013 143.15L208.817 143.745L209.997 142.15H208.013V143.15ZM201.538 151.9L200.734 151.305L200.293 151.901L200.735 152.496L201.538 151.9ZM208.293 161V162H210.281L209.096 160.404L208.293 161ZM205.003 161L204.202 161.599L204.502 162H205.003V161ZM199.823 154.07L200.624 153.471L200.324 153.07H199.823V154.07ZM199.613 154.07V153.07H199.112L198.812 153.471L199.613 154.07ZM194.433 161V162H194.934L195.234 161.599L194.433 161ZM192.085 161.598L198.84 152.533L197.236 151.337L190.481 160.402L192.085 161.598ZM198.841 151.34L192.331 142.555L190.725 143.745L197.235 152.53L198.841 151.34ZM191.528 144.15H194.783V142.15H191.528V144.15ZM193.98 143.746L198.915 150.396L200.521 149.204L195.586 142.554L193.98 143.746ZM199.718 150.8H199.928V148.8H199.718V150.8ZM200.729 150.399L205.699 143.749L204.097 142.551L199.127 149.201L200.729 150.399ZM204.898 144.15H208.013V142.15H204.898V144.15ZM207.209 142.555L200.734 151.305L202.342 152.495L208.817 143.745L207.209 142.555ZM200.735 152.496L207.49 161.596L209.096 160.404L202.341 151.304L200.735 152.496ZM208.293 160H205.003V162H208.293V160ZM205.804 160.401L200.624 153.471L199.022 154.669L204.202 161.599L205.804 160.401ZM199.823 153.07H199.613V155.07H199.823V153.07ZM198.812 153.471L193.632 160.401L195.234 161.599L200.414 154.669L198.812 153.471ZM194.433 160H191.283V162H194.433V160ZM217.249 168.14L217.312 167.142L217.297 167.141L217.282 167.141L217.249 168.14ZM215.149 168.035L215.218 167.037L215.202 167.036L215.185 167.036L215.149 168.035ZM213.399 167.895H212.399V168.768L213.264 168.886L213.399 167.895ZM213.399 165.62L213.43 164.62L212.399 164.589V165.62H213.399ZM215.499 165.69L215.571 164.693L215.554 164.691L215.536 164.691L215.499 165.69ZM217.284 165.76L217.326 164.761L217.305 164.76H217.284V165.76ZM221.974 165.48L221.719 164.513L221.711 164.515L221.974 165.48ZM223.724 164.43L222.944 163.805L222.936 163.815L222.929 163.824L223.724 164.43ZM224.424 162.54L223.435 162.395L223.433 162.409L223.431 162.423L224.424 162.54ZM224.599 158.585H225.599V157.585H224.599V158.585ZM224.389 158.585V157.585H223.712L223.461 158.214L224.389 158.585ZM223.444 159.88L224.111 160.625L224.111 160.625L223.444 159.88ZM221.624 160.825L221.334 159.868L221.624 160.825ZM215.429 160.79L215.097 161.733L215.113 161.739L215.13 161.744L215.429 160.79ZM213.609 159.53L212.798 160.114L212.804 160.122L212.809 160.13L213.609 159.53ZM212.734 157.36L211.747 157.52L211.749 157.533L211.752 157.546L212.734 157.36ZM212.524 143.15V142.15H211.524V143.15H212.524ZM215.394 143.15H216.394V142.15H215.394V143.15ZM215.534 156.17L214.543 156.298L214.543 156.298L215.534 156.17ZM216.129 157.815L215.353 158.446L215.375 158.472L215.398 158.497L216.129 157.815ZM217.494 158.515L217.298 159.496L217.494 158.515ZM222.499 158.27L222.893 159.189L222.907 159.183L222.921 159.177L222.499 158.27ZM223.899 156.975L223.02 156.499L223.012 156.513L223.005 156.528L223.899 156.975ZM224.459 154.98L223.466 154.863L223.465 154.876L223.464 154.889L224.459 154.98ZM224.599 143.15V142.15H223.599V143.15H224.599ZM227.434 143.15H228.434V142.15H227.434V143.15ZM227.154 163.135L226.167 162.98L226.165 162.991L226.163 163.002L227.154 163.135ZM226.069 166.04L225.279 165.428L225.268 165.442L225.257 165.456L226.069 166.04ZM219.384 167.21C218.731 167.21 218.04 167.187 217.312 167.142L217.187 169.138C217.952 169.186 218.685 169.21 219.384 169.21V167.21ZM217.282 167.141C216.57 167.118 215.882 167.083 215.218 167.037L215.081 169.033C215.77 169.08 216.482 169.116 217.217 169.139L217.282 167.141ZM215.185 167.036C214.557 167.013 214.008 166.969 213.535 166.904L213.264 168.886C213.818 168.961 214.435 169.01 215.114 169.034L215.185 167.036ZM214.399 167.895V165.62H212.399V167.895H214.399ZM213.369 166.62C214.137 166.643 214.835 166.666 215.462 166.689L215.536 164.691C214.904 164.667 214.202 164.644 213.43 164.62L213.369 166.62ZM215.428 166.687C216.1 166.735 216.72 166.76 217.284 166.76V164.76C216.776 164.76 216.205 164.738 215.571 164.693L215.428 166.687ZM217.243 166.759C217.813 166.783 218.329 166.795 218.789 166.795V164.795C218.363 164.795 217.876 164.784 217.326 164.761L217.243 166.759ZM218.789 166.795C220.179 166.795 221.343 166.689 222.238 166.445L221.711 164.515C221.066 164.691 220.106 164.795 218.789 164.795V166.795ZM222.23 166.447C223.167 166.199 223.973 165.754 224.52 165.036L222.929 163.824C222.729 164.086 222.368 164.341 221.719 164.513L222.23 166.447ZM224.505 165.055C225.029 164.401 225.31 163.575 225.418 162.657L223.431 162.423C223.353 163.092 223.167 163.526 222.944 163.805L224.505 165.055ZM225.414 162.685C225.54 161.828 225.599 160.808 225.599 159.635H223.599C223.599 160.748 223.542 161.665 223.435 162.395L225.414 162.685ZM225.599 159.635V158.585H223.599V159.635H225.599ZM224.599 157.585H224.389V159.585H224.599V157.585ZM223.461 158.214C223.341 158.513 223.127 158.822 222.778 159.135L224.111 160.625C224.649 160.145 225.064 159.59 225.318 158.956L223.461 158.214ZM222.778 159.135C222.474 159.406 222.011 159.663 221.334 159.868L221.914 161.782C222.777 161.521 223.528 161.147 224.111 160.625L222.778 159.135ZM221.334 159.868C220.695 160.062 219.8 160.175 218.614 160.175V162.175C219.903 162.175 221.014 162.055 221.914 161.782L221.334 159.868ZM218.614 160.175C217.362 160.175 216.412 160.051 215.729 159.836L215.13 161.744C216.08 162.043 217.254 162.175 218.614 162.175V160.175ZM215.762 159.847C215.117 159.619 214.689 159.303 214.409 158.93L212.809 160.13C213.37 160.877 214.155 161.401 215.097 161.733L215.762 159.847ZM214.421 158.946C214.103 158.504 213.859 157.925 213.717 157.174L211.752 157.546C211.936 158.522 212.276 159.389 212.798 160.114L214.421 158.946ZM213.722 157.2C213.593 156.405 213.524 155.434 213.524 154.28H211.524C211.524 155.506 211.596 156.589 211.747 157.52L213.722 157.2ZM213.524 154.28V143.15H211.524V154.28H213.524ZM212.524 144.15H215.394V142.15H212.524V144.15ZM214.394 143.15V153.265H216.394V143.15H214.394ZM214.394 153.265C214.394 154.497 214.441 155.514 214.543 156.298L216.526 156.042C216.441 155.38 216.394 154.46 216.394 153.265H214.394ZM214.543 156.298C214.648 157.117 214.887 157.872 215.353 158.446L216.906 157.184C216.765 157.012 216.607 156.669 216.526 156.042L214.543 156.298ZM215.398 158.497C215.899 159.034 216.56 159.348 217.298 159.496L217.691 157.534C217.262 157.449 217.013 157.296 216.861 157.133L215.398 158.497ZM217.298 159.496C217.972 159.63 218.803 159.69 219.769 159.69V157.69C218.869 157.69 218.184 157.633 217.691 157.534L217.298 159.496ZM219.769 159.69C220.996 159.69 222.061 159.546 222.893 159.189L222.106 157.351C221.631 157.554 220.877 157.69 219.769 157.69V159.69ZM222.921 159.177C223.747 158.793 224.398 158.214 224.794 157.422L223.005 156.528C222.841 156.856 222.559 157.14 222.078 157.363L222.921 159.177ZM224.779 157.451C225.159 156.749 225.376 155.947 225.455 155.071L223.464 154.889C223.403 155.553 223.247 156.081 223.02 156.499L224.779 157.451ZM225.453 155.097C225.551 154.257 225.599 153.331 225.599 152.32H223.599C223.599 153.269 223.554 154.116 223.466 154.863L225.453 155.097ZM225.599 152.32V143.15H223.599V152.32H225.599ZM224.599 144.15H227.434V142.15H224.599V144.15ZM226.434 143.15V158.795H228.434V143.15H226.434ZM226.434 158.795C226.434 160.466 226.343 161.857 226.167 162.98L228.142 163.29C228.34 162.033 228.434 160.531 228.434 158.795H226.434ZM226.163 163.002C226.016 164.097 225.701 164.883 225.279 165.428L226.86 166.652C227.558 165.75 227.966 164.599 228.146 163.268L226.163 163.002ZM225.257 165.456C224.871 165.994 224.263 166.435 223.344 166.734L223.964 168.636C225.193 168.235 226.195 167.579 226.881 166.624L225.257 165.456ZM223.344 166.734C222.411 167.039 221.105 167.21 219.384 167.21V169.21C221.21 169.21 222.751 169.031 223.964 168.636L223.344 166.734ZM244.444 154.105H243.444V155.105H244.444V154.105ZM244.689 149.275L243.76 148.904L243.752 148.924L243.745 148.945L244.689 149.275ZM245.529 148.19L244.986 147.35L244.974 147.358L244.962 147.366L245.529 148.19ZM247.034 147.49L246.718 146.541L246.707 146.545L247.034 147.49ZM248.294 147.07L248.61 148.019L248.622 148.015L248.634 148.011L248.294 147.07ZM250.149 146.23L250.692 147.07L250.709 147.059L250.726 147.047L250.149 146.23ZM250.954 145.04L249.989 144.777L249.989 144.777L250.954 145.04ZM250.674 140.42L249.813 140.929L249.821 140.943L249.83 140.957L250.674 140.42ZM249.099 139.44L248.909 140.422L248.915 140.423L249.099 139.44ZM244.864 139.265L244.814 138.266L244.811 138.266L244.864 139.265ZM243.429 139.37L243.474 140.369L243.497 140.368L243.519 140.366L243.429 139.37ZM241.889 139.475L241.979 140.471L241.979 140.471L241.889 139.475ZM240.384 139.65H239.384V140.803L240.525 140.64L240.384 139.65ZM240.384 137.2L240.214 136.215L239.384 136.358V137.2H240.384ZM242.589 136.92L242.677 137.916L242.691 137.915L242.706 137.913L242.589 136.92ZM244.934 136.71L244.875 135.712L244.873 135.712L244.934 136.71ZM250.324 136.955L250.093 137.928L250.099 137.929L250.324 136.955ZM252.529 138.005L251.87 138.758L251.879 138.766L251.889 138.773L252.529 138.005ZM253.754 139.895L252.802 140.203L252.808 140.22L252.814 140.237L253.754 139.895ZM254.034 144.83L253.045 144.683L253.042 144.699L253.04 144.715L254.034 144.83ZM253.614 146.475L254.526 146.885L254.53 146.877L254.533 146.869L253.614 146.475ZM252.704 147.7L253.362 148.453L253.366 148.45L252.704 147.7ZM251.269 148.505L251.585 149.454L251.596 149.45L251.608 149.446L251.269 148.505ZM250.009 148.925L249.693 147.976L249.683 147.98L250.009 148.925ZM248.399 149.555L248.78 150.48L248.802 150.47L248.825 150.46L248.399 149.555ZM247.524 150.08L248.231 150.787L248.231 150.787L247.524 150.08ZM247.174 150.745L246.204 150.502L246.194 150.541L246.188 150.581L247.174 150.745ZM247.104 154.105V155.105H248.104V154.105H247.104ZM244.129 161H243.129V162H244.129V161ZM244.129 157.57V156.57H243.129V157.57H244.129ZM247.454 157.57H248.454V156.57H247.454V157.57ZM247.454 161V162H248.454V161H247.454ZM245.444 154.105V151.305H243.444V154.105H245.444ZM245.444 151.305C245.444 150.456 245.525 149.913 245.633 149.605L243.745 148.945C243.526 149.57 243.444 150.38 243.444 151.305H245.444ZM245.617 149.646C245.739 149.342 245.902 149.147 246.095 149.014L244.962 147.366C244.409 147.747 244.012 148.274 243.76 148.904L245.617 149.646ZM246.072 149.03C246.382 148.829 246.805 148.627 247.361 148.435L246.707 146.545C246.049 146.773 245.469 147.038 244.986 147.35L246.072 149.03ZM247.35 148.439L248.61 148.019L247.978 146.121L246.718 146.541L247.35 148.439ZM248.634 148.011C249.494 147.7 250.198 147.389 250.692 147.07L249.606 145.39C249.306 145.584 248.774 145.833 247.954 146.129L248.634 148.011ZM250.726 147.047C251.331 146.62 251.724 146.018 251.919 145.303L249.989 144.777C249.904 145.089 249.761 145.28 249.572 145.413L250.726 147.047ZM251.919 145.303C252.093 144.663 252.164 143.836 252.164 142.87H250.164C250.164 143.77 250.095 144.39 249.989 144.777L251.919 145.303ZM252.164 142.87C252.164 141.697 252.001 140.643 251.518 139.883L249.83 140.957C250 141.224 250.164 141.803 250.164 142.87H252.164ZM251.535 139.911C251.047 139.085 250.23 138.635 249.283 138.457L248.915 140.423C249.461 140.525 249.695 140.728 249.813 140.929L251.535 139.911ZM249.289 138.458C248.473 138.3 247.397 138.23 246.089 138.23V140.23C247.348 140.23 248.278 140.3 248.909 140.422L249.289 138.458ZM246.089 138.23C245.718 138.23 245.292 138.242 244.814 138.266L244.914 140.264C245.369 140.241 245.76 140.23 246.089 140.23V138.23ZM244.811 138.266C244.354 138.29 243.862 138.326 243.338 138.374L243.519 140.366C244.022 140.32 244.488 140.286 244.916 140.264L244.811 138.266ZM243.383 138.371C242.855 138.395 242.327 138.431 241.798 138.479L241.979 140.471C242.478 140.426 242.976 140.392 243.474 140.369L243.383 138.371ZM241.798 138.479C241.269 138.527 240.75 138.588 240.242 138.66L240.525 140.64C240.998 140.572 241.482 140.516 241.979 140.471L241.798 138.479ZM241.384 139.65V137.2H239.384V139.65H241.384ZM240.554 138.185C241.199 138.074 241.907 137.984 242.677 137.916L242.501 135.924C241.684 135.996 240.922 136.093 240.214 136.215L240.554 138.185ZM242.706 137.913C243.481 137.822 244.244 137.754 244.994 137.708L244.873 135.712C244.084 135.76 243.283 135.831 242.472 135.927L242.706 137.913ZM244.993 137.708C245.77 137.663 246.474 137.64 247.104 137.64V135.64C246.427 135.64 245.684 135.664 244.875 135.712L244.993 137.708ZM247.104 137.64C248.313 137.64 249.305 137.741 250.093 137.928L250.554 135.982C249.57 135.749 248.414 135.64 247.104 135.64V137.64ZM250.099 137.929C250.889 138.112 251.462 138.4 251.87 138.758L253.187 137.252C252.476 136.63 251.579 136.218 250.549 135.981L250.099 137.929ZM251.889 138.773C252.284 139.102 252.595 139.563 252.802 140.203L254.705 139.587C254.399 138.641 253.894 137.841 253.169 137.237L251.889 138.773ZM252.814 140.237C253.042 140.863 253.174 141.696 253.174 142.765H255.174C255.174 141.548 255.026 140.467 254.694 139.553L252.814 140.237ZM253.174 142.765C253.174 143.471 253.13 144.109 253.045 144.683L255.023 144.977C255.125 144.291 255.174 143.553 255.174 142.765H253.174ZM253.04 144.715C252.98 145.24 252.862 145.692 252.695 146.081L254.533 146.869C254.786 146.278 254.948 145.634 255.027 144.945L253.04 144.715ZM252.702 146.065C252.552 146.397 252.336 146.691 252.042 146.95L253.366 148.45C253.865 148.009 254.255 147.486 254.526 146.885L252.702 146.065ZM252.045 146.947C251.786 147.174 251.424 147.386 250.93 147.564L251.608 149.446C252.28 149.204 252.875 148.879 253.362 148.453L252.045 146.947ZM250.953 147.556L249.693 147.976L250.325 149.874L251.585 149.454L250.953 147.556ZM249.683 147.98C248.991 148.218 248.416 148.442 247.973 148.65L248.825 150.46C249.175 150.295 249.674 150.098 250.335 149.87L249.683 147.98ZM248.018 148.63C247.566 148.816 247.137 149.053 246.817 149.373L248.231 150.787C248.284 150.734 248.438 150.62 248.78 150.48L248.018 148.63ZM246.817 149.373C246.497 149.693 246.307 150.09 246.204 150.502L248.144 150.988C248.181 150.84 248.224 150.794 248.231 150.787L246.817 149.373ZM246.188 150.581C246.128 150.94 246.104 151.388 246.104 151.9H248.104C248.104 151.432 248.127 151.11 248.16 150.909L246.188 150.581ZM246.104 151.9V154.105H248.104V151.9H246.104ZM247.104 153.105H244.444V155.105H247.104V153.105ZM245.129 161V157.57H243.129V161H245.129ZM244.129 158.57H247.454V156.57H244.129V158.57ZM246.454 157.57V161H248.454V157.57H246.454ZM247.454 160H244.129V162H247.454V160ZM259.281 159.425H258.281V160.93L259.669 160.347L259.281 159.425ZM259.281 156.975L258.9 156.051L258.281 156.306V156.975H259.281ZM270.971 152.145L271.353 153.069L273.59 152.145L271.353 151.221L270.971 152.145ZM259.281 147.315H258.281V147.984L258.9 148.239L259.281 147.315ZM259.281 144.865L259.671 143.944L258.281 143.357V144.865H259.281ZM273.281 150.78H274.281V150.117L273.671 149.859L273.281 150.78ZM273.281 153.545L273.669 154.467L274.281 154.21V153.545H273.281ZM260.281 159.425V156.975H258.281V159.425H260.281ZM259.663 157.899L271.353 153.069L270.59 151.221L258.9 156.051L259.663 157.899ZM271.353 151.221L259.663 146.391L258.9 148.239L270.59 153.069L271.353 151.221ZM260.281 147.315V144.865H258.281V147.315H260.281ZM258.892 145.786L272.892 151.701L273.671 149.859L259.671 143.944L258.892 145.786ZM272.281 150.78V153.545H274.281V150.78H272.281ZM272.894 152.623L258.894 158.503L259.669 160.347L273.669 154.467L272.894 152.623Z" fill="#F2E9E4"/>
<rect x="0.5" y="0.5" width="297" height="296" rx="148" stroke="white"/>
</svg>
