<?xml version="1.0" ?><!DOCTYPE svg  PUBLIC '-//W3C//DTD SVG 1.1//EN'  'http://www.w3.org/Graphics/SVG/1.1/DTD/svg11.dtd'><svg enable-background="new 0 0 462.2 400.277" height="400.277px" id="Icons" version="1.1" viewBox="0 0 462.2 400.277" width="462.2px" xml:space="preserve" xmlns="http://www.w3.org/2000/svg" xmlns:xlink="http://www.w3.org/1999/xlink"><g><g><polygon fill="#171515" points="115.55,400.277 0,200.138 115.55,0 346.65,0 462.2,200.138 346.65,400.277   "/></g><g opacity="0.4"><path d="M343.746,384.533c-28.312-6.653-56.445-14.238-83.839-24.052c-13.936-4.993-24.249-9.271-37.301-15.648    c-12.378-6.048-24.288-13.085-36.125-20.118c-17.018-10.111-33.677-20.823-49.957-32.082    c-16.781-11.606-31.169-22.454-46.351-34.968c-15.418-12.709-30.214-26.171-44.275-40.367    c-6.725-6.789-13.23-13.793-19.551-20.959c-3.311-3.753-6.541-7.578-9.725-11.44c-0.209-0.253-0.411-0.511-0.618-0.765    l-9.24,16.005l112.168,194.281h224.336l5.086-8.808C346.818,385.252,345.281,384.894,343.746,384.533z"/></g><g opacity="0.4"><path d="M334.899,9.641c0.426,4.126,1.034,8.243,1.721,12.342c4.023,23.981,12.6,47.607,22.77,69.599    c12.125,26.219,28.474,50.327,47.353,72.137c12.031,13.899,25.78,27.671,40.77,39.167l0.418-0.736L334.899,9.641z" fill="#FFFFFF"/></g><g><path d="M330.667,201.125c0,21.164-6.188,40.207-18.555,57.129c-12.375,16.93-28.488,28.648-48.34,35.156    c-4.234,0.977-6.348-0.488-6.348-4.395V262.16c0-8.133-2.281-14.16-6.836-18.066c13.344-1.625,24.086-5.859,32.227-12.695    c8.133-6.836,12.207-18.715,12.207-35.645c0-10.086-3.258-18.715-9.766-25.879c2.93-7.813,2.602-16.434-0.977-25.879h-2.441    c-1.953-0.32-5.127,0.328-9.521,1.953c-4.395,1.633-9.361,4.395-14.893,8.301c-7.164-2.273-15.305-3.418-24.414-3.418    c-9.117,0-17.258,1.145-24.414,3.418c-12.375-8.461-21.324-11.879-26.855-10.254c-3.586,9.445-3.906,18.066-0.977,25.879    c-6.516,7.164-9.766,15.793-9.766,25.879c0,16.93,4.066,28.809,12.207,35.645c8.133,6.836,18.875,11.07,32.227,12.695    c-3.258,2.609-5.371,7.004-6.348,13.184c-12.375,5.539-21.813,2.77-28.32-8.301l-1.465-2.441c-1.305-1.625-3.174-3.25-5.615-4.883    c-2.441-1.625-5.127-2.441-8.057-2.441c-5.211,0-5.371,1.953-0.488,5.859l1.465,0.977c1.297,0.656,2.846,2.197,4.639,4.639    c1.785,2.441,3.334,5.295,4.639,8.545l2.441,4.883c1.297,2.93,4.715,5.455,10.254,7.568c5.531,2.121,12.207,2.365,20.02,0.732    c0,3.258,0.076,6.76,0.244,10.498c0.16,3.746,0.244,5.783,0.244,6.104c0,3.906-2.281,5.371-6.836,4.395    c-19.531-6.508-35.568-18.227-48.096-35.156c-12.535-16.922-18.799-35.965-18.799-57.129c0-27.016,9.598-50.049,28.809-69.092    c19.203-19.043,42.152-28.564,68.848-28.564c26.688,0,49.637,9.521,68.848,28.564    C321.062,151.076,330.667,174.109,330.667,201.125z" fill="#FFFFFF"/></g></g></svg>